<svg width="56" height="56" viewBox="0 0 56 56" fill="none" xmlns="http://www.w3.org/2000/svg">
<g clip-path="url(#clip0_12_523)">
<g clip-path="url(#clip1_12_523)">
<g filter="url(#filter0_ii_12_523)">
<path d="M40.2751 0H15.1358C7.75325 0 1.76855 5.9847 1.76855 13.3672V38.5065C1.76855 45.889 7.75325 51.8737 15.1358 51.8737H40.2751C47.6576 51.8737 53.6423 45.889 53.6423 38.5065V13.3672C53.6423 5.9847 47.6576 0 40.2751 0Z" fill="#071A34"/>
</g>
<path d="M36.9498 10.1191C38.0532 10.1191 38.9602 10.1191 39.694 10.1889C40.4565 10.2614 41.1469 10.417 41.7747 10.8018C42.3981 11.1838 42.9222 11.7079 43.3042 12.3312C43.689 12.9591 43.8445 13.6494 43.9171 14.4119C43.9868 15.1457 43.9868 16.0527 43.9868 17.1562V17.2654C43.9868 18.3689 43.9868 19.2759 43.9171 20.0097C43.8445 20.7722 43.689 21.4625 43.3042 22.0904C42.9222 22.7137 42.3981 23.2378 41.7747 23.6199C41.1469 24.0046 40.4565 24.1602 39.694 24.2328C38.9602 24.3025 38.0532 24.3025 36.9498 24.3025H36.8405C35.737 24.3025 34.83 24.3025 34.0962 24.2328C33.3338 24.1602 32.6434 24.0046 32.0156 23.6199C31.3922 23.2378 30.8681 22.7137 30.4861 22.0904C30.1013 21.4625 29.9457 20.7722 29.8732 20.0097C29.8035 19.2759 29.8035 18.3689 29.8035 17.2654V17.1562C29.8035 16.0527 29.8035 15.1457 29.8732 14.4119C29.9457 13.6494 30.1013 12.9591 30.4861 12.3312C30.8681 11.7079 31.3922 11.1838 32.0156 10.8018C32.6434 10.417 33.3338 10.2614 34.0962 10.1889C34.83 10.1191 35.737 10.1191 36.8405 10.1191H36.9498Z" fill="#FAFAFA"/>
<path d="M19.034 10.1191C20.1375 10.1191 21.0445 10.1191 21.7783 10.1889C22.5408 10.2614 23.2311 10.417 23.8589 10.8018C24.4823 11.1838 25.0064 11.7079 25.3884 12.3312C25.7732 12.9591 25.9288 13.6494 26.0013 14.4119C26.071 15.1457 26.071 16.0527 26.071 17.1562V17.2654C26.071 18.3689 26.071 19.2759 26.0013 20.0097C25.9288 20.7722 25.7732 21.4625 25.3884 22.0904C25.0064 22.7137 24.4823 23.2378 23.8589 23.6199C23.2311 24.0046 22.5408 24.1602 21.7783 24.2328C21.0445 24.3025 20.1375 24.3025 19.034 24.3025H18.9248C17.8213 24.3025 16.9142 24.3025 16.1805 24.2328C15.4179 24.1602 14.7277 24.0046 14.0998 23.6199C13.4764 23.2378 12.9523 22.7137 12.5704 22.0904C12.1856 21.4625 12.0299 20.7722 11.9574 20.0097C11.8877 19.2759 11.8877 18.3689 11.8877 17.2654V17.1562C11.8877 16.0527 11.8877 15.1457 11.9574 14.4119C12.0299 13.6494 12.1856 12.9591 12.5704 12.3312C12.9523 11.7079 13.4764 11.1838 14.0998 10.8018C14.7277 10.417 15.4179 10.2614 16.1805 10.1889C16.9142 10.1191 17.8213 10.1191 18.9248 10.1191H19.034Z" fill="#FAFAFA"/>
<path d="M36.9498 28.0349C38.0532 28.0349 38.9602 28.0349 39.694 28.1046C40.4565 28.1772 41.1469 28.3328 41.7747 28.7175C42.3981 29.0996 42.9222 29.6236 43.3042 30.2471C43.689 30.8749 43.8445 31.5652 43.9171 32.3277C43.9868 33.0615 43.9868 33.9685 43.9868 35.0719V35.1812C43.9868 36.2847 43.9868 37.1917 43.9171 37.9255C43.8445 38.6879 43.689 39.3783 43.3042 40.0061C42.9222 40.6296 42.3981 41.1536 41.7747 41.5357C41.1469 41.9204 40.4565 42.076 39.694 42.1485C38.9602 42.2183 38.0532 42.2183 36.9498 42.2183H36.8405C35.737 42.2183 34.83 42.2183 34.0962 42.1485C33.3338 42.076 32.6434 41.9204 32.0156 41.5357C31.3922 41.1536 30.8681 40.6296 30.4861 40.0061C30.1013 39.3783 29.9457 38.6879 29.8732 37.9255C29.8035 37.1917 29.8035 36.2847 29.8035 35.1812V35.0721C29.8035 33.9686 29.8035 33.0615 29.8732 32.3277C29.9457 31.5652 30.1013 30.8749 30.4861 30.2471C30.8681 29.6236 31.3922 29.0996 32.0156 28.7175C32.6434 28.3328 33.3338 28.1772 34.0962 28.1046C34.83 28.0349 35.737 28.0349 36.8405 28.0349H36.9498Z" fill="#FAFAFA"/>
<path d="M19.034 28.0349C20.1375 28.0349 21.0445 28.0349 21.7783 28.1046C22.5408 28.1772 23.2311 28.3328 23.8589 28.7175C24.4823 29.0996 25.0064 29.6236 25.3884 30.2471C25.7732 30.8749 25.9288 31.5652 26.0013 32.3277C26.071 33.0615 26.071 33.9685 26.071 35.0719V35.1812C26.071 36.2847 26.071 37.1917 26.0013 37.9255C25.9288 38.6879 25.7732 39.3783 25.3884 40.0061C25.0064 40.6296 24.4823 41.1536 23.8589 41.5357C23.2311 41.9204 22.5408 42.076 21.7783 42.1485C21.0445 42.2183 20.1375 42.2183 19.034 42.2183H18.9248C17.8213 42.2183 16.9142 42.2183 16.1805 42.1485C15.4179 42.076 14.7277 41.9204 14.0998 41.5357C13.4764 41.1536 12.9523 40.6296 12.5704 40.0061C12.1856 39.3783 12.0299 38.6879 11.9574 37.9255C11.8877 37.1917 11.8877 36.2847 11.8877 35.1812V35.0721C11.8877 33.9686 11.8877 33.0615 11.9574 32.3277C12.0299 31.5652 12.1856 30.8749 12.5704 30.2471C12.9523 29.6236 13.4764 29.0996 14.0998 28.7175C14.7277 28.3328 15.4179 28.1772 16.1805 28.1046C16.9142 28.0349 17.8213 28.0349 18.9248 28.0349H19.034Z" fill="#FAFAFA"/>
</g>
</g>
<defs>
<filter id="filter0_ii_12_523" x="1.76855" y="0" width="51.8738" height="53.2104" filterUnits="userSpaceOnUse" color-interpolation-filters="sRGB">
<feFlood flood-opacity="0" result="BackgroundImageFix"/>
<feBlend mode="normal" in="SourceGraphic" in2="BackgroundImageFix" result="shape"/>
<feColorMatrix in="SourceAlpha" type="matrix" values="0 0 0 0 0 0 0 0 0 0 0 0 0 0 0 0 0 0 127 0" result="hardAlpha"/>
<feOffset dy="1.33672"/>
<feGaussianBlur stdDeviation="0.66836"/>
<feComposite in2="hardAlpha" operator="arithmetic" k2="-1" k3="1"/>
<feColorMatrix type="matrix" values="0 0 0 0 1 0 0 0 0 1 0 0 0 0 1 0 0 0 0.15 0"/>
<feBlend mode="normal" in2="shape" result="effect1_innerShadow_12_523"/>
<feColorMatrix in="SourceAlpha" type="matrix" values="0 0 0 0 0 0 0 0 0 0 0 0 0 0 0 0 0 0 127 0" result="hardAlpha"/>
<feOffset/>
<feGaussianBlur stdDeviation="10.0254"/>
<feComposite in2="hardAlpha" operator="arithmetic" k2="-1" k3="1"/>
<feColorMatrix type="matrix" values="0 0 0 0 1 0 0 0 0 1 0 0 0 0 1 0 0 0 0.05 0"/>
<feBlend mode="normal" in2="effect1_innerShadow_12_523" result="effect2_innerShadow_12_523"/>
</filter>
<clipPath id="clip0_12_523">
<rect width="56" height="56" fill="white"/>
</clipPath>
<clipPath id="clip1_12_523">
<rect width="56" height="56" fill="white"/>
</clipPath>
</defs>
</svg>
