<svg width="100" height="37" viewBox="0 0 100 37" fill="none" xmlns="http://www.w3.org/2000/svg">
<g clip-path="url(#clip0_24_1826)">
<path d="M42.7032 0.5H45.2632C45.2666 3.38991 45.2532 6.27651 45.2732 9.16642C46.5932 7.66037 47.6732 5.94624 49.0932 4.53596C50.0432 4.32129 51.0299 4.42697 51.9966 4.41376C50.9166 5.80422 49.7999 7.17156 48.6932 8.54551C49.7832 10.4644 50.8966 12.3701 51.9966 14.2857C51.0166 14.2857 50.0366 14.2857 49.0566 14.2857C48.3866 13.0967 47.7166 11.9044 47.0366 10.722C46.1199 11.911 45.2066 13.1 44.2899 14.2857C43.7599 14.2857 43.2299 14.2857 42.7032 14.289C42.7032 9.69156 42.7032 5.09743 42.7032 0.5Z" fill="#212121"/>
<path d="M52.9433 6.36896C54.1133 4.40383 56.7433 3.57484 58.8933 4.30474C59.9366 4.6152 60.7266 5.38474 61.48 6.12456C59.9 8.09961 58.1966 9.97887 56.6433 11.9737C57.8633 12.0926 58.94 11.5147 59.6433 10.5602C60.2466 11.1745 60.86 11.7888 61.47 12.4031C59.9666 14.2725 57.2266 15.0915 55.02 13.9752C52.21 12.7169 51.35 8.87906 52.9433 6.36896ZM55.67 7.13851C54.7333 7.89484 54.6266 9.20933 54.85 10.3091C54.9233 10.3158 55.0666 10.3323 55.14 10.3389C56.1666 9.14988 57.0666 7.8552 58.0033 6.59355C57.2066 6.62328 56.3066 6.57043 55.67 7.13851Z" fill="#212121"/>
<path d="M61.6266 4.41378C62.5833 4.45341 63.5999 4.26185 64.5199 4.53268C65.3333 6.50442 65.9433 8.55213 66.6966 10.547C67.4433 8.50259 68.1332 6.44167 68.8932 4.40057C69.8566 4.40717 70.8199 4.40717 71.7866 4.41048C70.5266 7.70662 69.2499 10.9962 67.9833 14.2857C67.1233 14.2857 66.2666 14.2857 65.4099 14.2857C64.1599 10.9896 62.8566 7.71323 61.6266 4.41378Z" fill="#212121"/>
<path d="M72.5066 4.40717C73.3566 4.40717 74.2066 4.40717 75.0599 4.41047C75.0866 6.30295 75.0099 8.19872 75.0799 10.0945C75.0633 11.0061 75.7833 11.8681 76.7133 11.954C77.8166 12.1158 78.8166 11.1051 78.8566 10.0483C78.9366 8.169 78.8533 6.28643 78.8866 4.40717C79.7333 4.40717 80.5833 4.40717 81.4299 4.41047C81.4333 7.70331 81.4399 10.9995 81.4266 14.2956C80.9566 13.9224 80.4866 13.5492 80.0166 13.1793C78.9633 13.9587 77.7033 14.6985 76.3299 14.4343C74.2933 14.2296 72.6233 12.4362 72.5433 10.4149C72.4399 8.41671 72.5266 6.40863 72.5066 4.40717Z" fill="#212121"/>
<path d="M83.3832 4.4303C83.8466 4.8002 84.3099 5.17011 84.7732 5.54002C86.2866 4.35103 88.2566 4.33782 90.0932 4.41378C90.0966 5.25929 90.0966 6.10479 90.0966 6.9503C88.7432 7.02296 86.7399 6.51433 86.0832 8.10626C85.7132 10.1308 86.0166 12.2314 85.9199 14.2857C85.0732 14.2857 84.2266 14.2857 83.3799 14.289C83.3832 11.0028 83.3732 7.71653 83.3832 4.4303Z" fill="#212121"/>
<path d="M91.0833 4.40717C91.9266 4.40717 92.7666 4.40717 93.6099 4.40717C93.6599 6.32276 93.5333 8.24166 93.6566 10.1573C93.6766 11.0688 94.4166 11.9176 95.3599 11.9573C96.4399 12.0662 97.3799 11.0721 97.4166 10.0384C97.5233 8.16239 97.4133 6.28313 97.4533 4.40717C98.3033 4.40717 99.1499 4.40717 99.9999 4.40717V14.3352C99.5566 13.9389 99.0999 13.5591 98.6433 13.1826C97.5599 13.8861 96.3566 14.6787 94.9899 14.4442C93.0499 14.2824 91.3566 12.6773 91.1566 10.7518C90.9733 8.6446 91.1199 6.52093 91.0833 4.40717Z" fill="#212121"/>
<path d="M14.2933 10.0747C16.3866 10.656 18.4533 11.3925 20.6333 11.594C22.7733 11.8681 24.93 11.703 27.07 11.5246C26.19 12.9052 24.9366 13.972 23.88 15.2039C23.11 16.6505 22.73 18.2688 22.0366 19.7518C23.6833 19.3026 25.2733 18.5496 26.9966 18.467C28.88 18.5331 30.6533 19.2663 32.4233 19.8376C30.2033 20.0589 27.95 18.9624 25.7933 19.8442C23.3833 20.7888 21.06 21.9382 18.6866 22.9687C16.9766 23.7283 15.0233 23.7448 13.3533 24.6134C12.0666 25.2509 11.0466 26.2945 10.2033 27.4307C9.70663 28.2266 8.93996 28.7881 8.03996 29.0655C4.84663 30.2677 2.39663 33.0255 1.3533 36.2259C1.01663 36.292 0.339963 36.4274 0.0032959 36.4934C0.963296 33.2402 2.95663 30.3338 5.54663 28.1342C5.56663 26.1327 5.15663 23.9198 6.34996 22.1529C4.63996 22.8465 2.76996 21.8688 2.19996 20.1745C3.7333 20.452 5.24996 20.812 6.77663 21.1257C6.91663 21.1554 7.19663 21.2116 7.33663 21.2413C10.0233 19.8013 12.84 18.5991 15.8033 17.8428C18.1166 17.2912 19.9733 15.6101 21.09 13.5723C18.6366 12.8094 16.3166 11.6501 14.2933 10.0747Z" fill="#212121"/>
<path d="M43.3266 18.3348C44.4266 16.918 46.8266 16.9939 47.8833 18.4306C47.8466 17.9022 48.0233 17.4761 48.42 17.1558C48.5166 18.7675 48.4733 20.3825 48.4833 21.9976C48.4633 22.8266 48.44 23.791 47.7733 24.3987C47.0333 25.0692 45.93 25.1154 44.9866 24.98C44.2533 24.8446 43.3033 24.62 43.1366 23.758C44.3166 24.3095 45.71 24.9205 46.9933 24.3062C48.01 23.8207 47.88 22.5591 48.0033 21.631C47.11 22.4303 45.9 23.0446 44.68 22.5954C42.88 22.1462 42.1966 19.7385 43.3266 18.3348ZM45.1033 17.8427C43.3533 18.0739 42.7566 20.5081 44.0033 21.6343C45.2366 22.8398 47.7933 22.1561 47.9133 20.3363C48.2366 18.7741 46.6 17.4398 45.1033 17.8427Z" fill="#212121"/>
<path d="M51.9667 18.3315C53.0667 17.0138 55.9533 16.7528 56.4833 18.6949C56.56 20.1745 56.84 21.7697 56.29 23.1866C56.21 22.9389 56.0467 22.4402 55.9667 22.1892C55.1433 22.9818 53.8833 23.1437 52.8367 22.7374C51.7767 22.2982 51.69 20.5675 52.7467 20.0754C53.8167 19.6361 55.0133 19.8706 56.14 19.7914C55.93 19.1837 56.0167 18.3051 55.32 17.9881C54.2167 17.4563 53.07 18.1697 51.9667 18.3315ZM53.0733 22.318C53.9633 22.7077 55.1867 22.5789 55.7767 21.7466C56.0467 21.2974 56.01 20.7393 56.1233 20.2438C55.2 20.2471 54.26 20.1613 53.3467 20.3231C52.3933 20.4816 52.2367 21.8952 53.0733 22.318Z" fill="#212121"/>
<path d="M60.5799 17.562C60.6866 17.4531 60.8933 17.2384 60.9966 17.1327C61.0099 17.4332 61.0299 18.0343 61.0433 18.3316C62.0999 17.0138 64.3566 16.9147 65.2766 18.4406C66.2433 17.0865 68.7199 16.7892 69.5499 18.4142C70.0199 19.9235 69.7533 21.5551 69.7399 23.114L69.3333 22.7342C69.0666 21.3932 69.5066 19.9631 69.0399 18.652C68.3366 17.245 65.8899 17.6413 65.5499 19.1441C65.3199 20.3793 65.4599 21.6476 65.4333 22.896L64.8866 22.9224C64.8433 21.5848 65.0133 20.2274 64.7699 18.9063C64.3033 17.2483 61.5566 17.529 61.1899 19.1242C60.9599 20.3727 61.1033 21.6542 61.0733 22.9191C60.9333 22.9092 60.6533 22.8927 60.5166 22.8828C60.5766 21.1125 60.4199 19.3257 60.5799 17.562Z" fill="#212121"/>
<path d="M73.8467 18.1664C74.8367 17.0369 76.8267 17.017 77.83 18.1466C78.37 18.708 78.4567 19.5139 78.63 20.2372C76.9533 20.2769 75.2733 20.2438 73.5967 20.2669C73.84 21.0662 74.1533 21.9844 75.0333 22.2849C76.12 22.82 77.2167 22.1991 78.1833 21.7202C77.7367 23.1403 75.8133 23.1502 74.6567 22.668C72.9767 21.9051 72.6633 19.4809 73.8467 18.1664ZM73.5767 19.8211C75.0933 19.864 76.6133 19.8673 78.13 19.8079C77.8167 18.718 76.9533 17.6247 75.6833 17.7899C74.52 17.7833 73.8833 18.8501 73.5767 19.8211Z" fill="#212121"/>
<path d="M81.36 18.6387C81.7466 16.8717 84.51 16.9675 85.56 18.1136C84.5133 18.0376 83.3966 17.5224 82.38 17.9947C81.7966 18.2358 81.6433 19.1176 82.18 19.4908C83.1766 20.0424 84.4933 19.8574 85.3566 20.6468C86 21.5022 85.3233 22.7506 84.2966 22.8629C83.23 23.0677 81.5333 23.0842 81.09 21.8721C82.1966 22.242 83.4466 22.8431 84.59 22.2486C85.2933 21.8886 85.18 20.7525 84.3433 20.6501C83.2433 20.2438 81.11 20.3396 81.36 18.6387Z" fill="#212121"/>
<path d="M19.42 4.10332C23.3 3.92497 27.2167 5.24277 30.0634 7.88497C27.8634 8.43653 25.5534 8.73048 23.2967 8.38699C21.2367 7.97745 19.7 6.13121 19.42 4.10332Z" fill="#646464"/>
<path d="M14.9401 5.19323C15.7567 4.9092 16.5834 4.65489 17.4167 4.4303C17.5067 5.35507 17.7334 6.26002 18.1401 7.10222C17.0367 6.52424 15.9334 5.94626 14.9401 5.19323Z" fill="#646464"/>
<path d="M7.71669 12.1488C8.89002 9.59251 10.91 7.48536 13.3067 6.01233C15.2434 8.08315 17.8234 9.60903 20.66 10.0516C23.9434 10.6527 27.39 9.81049 30.1267 7.95104C32.3234 10.1044 33.8834 12.9382 34.28 15.9932C34.9267 20.1943 33.4467 24.6399 30.4134 27.6388C27.65 30.4626 23.6234 32.0017 19.66 31.7573C16.0934 31.6021 12.6734 29.9672 10.2034 27.4307C11.0467 26.2945 12.0667 25.2509 13.3534 24.6134C15.0234 23.7448 16.9767 23.7283 18.6867 22.9687C21.06 21.9382 23.3834 20.7888 25.7934 19.8443C27.95 18.9624 30.2034 20.0589 32.4234 19.8377C30.6534 19.2663 28.88 18.5331 26.9967 18.467C25.2734 18.5496 23.6834 19.3026 22.0367 19.7518C22.73 18.2688 23.11 16.6505 23.88 15.2039C24.9367 13.972 26.19 12.9052 27.07 11.5246C24.93 11.703 22.7734 11.8681 20.6334 11.594C18.4534 11.3925 16.3867 10.656 14.2934 10.0747C16.3167 11.6501 18.6367 12.8094 21.09 13.5723C19.9734 15.6101 18.1167 17.2912 15.8034 17.8428C12.84 18.5991 10.0234 19.8013 7.33669 21.2413C7.19669 21.2116 6.91669 21.1555 6.77669 21.1257C6.12336 18.1334 6.38669 14.9298 7.71669 12.1488Z" fill="#646464"/>
<path d="M43.4633 27.0707C44.4633 28.1309 43.27 29.911 44.2766 31.0043C44.8433 31.394 45.53 31.1298 46.1433 31.0373C46.46 29.8087 46.4 28.5371 46.3966 27.2821C46.52 27.292 46.7633 27.3052 46.8866 27.3118C46.8766 28.3786 46.9566 29.452 46.8333 30.5154C46.5466 32.114 43.7166 32.1305 43.43 30.532C43.32 29.3826 43.3666 28.22 43.4633 27.0707Z" fill="#646464"/>
<path d="M49.8034 27.3151C49.9167 27.3085 50.1434 27.2887 50.2567 27.2787C50.2667 28.2498 50.27 29.2175 50.2767 30.1852C50.9867 29.5213 51.5867 28.6428 52.5867 28.3819C52.14 28.9235 51.6534 29.4255 51.1567 29.9176C51.6267 30.489 52.1 31.0571 52.5734 31.6285C52.4267 31.6285 52.1334 31.6252 51.9867 31.6219C51.5567 31.1265 51.1267 30.6277 50.69 30.1356C50.4234 30.7169 50.2167 31.3246 49.91 31.8894C49.72 30.3734 49.8267 28.8409 49.8034 27.3151Z" fill="#646464"/>
<path d="M64.1934 31.7077C64.3734 30.2215 63.6701 28.4908 64.5167 27.1664C64.6601 28.6362 64.6367 30.1158 64.6367 31.5921C64.5267 31.6186 64.3034 31.678 64.1934 31.7077Z" fill="#646464"/>
<path d="M54.8767 28.4645C55.3367 28.8641 55.8067 28.6725 56.2667 28.4182C56.28 28.5338 56.3033 28.765 56.3167 28.8806C56.0067 28.9797 55.7 29.0821 55.3933 29.1845C55.2833 30.0861 55.58 31.1265 54.9567 31.8861C54.8167 30.75 54.88 29.6039 54.8767 28.4645Z" fill="#646464"/>
<path d="M58.5801 29.0259C59.2967 28.4942 60.3634 28.111 61.1167 28.8079C61.4101 29.7525 61.2367 30.7632 61.2534 31.7342C60.8434 31.5954 60.4401 31.4468 60.0401 31.285L60.7534 31.067C60.7634 30.8325 60.7767 30.3602 60.7834 30.1257C60.1167 29.9143 59.1167 29.8813 59.0567 30.7995C59.3867 31.1033 59.6867 31.4303 59.9634 31.7804C59.3401 31.6648 58.4434 31.3543 58.6967 30.5518C58.6934 29.3331 60.2334 29.7591 60.9967 29.7624C60.8467 29.5345 60.5467 29.0787 60.3967 28.8509C59.7867 28.9004 59.1901 29.0259 58.5801 29.0259Z" fill="#646464"/>
<path d="M67.3833 28.6923C68.18 28.7287 69.1366 28.1441 69.8266 28.7022C70.0866 29.6898 70.3666 31.0208 69.62 31.863C69.5233 30.9217 69.5433 29.9738 69.54 29.0259C68.99 28.8608 68.43 28.9731 67.8866 29.0986C67.88 29.9705 67.8733 30.8424 67.8533 31.7177C67.7433 31.6813 67.5233 31.6153 67.4133 31.5822C67.4166 30.6211 67.42 29.6567 67.3833 28.6923Z" fill="#646464"/>
<path d="M73.0367 28.6032C73.5767 28.5734 74.17 28.3059 74.7067 28.5239C75.4167 28.7485 75.53 29.561 75.7867 30.1489C74.8433 30.1621 73.9 30.1588 72.9567 30.1819C73.23 30.6079 73.3867 31.2222 73.9733 31.3279C74.5133 31.285 75.03 31.1166 75.56 31.0109C74.8833 32.1041 72.93 31.8762 72.6433 30.5881C72.6433 30.1852 72.64 29.3793 72.64 28.9764C72.86 29.2736 73.07 29.5742 73.2767 29.8813C73.99 29.8516 74.7034 29.812 75.4134 29.7162C74.9234 28.7386 73.85 29.0259 73.0367 28.6032Z" fill="#646464"/>
</g>
<defs>
<clipPath id="clip0_24_1826">
<rect width="100" height="36" fill="white" transform="translate(0 0.5)"/>
</clipPath>
</defs>
</svg>
