<svg width="100" height="27" viewBox="0 0 100 27" fill="none" xmlns="http://www.w3.org/2000/svg">
<g clip-path="url(#clip0_24_1783)">
<path d="M4.26754 0H0V12.6968H4.26754V0Z" fill="#212121"/>
<path d="M13.2767 0H0V4.23227H13.2767V0Z" fill="#212121"/>
<path d="M19.9151 0H14.2251V20.6912H19.9151V0Z" fill="#212121"/>
<path d="M13.2767 13.6374H0V20.6912H13.2767V13.6374Z" fill="#ACACAC"/>
<path d="M28.9211 11.9104V10.2022H26.3021V5.77628C26.3021 5.20687 26.3021 4.61157 26.5332 4.22335C26.8156 3.75747 27.3035 3.65394 27.7143 3.65394C28.0995 3.65394 28.536 3.73159 28.9211 3.88686V2.0751C28.7157 1.99746 28.2792 1.84216 27.6116 1.84216C26.7643 1.84216 25.9939 2.10099 25.4804 2.54099C24.5304 3.34334 24.4533 4.58569 24.4533 5.56921V10.2022H23.4263V11.9104H24.4533V20.9434H26.3021V11.9104H28.9211Z" fill="#212121"/>
<path d="M31.3919 10.2022H29.5432V16.6728C29.5432 17.9928 29.6716 18.9763 30.5189 19.9081C31.469 20.9175 32.7271 21.254 33.7799 21.254C34.8326 21.254 36.091 20.9175 37.041 19.9081C37.8881 18.9763 38.0167 17.9928 38.0167 16.6728V10.2022H36.1677V16.4657C36.1677 17.2163 36.1677 18.0963 35.6543 18.7693C35.3719 19.1316 34.807 19.5975 33.7799 19.5975C32.7528 19.5975 32.1879 19.1316 31.9055 18.7693C31.3919 18.0963 31.3919 17.2163 31.3919 16.4657V10.2022Z" fill="#212121"/>
<path d="M38.9365 20.9434H40.7854V15.3269C40.7854 14.5504 40.8365 13.2822 41.5555 12.4281C42.0947 11.781 42.7879 11.5998 43.4301 11.5998C44.2515 11.5998 44.8165 11.9104 45.1762 12.3763C45.6126 12.9457 45.664 13.6963 45.664 14.3434V20.9434H47.5126V14.2916C47.5126 13.101 47.4358 12.221 46.8965 11.4186C46.2544 10.461 45.099 9.94336 43.8408 9.94336C42.069 9.94336 41.119 11.0045 40.7854 11.4445V10.2022H38.9365V20.9434Z" fill="#212121"/>
<path d="M57.3653 11.7293C56.8775 11.0822 55.7735 9.94338 53.7193 9.94338C50.9975 9.94338 48.5325 11.8587 48.5325 15.5599C48.5325 19.3387 51.0232 21.254 53.7193 21.254C55.5939 21.254 56.7493 20.2446 57.3653 19.4422V20.9434H59.2143V2.07513H57.3653V11.7293ZM53.9246 11.5999C55.5682 11.5999 57.4682 12.8163 57.4682 15.5857C57.4682 17.7081 56.1843 19.5975 53.9246 19.5975C51.7164 19.5975 50.4328 17.8634 50.4328 15.5599C50.4328 12.9457 52.1018 11.5999 53.9246 11.5999Z" fill="#212121"/>
<path d="M66.5672 11.8846C65.7201 10.0469 64.2051 9.94336 63.6401 9.94336C61.8429 9.94336 60.5333 11.0563 60.5333 12.9457C60.5333 13.4893 60.6104 14.0069 61.0212 14.5245C61.509 15.1198 62.3308 15.5339 63.6144 16.1034C64.6158 16.5434 65.3351 16.8798 65.3351 17.8892C65.3351 18.6916 64.7958 19.5975 63.589 19.5975C62.2537 19.5975 61.6376 18.4069 61.4319 17.8375L59.8401 18.5104C60.7387 21.2022 63.1265 21.254 63.5633 21.254C65.6172 21.254 67.2351 19.9857 67.2351 17.734C67.2351 17.1387 67.1322 16.5693 66.6701 15.9999C66.2594 15.4822 65.5404 14.9904 63.9997 14.3434C62.7929 13.8257 62.2794 13.5928 62.2794 12.8163C62.2794 11.9881 62.8954 11.5998 63.5633 11.5998C64.2565 11.5998 64.7958 12.0657 65.0526 12.6869L66.5672 11.8846Z" fill="#212121"/>
<path d="M67.8914 20.9434H69.7399V15.3269C69.7399 14.5504 69.7914 13.2822 70.5103 12.4281C71.0496 11.781 71.7428 11.5999 72.3846 11.5999C73.2064 11.5999 73.7714 11.9105 74.1306 12.3763C74.5671 12.9457 74.6185 13.6963 74.6185 14.3434V20.9434H76.4674V14.2916C76.4674 13.1011 76.3903 12.221 75.851 11.4187C75.2092 10.461 74.0539 9.94338 72.7956 9.94338C71.0239 9.94338 70.0739 11.0046 69.7399 11.4445V2.07513H67.8914V20.9434Z" fill="#212121"/>
<path d="M82.8796 21.254C86.115 21.254 88.5286 18.8728 88.5286 15.6116C88.5286 12.3504 86.1407 9.94336 82.8796 9.94336C79.6186 9.94336 77.2307 12.3504 77.2307 15.6116C77.2307 18.8728 79.6443 21.254 82.8796 21.254ZM82.8796 11.5998C84.8311 11.5998 86.6286 12.9716 86.6286 15.6116C86.6286 18.2257 84.8054 19.5975 82.8796 19.5975C80.9796 19.5975 79.1307 18.2516 79.1307 15.6116C79.1307 12.9975 80.9282 11.5998 82.8796 11.5998Z" fill="#212121"/>
<path d="M91.1581 19.4422C91.9542 20.4775 93.161 21.254 94.8814 21.254C98.1167 21.254 99.991 18.5881 99.991 15.6375C99.991 12.7387 98.1424 9.94336 94.8042 9.94336C94.0339 9.94336 92.4164 10.1245 91.1581 11.7034V10.2022H89.3096V26.9999H91.1581V19.4422ZM94.6246 19.5975C92.4421 19.5975 91.0556 17.8116 91.0556 15.6116C91.0556 13.0234 92.8785 11.5998 94.5989 11.5998C96.3192 11.5998 98.091 12.9975 98.091 15.6375C98.091 17.7857 96.7814 19.5975 94.6246 19.5975Z" fill="#212121"/>
<path d="M1.58126 24.7664C1.52771 24.662 1.4456 24.5649 1.3492 24.5001C1.23139 24.421 1.11358 24.3922 0.967207 24.3922C0.581639 24.3922 0.299605 24.6404 0.299605 25.0111C0.299605 25.191 0.360297 25.3026 0.463829 25.4034C0.570929 25.5077 0.688743 25.5581 0.781564 25.6013L0.995768 25.702C1.12072 25.7596 1.21354 25.8028 1.28137 25.8676C1.36705 25.9467 1.39919 26.0403 1.39919 26.1483C1.39919 26.3894 1.24567 26.6233 0.920797 26.6233C0.799414 26.6233 0.6816 26.5945 0.578072 26.4902C0.510239 26.4182 0.453118 26.3102 0.435268 26.1843L0.178223 26.2562C0.210353 26.4002 0.281755 26.5657 0.399568 26.6809C0.563789 26.8428 0.760143 26.8752 0.917225 26.8752C1.34563 26.8752 1.67051 26.5801 1.67051 26.1375C1.67051 25.9647 1.62053 25.8244 1.49915 25.702C1.39919 25.6013 1.27066 25.5365 1.13143 25.4753L0.902947 25.3746C0.813693 25.335 0.724443 25.2954 0.653039 25.2234C0.588779 25.1623 0.563789 25.1083 0.563789 25.0147C0.563789 24.7916 0.728011 24.644 0.963636 24.644C1.0993 24.644 1.18498 24.6908 1.23139 24.7268C1.28494 24.77 1.33849 24.842 1.37063 24.9067L1.58126 24.7664Z" fill="#212121"/>
<path d="M3.20052 26.832L3.43615 25.1623L4.23586 26.9328L5.04625 25.1623L5.27114 26.832H5.5425L5.17121 24.295L4.23943 26.3246L3.32547 24.2986L2.9292 26.832H3.20052Z" fill="#212121"/>
<path d="M8.54234 26.832H8.83506L7.76763 24.3166L6.67163 26.832H6.96434L7.24995 26.1555H8.26388L8.54234 26.832ZM7.35349 25.9036L7.76049 24.9427L8.16035 25.9036H7.35349Z" fill="#212121"/>
<path d="M10.0278 24.4317V26.832H10.9489V26.5801H10.292V24.4317H10.0278Z" fill="#212121"/>
<path d="M12.1641 24.4317V26.832H13.0851V26.5801H12.4282V24.4317H12.1641Z" fill="#212121"/>
<path d="M15.9905 24.4317V26.832H16.5831C16.7473 26.832 16.9651 26.8248 17.1543 26.6737C17.2828 26.5729 17.3971 26.3858 17.3971 26.1555C17.3971 25.9252 17.2757 25.6337 16.9437 25.5509C17.1543 25.4069 17.1793 25.1982 17.1793 25.0795C17.1793 24.788 17.0401 24.6404 16.9651 24.5829C16.7902 24.4425 16.551 24.4317 16.4189 24.4317H15.9905ZM16.2547 24.6836H16.4617C16.5367 24.6836 16.9223 24.6908 16.9223 25.0867C16.9223 25.4573 16.5938 25.4861 16.4546 25.4861H16.2547V24.6836ZM16.2547 25.7236H16.526C16.7152 25.7236 16.8402 25.7452 16.9294 25.7956C17.0222 25.846 17.1329 25.9575 17.1329 26.1483C17.1329 26.2922 17.0687 26.4109 16.9758 26.4793C16.8616 26.5693 16.7117 26.5801 16.5581 26.5801H16.2547V25.7236Z" fill="#212121"/>
<path d="M19.0047 24.4317H18.7405V25.9755C18.7405 26.1771 18.7619 26.3714 18.8904 26.5513C19.0332 26.7492 19.2831 26.8752 19.5866 26.8752C19.8901 26.8752 20.1399 26.7492 20.2828 26.5513C20.4113 26.3714 20.4327 26.1771 20.4327 25.9755V24.4317H20.1685V25.9036C20.1685 26.1051 20.1685 26.3246 19.9793 26.4865C19.8829 26.5693 19.7187 26.6233 19.5866 26.6233C19.4545 26.6233 19.2903 26.5693 19.1939 26.4865C19.0047 26.3246 19.0047 26.1051 19.0047 25.9036V24.4317Z" fill="#212121"/>
<path d="M23.1796 24.7664C23.1261 24.662 23.044 24.5649 22.9476 24.5001C22.8298 24.421 22.712 24.3922 22.5656 24.3922C22.18 24.3922 21.898 24.6404 21.898 25.0111C21.898 25.191 21.9587 25.3026 22.0622 25.4034C22.1693 25.5077 22.2871 25.5581 22.38 25.6013L22.5941 25.702C22.7191 25.7596 22.8119 25.8028 22.8798 25.8676C22.9654 25.9467 22.9976 26.0403 22.9976 26.1483C22.9976 26.3894 22.8441 26.6233 22.5192 26.6233C22.3978 26.6233 22.28 26.5945 22.1765 26.4902C22.1086 26.4182 22.0515 26.3102 22.0336 26.1843L21.7766 26.2562C21.8088 26.4002 21.8801 26.5657 21.998 26.6809C22.1622 26.8428 22.3585 26.8752 22.5156 26.8752C22.944 26.8752 23.2689 26.5801 23.2689 26.1375C23.2689 25.9647 23.2189 25.8244 23.0975 25.702C22.9976 25.6013 22.869 25.5365 22.7298 25.4753L22.5013 25.3746C22.4121 25.335 22.3228 25.2954 22.2514 25.2234C22.1872 25.1623 22.1622 25.1083 22.1622 25.0147C22.1622 24.7916 22.3264 24.644 22.562 24.644C22.6977 24.644 22.7834 24.6908 22.8298 24.7268C22.8833 24.77 22.9369 24.842 22.969 24.9067L23.1796 24.7664Z" fill="#212121"/>
<path d="M24.6099 24.4317V26.832H24.874V24.4317H24.6099Z" fill="#212121"/>
<path d="M26.6094 26.832V24.9787L28.4659 26.94V24.4317H28.2016V26.2922L26.3452 24.3309V26.832H26.6094Z" fill="#212121"/>
<path d="M31.1706 24.4317H29.9353V26.832H31.1706V26.5801H30.1995V25.648H31.142V25.3961H30.1995V24.6836H31.1706V24.4317Z" fill="#212121"/>
<path d="M33.789 24.7664C33.7355 24.662 33.6534 24.5649 33.557 24.5001C33.4392 24.421 33.3213 24.3922 33.175 24.3922C32.7894 24.3922 32.5074 24.6404 32.5074 25.0111C32.5074 25.191 32.5681 25.3026 32.6716 25.4034C32.7787 25.5077 32.8965 25.5581 32.9893 25.6013L33.2036 25.702C33.3285 25.7596 33.4213 25.8028 33.4891 25.8676C33.5748 25.9467 33.607 26.0403 33.607 26.1483C33.607 26.3894 33.4535 26.6233 33.1286 26.6233C33.0072 26.6233 32.8894 26.5945 32.7858 26.4902C32.718 26.4182 32.6609 26.3102 32.6431 26.1843L32.386 26.2562C32.4181 26.4002 32.4895 26.5657 32.6073 26.6809C32.7716 26.8428 32.9679 26.8752 33.125 26.8752C33.5534 26.8752 33.8783 26.5801 33.8783 26.1375C33.8783 25.9647 33.8283 25.8244 33.7069 25.702C33.607 25.6013 33.4785 25.5365 33.3392 25.4753L33.1107 25.3746C33.0215 25.335 32.9322 25.2954 32.8608 25.2234C32.7966 25.1623 32.7716 25.1083 32.7716 25.0147C32.7716 24.7916 32.9358 24.644 33.1714 24.644C33.3071 24.644 33.3928 24.6908 33.4392 24.7268C33.4927 24.77 33.5463 24.842 33.5784 24.9067L33.789 24.7664Z" fill="#212121"/>
<path d="M36.4936 24.7664C36.4401 24.662 36.3579 24.5649 36.2615 24.5001C36.1436 24.421 36.0258 24.3922 35.8797 24.3922C35.494 24.3922 35.212 24.6404 35.212 25.0111C35.212 25.191 35.2726 25.3026 35.3762 25.4034C35.4833 25.5077 35.6011 25.5581 35.6939 25.6013L35.9083 25.702C36.0329 25.7596 36.1258 25.8028 36.1936 25.8676C36.2794 25.9467 36.3115 26.0403 36.3115 26.1483C36.3115 26.3894 36.1579 26.6233 35.8333 26.6233C35.7118 26.6233 35.594 26.5945 35.4904 26.4902C35.4226 26.4182 35.3655 26.3102 35.3476 26.1843L35.0906 26.2562C35.1227 26.4002 35.1941 26.5657 35.3119 26.6809C35.4761 26.8428 35.6725 26.8752 35.8297 26.8752C36.2579 26.8752 36.5829 26.5801 36.5829 26.1375C36.5829 25.9647 36.5329 25.8244 36.4115 25.702C36.3115 25.6013 36.1829 25.5365 36.0436 25.4753L35.8154 25.3746C35.7261 25.335 35.6368 25.2954 35.5654 25.2234C35.5011 25.1623 35.4761 25.1083 35.4761 25.0147C35.4761 24.7916 35.6404 24.644 35.8761 24.644C36.0115 24.644 36.0972 24.6908 36.1436 24.7268C36.1972 24.77 36.2508 24.842 36.2829 24.9067L36.4936 24.7664Z" fill="#212121"/>
<path d="M39.6135 24.4317V26.832H40.5346V26.5801H39.8778V24.4317H39.6135Z" fill="#212121"/>
<path d="M42.7382 26.8752C43.4271 26.8752 43.9771 26.3462 43.9771 25.6337C43.9771 24.9175 43.4236 24.3922 42.7382 24.3922C42.0528 24.3922 41.4993 24.9175 41.4993 25.6337C41.4993 26.3462 42.0493 26.8752 42.7382 26.8752ZM42.7382 24.644C43.2739 24.644 43.7057 25.0831 43.7057 25.6337C43.7057 26.1843 43.2739 26.6233 42.7382 26.6233C42.2028 26.6233 41.7707 26.1843 41.7707 25.6337C41.7707 25.0831 42.2028 24.644 42.7382 24.644Z" fill="#212121"/>
<path d="M46.7687 26.832H47.0615L45.994 24.3166L44.8979 26.832H45.1908L45.4762 26.1555H46.4901L46.7687 26.832ZM45.5797 25.9036L45.9869 24.9427L46.3865 25.9036H45.5797Z" fill="#212121"/>
<path d="M48.5182 26.832V24.9787L50.3746 26.94V24.4317H50.1103V26.2922L48.2539 24.3309V26.832H48.5182Z" fill="#212121"/>
<path d="M53.1187 24.7664C53.0651 24.662 52.983 24.5649 52.8865 24.5001C52.7687 24.421 52.6512 24.3922 52.5047 24.3922C52.119 24.3922 51.8369 24.6404 51.8369 25.0111C51.8369 25.191 51.8976 25.3026 52.0012 25.4034C52.1083 25.5077 52.2262 25.5581 52.319 25.6013L52.5333 25.702C52.6583 25.7596 52.7508 25.8028 52.8187 25.8676C52.9044 25.9467 52.9365 26.0403 52.9365 26.1483C52.9365 26.3894 52.783 26.6233 52.4583 26.6233C52.3369 26.6233 52.219 26.5945 52.1155 26.4902C52.0476 26.4182 51.9905 26.3102 51.9726 26.1843L51.7158 26.2562C51.748 26.4002 51.819 26.5657 51.9369 26.6809C52.1012 26.8428 52.2976 26.8752 52.4547 26.8752C52.883 26.8752 53.208 26.5801 53.208 26.1375C53.208 25.9647 53.158 25.8244 53.0365 25.702C52.9365 25.6013 52.808 25.5365 52.669 25.4753L52.4405 25.3746C52.3512 25.335 52.2619 25.2954 52.1905 25.2234C52.1262 25.1623 52.1012 25.1083 52.1012 25.0147C52.1012 24.7916 52.2655 24.644 52.5012 24.644C52.6369 24.644 52.7222 24.6908 52.7687 24.7268C52.8222 24.77 52.8758 24.842 52.908 24.9067L53.1187 24.7664Z" fill="#212121"/>
<path d="M56.5028 24.4317H56.2385V26.832H56.5028V25.6588H57.7239V26.832H57.9882V24.4317H57.7239V25.4069H56.5028V24.4317Z" fill="#212121"/>
<path d="M61.0514 26.832H61.3442L60.2767 24.3166L59.1807 26.832H59.4735L59.7592 26.1555H60.7732L61.0514 26.832ZM59.8628 25.9036L60.2696 24.9427L60.6696 25.9036H59.8628Z" fill="#212121"/>
<path d="M63.8115 24.7664C63.758 24.662 63.6758 24.5649 63.5794 24.5001C63.4619 24.421 63.344 24.3922 63.1976 24.3922C62.8119 24.3922 62.5301 24.6404 62.5301 25.0111C62.5301 25.191 62.5905 25.3026 62.694 25.4034C62.8012 25.5077 62.919 25.5581 63.0119 25.6013L63.2262 25.702C63.3512 25.7596 63.444 25.8028 63.5115 25.8676C63.5973 25.9467 63.6294 26.0403 63.6294 26.1483C63.6294 26.3894 63.4762 26.6233 63.1512 26.6233C63.0298 26.6233 62.9119 26.5945 62.8083 26.4902C62.7405 26.4182 62.6833 26.3102 62.6655 26.1843L62.4087 26.2562C62.4408 26.4002 62.5123 26.5657 62.6298 26.6809C62.794 26.8428 62.9905 26.8752 63.1476 26.8752C63.5758 26.8752 63.9008 26.5801 63.9008 26.1375C63.9008 25.9647 63.8508 25.8244 63.7294 25.702C63.6294 25.6013 63.5008 25.5365 63.3619 25.4753L63.1333 25.3746C63.044 25.335 62.9548 25.2954 62.8833 25.2234C62.819 25.1623 62.794 25.1083 62.794 25.0147C62.794 24.7916 62.9583 24.644 63.194 24.644C63.3298 24.644 63.4155 24.6908 63.4619 24.7268C63.5151 24.77 63.5687 24.842 63.6008 24.9067L63.8115 24.7664Z" fill="#212121"/>
<path d="M66.5161 24.7664C66.4626 24.662 66.3804 24.5649 66.284 24.5001C66.1661 24.421 66.0486 24.3922 65.9022 24.3922C65.5165 24.3922 65.2344 24.6404 65.2344 25.0111C65.2344 25.191 65.2951 25.3026 65.3986 25.4034C65.5058 25.5077 65.6236 25.5581 65.7165 25.6013L65.9308 25.702C66.0558 25.7596 66.1483 25.8028 66.2161 25.8676C66.3019 25.9467 66.334 26.0403 66.334 26.1483C66.334 26.3894 66.1804 26.6233 65.8558 26.6233C65.7344 26.6233 65.6165 26.5945 65.5129 26.4902C65.4451 26.4182 65.3879 26.3102 65.3701 26.1843L65.1133 26.2562C65.1454 26.4002 65.2165 26.5657 65.3344 26.6809C65.4986 26.8428 65.6951 26.8752 65.8522 26.8752C66.2804 26.8752 66.6054 26.5801 66.6054 26.1375C66.6054 25.9647 66.5554 25.8244 66.434 25.702C66.334 25.6013 66.2054 25.5365 66.0665 25.4753L65.8379 25.3746C65.7486 25.335 65.6594 25.2954 65.5879 25.2234C65.5236 25.1623 65.4986 25.1083 65.4986 25.0147C65.4986 24.7916 65.6629 24.644 65.8986 24.644C66.0344 24.644 66.1197 24.6908 66.1661 24.7268C66.2197 24.77 66.2733 24.842 66.3054 24.9067L66.5161 24.7664Z" fill="#212121"/>
<path d="M67.946 24.4317V26.832H68.8671V26.5801H68.2103V24.4317H67.946Z" fill="#212121"/>
<path d="M71.3179 24.4317H70.0825V26.832H71.3179V26.5801H70.3468V25.648H71.2893V25.3961H70.3468V24.6836H71.3179V24.4317Z" fill="#212121"/>
<path d="M75.4368 24.4317H74.3518V26.832H74.6157V25.6444H75.4082V25.3925H74.6157V24.6836H75.4368V24.4317Z" fill="#212121"/>
<path d="M76.7563 24.4317V26.832H77.0206V25.7812H77.0885L77.8131 26.832H78.1346L77.3774 25.7596C77.7381 25.7344 77.9774 25.4645 77.9774 25.0975C77.9774 24.842 77.856 24.6584 77.7167 24.5649C77.5381 24.4425 77.2989 24.4317 77.1385 24.4317H76.7563ZM77.0206 24.6836H77.1813C77.2953 24.6836 77.4167 24.6908 77.5238 24.752C77.6738 24.8384 77.7131 24.9715 77.7131 25.1046C77.7131 25.3853 77.5167 25.5437 77.1885 25.5437H77.0206V24.6836Z" fill="#212121"/>
<path d="M80.6403 24.4317H79.4053V26.832H80.6403V26.5801H79.6692V25.648H80.6117V25.3961H79.6692V24.6836H80.6403V24.4317Z" fill="#212121"/>
<path d="M83.2197 24.4317H81.9844V26.832H83.2197V26.5801H82.2487V25.648H83.1912V25.3961H82.2487V24.6836H83.2197V24.4317Z" fill="#212121"/>
<path d="M85.344 22.3841V22.1516H84.4583V22.3841H84.7672V23.5364H85.035V22.3841H85.344Z" fill="#ACACAC"/>
<path d="M85.4436 23.5364H85.7154L85.8554 22.6831L86.2157 23.5551H86.29L86.6668 22.6831L86.7904 23.5364H87.0625L86.8318 22.1267H86.6465L86.2572 23.0319L85.8843 22.1267H85.699L85.4436 23.5364Z" fill="#ACACAC"/>
</g>
<defs>
<clipPath id="clip0_24_1783">
<rect width="100" height="27" fill="white"/>
</clipPath>
</defs>
</svg>
