<svg width="100" height="33" viewBox="0 0 100 33" fill="none" xmlns="http://www.w3.org/2000/svg">
<path d="M6.66675 5.40668C7.26837 5.41488 8.4635 5.43129 9.05699 5.4395C9.06512 11.1749 9.05699 16.9103 9.06512 22.6457C8.4635 22.6457 7.26837 22.6621 6.66675 22.6621C6.66675 16.9103 6.66675 11.1585 6.66675 5.40668Z" fill="#646464"/>
<path d="M11.927 5.43127C16.2522 5.43127 20.5855 5.36563 24.9189 5.4805C24.8782 5.99742 24.805 7.03127 24.7725 7.5564C23.0408 7.54819 21.3172 7.54819 19.5855 7.53999C19.5937 12.5615 19.5774 17.5831 19.6018 22.6046C18.9514 22.6046 17.6506 22.5964 17.0002 22.5964C16.992 17.5667 17.049 12.5369 16.9595 7.51537C15.2847 7.53999 13.6099 7.53999 11.9351 7.5564C11.9351 7.02306 11.927 5.9646 11.927 5.43127Z" fill="#646464"/>
<path d="M27.2763 5.13593C28.5121 5.29182 30.0162 5.35746 30.5446 6.72772C32.6341 9.61593 33.6015 13.538 36.3089 15.8026C38.3576 12.2744 40.2194 8.63952 42.3251 5.14413C42.878 5.27541 43.9837 5.52977 44.5365 5.66105C45.1544 7.70413 44.7885 9.8949 44.8454 12.0036C44.6747 15.5072 45.195 19.0518 44.5121 22.5144C43.9267 22.6211 42.756 22.8426 42.1706 22.9493C42.1137 18.8877 42.2519 14.818 41.9837 10.7564C40.0243 13.5708 38.9186 16.9431 36.6259 19.5277C36.2519 19.4785 35.504 19.3964 35.13 19.3472C33.0975 16.5493 31.5772 13.4149 29.756 10.4775C29.8373 14.5882 29.8292 18.7072 29.7235 22.818C29.1137 22.8016 27.878 22.7852 27.2601 22.7687C27.1788 16.8939 27.1869 11.0108 27.2763 5.13593Z" fill="#212121"/>
<path d="M78.13 5.46415C79.1463 5.18518 80.0894 5.40672 80.9756 6.12877C81.1138 7.76159 80.3496 8.54108 78.6748 8.45903C77.5609 7.86826 77.2683 6.40774 78.13 5.46415Z" fill="#212121"/>
<path d="M48.2682 19.8559C45.9673 16.2292 48.4308 10.4939 52.8129 10.2067C54.5121 9.87026 55.9999 10.7482 57.3088 11.7246C57.3982 10.141 58.8129 10.379 59.9836 10.338C59.8779 14.5144 59.9104 18.6826 59.9104 22.859C58.8617 22.6703 57.6015 22.7359 57.26 21.4723C54.5283 23.6959 49.9186 23.1462 48.2682 19.8559ZM52.5121 12.6026C49.4795 13.7595 49.0812 18.658 51.9836 20.1841C53.9836 21.4477 56.9592 20.061 57.3251 17.7144C58.3251 14.9328 55.3982 11.3308 52.5121 12.6026Z" fill="#212121"/>
<path d="M65.0649 11.1338C67.0893 9.65693 69.9511 9.95231 71.8535 11.4785C72.4145 10.3954 73.634 10.338 74.6991 10.1985C74.5852 14.3421 74.7722 18.4938 74.6178 22.6456C74.6828 24.738 73.2926 26.6826 71.3007 27.2897C68.7316 28.4221 65.9836 27.339 63.4958 26.5267C63.6422 26.0426 63.9267 25.0826 64.0731 24.6067C66.2031 25.058 68.5446 26.2477 70.6666 25.099C72.13 24.5164 72.0812 22.7523 72.4064 21.4641C70.3251 22.6456 67.6828 23.5072 65.4714 22.1205C61.4796 20.1267 61.317 13.4641 65.0649 11.1338ZM65.26 13.7923C65.1706 15.3677 64.8373 16.9841 65.1869 18.5513C66.1381 20.0938 68.2682 21.2754 69.9999 20.3072C73.0405 19.1421 73.0974 13.899 70.008 12.7256C68.3739 11.659 66.7397 13.1687 65.26 13.7923Z" fill="#212121"/>
<path d="M77.9919 10.059C78.5853 10.2067 79.7723 10.5103 80.3658 10.658C80.9349 14.0631 80.5366 17.5995 80.5935 21.0539C80.9187 22.7441 79.0569 22.6867 77.9837 23.0231C77.9837 18.7072 77.9756 14.3831 77.9919 10.059Z" fill="#212121"/>
<path d="M83.5041 19.618C81.3578 15.8108 84.0163 10.1411 88.5692 10.1985C90.9757 9.77183 92.9513 11.298 94.5366 12.898C92.1139 14.6949 89.5448 11.0929 87.2196 12.9882C84.4309 14.5144 84.8781 19.8805 88.187 20.5288C89.7561 20.9636 91.2033 19.897 92.6342 19.4211C93.0732 19.6754 93.9431 20.1841 94.3822 20.4385C91.6586 23.8436 85.5041 23.7205 83.5041 19.618Z" fill="#212121"/>
</svg>
