<svg width="70" height="35" viewBox="0 0 70 35" fill="none" xmlns="http://www.w3.org/2000/svg">
<path d="M34.8425 17.6925L33.4425 19.7925L35.1925 22.3825H37.9925L34.8425 17.6925ZM35.0875 10.1325L33.4425 12.5125L34.8425 14.6825L37.8875 10.1325H35.0875ZM26.0925 10.1325L30.1875 16.1875L25.9875 22.3825H28.7875L32.9875 16.1875L29.1375 10.1325H26.0925ZM13.7375 10.1325V17.5875C13.7375 19.1625 14.6825 20.6325 15.7325 21.4375C17.9375 23.0825 21.3325 22.8375 22.3125 20.9825L22.6625 22.3825H24.8325V10.1325H22.2425V19.0925C21.3325 20.2125 19.4425 20.7375 17.9375 19.8625C17.1325 19.4425 16.3625 18.3925 16.3625 17.3425L16.2925 10.1325H13.7375ZM44.4325 9.88752C43.5784 9.86404 42.7283 10.0126 41.9328 10.3244C41.1373 10.6362 40.4127 11.1048 39.8021 11.7024C39.1914 12.3 38.7072 13.0143 38.3783 13.8029C38.0494 14.5915 37.8825 15.4381 37.8875 16.2925C37.8948 17.5433 38.2703 18.7643 38.9669 19.8031C39.6636 20.8419 40.6507 21.6527 41.8052 22.1342C42.9596 22.6157 44.2302 22.7467 45.4586 22.5108C46.687 22.275 47.8187 21.6827 48.7127 20.8078C49.6067 19.933 50.2233 18.8143 50.4857 17.5913C50.748 16.3683 50.6445 15.0951 50.1881 13.9306C49.7316 12.766 48.9424 11.7616 47.9189 11.0426C46.8954 10.3236 45.6828 9.92191 44.4325 9.88752ZM44.3625 12.2325C45.1056 12.2472 45.8281 12.4948 46.4397 12.9444C47.0513 13.3939 47.5249 14.0255 47.8013 14.7602C48.0776 15.4948 48.1445 16.2998 47.9935 17.0747C47.8425 17.8496 47.4803 18.5598 46.9522 19.1167C46.4242 19.6736 45.7536 20.0523 45.0245 20.2056C44.2954 20.3589 43.54 20.2799 42.8528 19.9785C42.1656 19.6772 41.5771 19.1668 41.1608 18.5112C40.7446 17.8556 40.5191 17.0839 40.5125 16.2925C40.508 15.7547 40.6048 15.2213 40.7972 14.724C40.9895 14.2267 41.2735 13.7754 41.6325 13.397C41.9914 13.0185 42.4179 12.7204 42.8868 12.5204C43.3557 12.3204 43.8574 12.2225 44.3625 12.2325ZM5.79248 6.73752V19.2325C5.79248 21.2625 7.61248 22.3825 8.83748 22.3825H12.8625V19.9325H9.29248C8.83748 19.9325 8.38248 19.4425 8.38248 18.9875V6.98252L5.79248 6.73752ZM56.4375 5.33752C55.7375 5.33752 55.1425 5.44252 54.4425 5.79252C53.3925 6.28252 52.5875 7.43752 52.5875 8.73252V10.1325H50.8375V12.2325H52.5875V22.3825H55.2125V12.2325H59.4825V18.8825C59.4825 20.1425 60.1125 21.1925 60.9875 21.7875C61.8625 22.3825 63.1925 22.5925 64.3125 22.3825V20.1425C63.4375 20.2825 61.9325 20.1425 61.9325 18.4625V12.2325H64.3125V10.1325H61.9325V6.73752L59.4825 6.98252V10.1325H55.1425V9.08252C55.1425 7.96252 56.2625 7.19252 57.6625 7.61252V5.44252C57.3125 5.33752 56.8925 5.33752 56.4375 5.33752Z" fill="#3E3E3E" stroke="#3E3E3E" stroke-width="0.2"/>
<path d="M64.5399 26.18L63.4199 28.875C63.2449 29.33 62.9999 29.33 62.6849 29.33V29.015C62.8599 29.015 62.9999 29.015 63.0699 28.77L63.2449 28.385L62.3699 26.18H62.7549L63.4549 27.895L64.1199 26.18H64.5399ZM31.7799 28.385H31.3949V27.23C31.3949 26.74 31.1499 26.495 30.8699 26.495C30.5199 26.495 30.2749 26.705 30.2749 26.705V28.385H29.8899V26.18H30.1699L30.2749 26.39C30.5199 26.215 30.6949 26.11 31.0099 26.11C31.2899 26.11 31.7799 26.425 31.7799 27.02V28.385ZM58.3799 26.145C58.0999 26.145 57.7849 26.215 57.5399 26.355L57.7149 26.6C57.8899 26.53 58.0649 26.425 58.3449 26.425C58.6599 26.425 58.8699 26.67 58.8699 27.055C58.6599 27.02 58.3449 26.985 58.0999 27.02C57.6099 27.055 57.3649 27.405 57.3649 27.79C57.3649 28 57.4349 28.14 57.5749 28.28C57.6799 28.385 57.8899 28.455 58.0999 28.455C58.3799 28.42 58.6599 28.315 58.8699 28.07V28.385H59.2549V26.95C59.2549 26.39 58.9399 26.145 58.3799 26.145ZM58.8699 27.51C58.8699 27.685 58.7649 27.86 58.6599 27.965C58.3799 28.21 57.8199 28.245 57.7499 27.79C57.7149 27.545 57.9949 27.3 58.3099 27.3C58.5199 27.265 58.7299 27.335 58.8699 27.51ZM39.8999 26.11C39.4099 26.11 38.9899 26.67 38.9899 27.3C38.9899 27.825 39.2699 28.455 39.8649 28.455C40.3199 28.455 40.5999 28.21 40.5999 28.21C40.5999 28.77 40.4599 29.05 39.8999 29.05C39.5499 29.05 39.2699 28.77 39.2699 28.77L39.0599 29.05C39.0599 29.05 39.4799 29.4 39.8299 29.4C40.7049 29.4 40.9499 28.945 40.9499 28.14V26.18H40.5999L40.5299 26.39C40.5299 26.39 40.3549 26.11 39.8999 26.11ZM40.0049 26.46C40.2499 26.46 40.4949 26.6 40.5999 26.81V27.825C40.4949 28 40.2149 28.14 39.9699 28.14C39.5849 28.14 39.3749 27.72 39.3749 27.3C39.3749 26.88 39.5499 26.46 40.0049 26.46ZM35.5599 27.86C35.5599 28.07 35.6999 28.035 35.8399 28.035V28.385H35.6299C35.3149 28.385 35.1749 28.175 35.1749 27.825V25.27H35.5599V27.86ZM29.0499 28.385H28.6999V27.23C28.6999 26.74 28.4199 26.495 28.1399 26.495C27.7899 26.495 27.5449 26.705 27.5449 26.705V28.385H27.1599V25.27H27.5449V26.39C27.8249 26.215 27.9999 26.145 28.2799 26.145C28.6299 26.11 29.0499 26.425 29.0499 27.02V28.385ZM22.0149 25.655H21.2799V28.385H20.8949V25.655H20.1599V25.27H22.0149V25.655ZM13.0199 25.27L14.0699 26.845L13.0199 28.385H13.4749L14.3149 27.16L15.1549 28.385H15.6099L14.5249 26.845L15.6099 25.27H15.1549L14.3149 26.53L13.4749 25.27H13.0199ZM10.2199 25.27V28.385H11.1649C12.0399 28.42 12.7399 27.72 12.7399 26.845C12.7399 26.005 12.0749 25.305 11.1999 25.27H10.2199ZM10.5699 25.655H11.1999C11.8299 25.69 12.3549 26.215 12.3549 26.845C12.3549 27.51 11.8299 28.035 11.1649 28H10.5699V25.655ZM6.92988 25.27L5.87988 28.385H6.29988L6.61488 27.475H7.80488L8.08488 28.385H8.50488L7.45488 25.27H6.92988ZM7.20988 25.62L7.66488 27.09H6.71988L7.20988 25.62ZM18.6199 27.93C18.2349 28.42 17.5699 28.595 16.9749 28.385C16.3799 28.14 15.9949 27.58 15.9599 26.915C15.9249 26.25 16.2749 25.655 16.8699 25.375C17.4299 25.095 18.0949 25.235 18.5499 25.69L18.3399 25.97C17.9899 25.585 17.4649 25.515 17.0099 25.69C16.5899 25.9 16.3099 26.39 16.3449 26.88C16.3449 27.405 16.6599 27.86 17.1149 28C17.5699 28.175 18.0949 28.035 18.4099 27.65L18.6199 27.93ZM47.5999 27.93C47.1799 28.42 46.5149 28.595 45.9549 28.385C45.3599 28.14 44.9399 27.58 44.9049 26.915C44.9049 26.25 45.2549 25.655 45.8149 25.375C46.3749 25.095 47.0749 25.235 47.5299 25.69L47.2849 25.935C46.9349 25.585 46.4099 25.515 45.9899 25.725C45.5349 25.935 45.2549 26.39 45.2899 26.88C45.2899 27.405 45.6049 27.825 46.0599 28C46.5149 28.175 47.0399 28.035 47.3549 27.65L47.5999 27.93ZM32.3049 27.335C32.3049 27.965 32.7949 28.49 33.4249 28.49C34.0549 28.49 34.5799 27.965 34.5799 27.335C34.5799 26.67 34.0549 26.145 33.4249 26.145C32.7949 26.145 32.3049 26.67 32.3049 27.335ZM33.4249 26.495C33.8799 26.495 34.2299 26.845 34.2299 27.335C34.2299 27.79 33.8799 28.14 33.4249 28.14C33.0049 28.14 32.6549 27.79 32.6549 27.335C32.6549 26.845 33.0049 26.495 33.4249 26.495ZM36.2249 27.335C36.2249 27.965 36.7499 28.49 37.3799 28.49C38.0099 28.49 38.4999 27.965 38.4999 27.335C38.4999 26.67 38.0099 26.145 37.3799 26.145C36.7499 26.145 36.2249 26.67 36.2249 27.335ZM37.3799 26.46C37.7999 26.46 38.1499 26.845 38.1499 27.3C38.1499 27.755 37.7999 28.14 37.3799 28.14C36.9249 28.14 36.5749 27.755 36.5749 27.3C36.5749 26.845 36.9249 26.46 37.3799 26.46ZM48.0549 27.335C48.0549 27.965 48.5449 28.49 49.1749 28.49C49.8049 28.49 50.3299 27.965 50.3299 27.335C50.3299 26.67 49.8049 26.145 49.1749 26.145C48.5449 26.145 48.0549 26.67 48.0549 27.335ZM49.1749 26.46C49.6299 26.46 49.9799 26.845 49.9799 27.3C49.9799 27.755 49.6299 28.14 49.1749 28.14C48.7549 28.14 48.4049 27.755 48.4049 27.3C48.4049 26.845 48.7549 26.46 49.1749 26.46ZM21.9799 27.3C21.9799 27.965 22.4699 28.49 23.0649 28.49C23.4499 28.49 23.7999 28.28 23.9749 28L23.6949 27.79C23.3449 28.35 22.5049 28.21 22.3299 27.44H24.1499C24.2199 26.705 23.6949 26.11 23.0649 26.11C22.4699 26.11 21.9799 26.67 21.9799 27.3ZM23.0649 26.46C23.4499 26.46 23.7299 26.775 23.7999 27.16H22.3649C22.4349 26.775 22.7149 26.46 23.0649 26.46ZM26.3199 27.895C26.1799 28.07 26.0049 28.14 25.7949 28.14C25.3749 28.14 25.0599 27.79 25.0599 27.3C25.0599 26.845 25.3749 26.46 25.7949 26.46C26.0049 26.46 26.2149 26.6 26.3199 26.74L26.5999 26.53C26.3899 26.285 26.1099 26.11 25.7949 26.11C25.1999 26.11 24.7099 26.67 24.7099 27.3C24.7099 27.965 25.1999 28.49 25.7949 28.49C26.1099 28.49 26.3899 28.35 26.5999 28.105L26.3199 27.895ZM61.8799 28.385H61.5299V27.23C61.5299 26.74 61.2499 26.495 60.9699 26.495C60.6549 26.495 60.4099 26.705 60.4099 26.705V28.385H60.0249V26.18H60.3049L60.4099 26.39C60.6549 26.215 60.8299 26.11 61.1099 26.11C61.3899 26.11 61.8799 26.425 61.8799 27.02V28.385ZM43.4699 26.18L42.4199 28.875C42.2099 29.33 41.9649 29.33 41.6499 29.33V29.015C41.8249 29.015 41.9649 29.015 42.0349 28.77L42.2099 28.385L41.2999 26.18H41.7199L42.4199 27.895L43.0849 26.18H43.4699ZM55.9649 26.11C55.5799 26.145 55.4049 26.39 55.4049 26.39L55.3349 26.18H54.9499V29.33H55.3349V28.21C55.3349 28.21 55.6149 28.455 56.0699 28.455C56.6649 28.455 56.9449 27.825 56.9449 27.3C56.9449 26.67 56.5599 26.11 55.9649 26.11ZM55.9299 26.46C56.3499 26.46 56.5599 26.88 56.5599 27.3C56.5599 27.72 56.3499 28.14 55.9649 28.14C55.7199 28.14 55.4399 28 55.3349 27.825V26.81C55.4399 26.6 55.6849 26.46 55.9299 26.46ZM52.0099 26.11C51.7299 26.11 51.5549 26.215 51.3099 26.39L51.2049 26.18H50.9249V28.385H51.3099V26.705C51.3099 26.705 51.5549 26.495 51.8699 26.495C52.1499 26.495 52.4299 26.74 52.4299 27.23V28.385H52.7799V27.02V26.88C52.8149 26.81 52.9899 26.495 53.3049 26.495C53.5849 26.495 53.8299 26.74 53.8299 27.23V28.385H54.2149V27.02C54.2149 26.425 53.7249 26.11 53.4449 26.11C53.1649 26.11 52.8849 26.18 52.6049 26.46C52.4299 26.25 52.1849 26.11 52.0099 26.11Z" fill="#3E3E3E" stroke="#3E3E3E" stroke-width="0.1"/>
</svg>
