<svg width="72" height="25" viewBox="0 0 72 25" fill="none" xmlns="http://www.w3.org/2000/svg">
<path d="M12.4664 2.34811C13.6439 1.73788 14.7641 1.02165 15.9358 0.399963C17.0818 1.01879 18.1877 1.7121 19.3394 2.31946C19.3308 3.66311 19.3652 5.00676 19.3107 6.34754C18.2478 6.88328 17.2537 7.54508 16.1937 8.08082C16.188 8.78559 16.188 9.48749 16.188 10.1923C18.1648 11.4127 20.216 12.51 22.2043 13.7075C22.2043 16.1427 22.2043 18.575 22.2043 21.0102C20.0957 22.1877 18.0244 23.4282 15.9101 24.6C13.8129 23.3852 11.7187 22.1648 9.60436 20.9787C9.59576 18.6524 9.59577 16.3232 9.60149 13.994C9.14311 13.7849 8.72769 13.2892 8.20055 13.3437C6.89127 13.9596 5.73098 14.8506 4.41025 15.4437C2.92049 14.7991 1.57397 13.8364 0.144375 13.0601C0.150105 11.4041 0.13005 9.7482 0.158699 8.09228C1.58543 7.32161 2.98925 6.50511 4.37587 5.66282C5.77968 6.59106 7.37545 7.24713 8.68758 8.28996C8.74202 9.78258 8.68758 11.2809 8.70477 12.7736C9.20327 13.0142 9.74761 13.6674 10.3378 13.3093C12.094 12.2751 13.8817 11.2924 15.6178 10.2266C15.615 9.49895 15.615 8.77413 15.615 8.0493C14.5406 7.48778 13.4949 6.86609 12.4578 6.23867C12.4693 4.94087 12.4607 3.64306 12.4664 2.34811ZM13.0279 2.76352C13.0423 3.80635 13.0365 4.84919 13.0365 5.88915C13.9963 6.4736 14.9732 7.02939 15.9502 7.58232C16.8813 7.0122 17.8467 6.50225 18.7664 5.91494C18.7635 4.82627 18.7836 3.74046 18.7406 2.65179C17.7837 2.1533 16.8498 1.60896 15.9301 1.04171C14.979 1.64047 13.9791 2.16475 13.0279 2.76352ZM0.71736 8.56785C0.720225 9.93156 0.708766 11.2981 0.72882 12.6647C1.9636 13.3093 3.16401 14.0169 4.37014 14.7188C5.54762 14.0628 6.69933 13.3609 7.894 12.7335C7.91119 11.3296 7.89973 9.92583 7.90546 8.52488C6.75089 7.82584 5.55908 7.18983 4.42171 6.46214C3.18406 7.16404 1.9636 7.886 0.71736 8.56785ZM11.2144 13.8536C10.948 14.0284 10.481 14.1774 10.5555 14.5899C10.5412 16.5295 10.5698 18.4719 10.5498 20.4143C12.3375 21.4571 14.1223 22.5028 15.9301 23.5141C17.7522 22.5172 19.5141 21.417 21.342 20.4344C21.3362 18.3831 21.3362 16.3318 21.342 14.2805C19.56 13.2119 17.7264 12.235 15.953 11.1549C14.3659 12.0459 12.8102 12.9856 11.2144 13.8536Z" fill="#212121"/>
<path d="M13.6327 2.9468C14.4263 2.55717 15.1912 2.11024 15.9475 1.65186C16.6695 2.1217 17.4144 2.55144 18.1936 2.92102C18.1908 3.82633 18.1936 4.73164 18.1936 5.63696C17.4602 6.10681 16.701 6.53368 15.9389 6.96055C15.1482 6.53368 14.3718 6.08102 13.6098 5.60831C13.6069 4.72019 13.6012 3.83206 13.6327 2.9468Z" fill="#212121"/>
<path d="M1.46779 8.88008C2.47052 8.38731 3.37297 7.6453 4.43012 7.29578C5.42425 7.7513 6.34103 8.36153 7.30651 8.87148C7.30365 10.0375 7.32657 11.2007 7.27786 12.3667C6.30379 12.8709 5.3555 13.4238 4.42153 13.9968C3.46751 13.378 2.30721 12.997 1.49358 12.2091C1.42482 11.1004 1.48498 9.9888 1.46779 8.88008Z" fill="#212121"/>
<path d="M20.5283 8.26995C21.0669 7.93189 21.5769 7.50215 22.2014 7.32739C22.7916 7.56518 23.4219 7.83162 23.8516 8.31293C23.8602 8.88305 24.0207 9.52192 23.7628 10.0491C23.2844 10.4129 22.7372 10.6736 22.2129 10.963C21.6657 10.6736 21.13 10.3728 20.5885 10.0749C20.5656 9.47322 20.5484 8.87159 20.5283 8.26995Z" fill="#212121"/>
<path d="M28.189 8.80255C28.3409 8.80255 28.6417 8.80255 28.7907 8.80255C28.7935 9.46435 28.7907 10.1261 28.7964 10.7879C29.6415 10.7851 30.4867 10.7822 31.3318 10.7851C31.3347 10.1233 31.3318 9.46435 31.3347 8.80255C31.4865 8.80255 31.7902 8.80255 31.9449 8.79968C31.9449 10.3296 31.9449 11.8594 31.9449 13.3864C31.7902 13.3864 31.4865 13.3864 31.3347 13.3864C31.3318 12.716 31.3347 12.0485 31.3318 11.381C30.4867 11.3781 29.6415 11.3781 28.7964 11.3781C28.7907 12.0485 28.7935 12.716 28.7907 13.3864C28.6417 13.3864 28.338 13.3864 28.189 13.3864C28.1862 11.8594 28.189 10.3296 28.189 8.80255Z" fill="#212121"/>
<path d="M34.0422 8.86313C35.0277 8.68837 36.2998 8.5795 36.9673 9.49341C37.6577 10.5219 37.6004 12.0948 36.7438 13.0173C35.5692 13.8853 33.3861 13.7134 32.8991 12.1435C32.5754 10.9631 32.773 9.39887 34.0422 8.86313ZM34.3058 9.36735C33.6125 10.0148 33.1226 11.0605 33.6325 11.963C33.9992 13.298 36.2253 13.3238 36.5805 11.9773C37.0618 11.0605 36.5977 10.0148 35.8929 9.36735C35.3629 9.36449 34.8329 9.36449 34.3058 9.36735Z" fill="#212121"/>
<path d="M38.2507 8.79968C38.4483 8.79968 38.8437 8.80255 39.0414 8.80255C39.8264 10.0173 40.5541 11.2721 41.3877 12.4553C41.4164 11.2377 41.3935 10.0201 41.3992 8.80255C41.5596 8.80255 41.8776 8.80255 42.0352 8.80255C42.0381 10.3324 42.041 11.8594 42.0324 13.3893C41.8204 13.3893 41.3963 13.3864 41.1843 13.3864C40.4079 12.1516 39.6659 10.8968 38.8351 9.69927C38.8036 10.9283 38.8265 12.1574 38.8208 13.3864C38.6775 13.3864 38.391 13.3864 38.2478 13.3864C38.2478 11.8566 38.2449 10.3296 38.2507 8.79968Z" fill="#212121"/>
<path d="M43.1184 8.80273C44.3904 8.92019 45.7685 8.5105 46.9517 9.08922C45.9633 9.63355 44.7915 9.28117 43.7172 9.37858C43.72 9.85129 43.72 10.3269 43.7172 10.7996C44.6626 10.8053 45.6109 10.8053 46.5563 10.8196C46.5563 10.9571 46.5592 11.2322 46.5592 11.3697C45.6109 11.3812 44.6626 11.3812 43.7143 11.3869C43.7172 11.8739 43.72 12.361 43.7229 12.848C44.7629 12.8537 45.8028 12.8509 46.8428 12.8537C46.8428 12.9855 46.8457 13.2519 46.8457 13.3837C45.6052 13.3866 44.3618 13.3866 43.1184 13.3866C43.1184 11.8596 43.1184 10.3326 43.1184 8.80273Z" fill="#212121"/>
<path d="M47.1692 8.79706C47.3611 8.79706 47.7393 8.79992 47.9284 8.79992C48.4154 9.48464 48.8595 10.2009 49.3036 10.9171C49.782 10.2295 50.2347 9.52188 50.6615 8.79992C50.8649 8.79992 51.2746 8.80279 51.478 8.80279C50.9022 9.69091 50.2576 10.5389 49.7476 11.4672C49.6617 12.106 49.7075 12.7535 49.6961 13.3953C49.5156 13.3924 49.1489 13.3809 48.9684 13.3781C48.954 12.7335 49.0257 12.0803 48.8967 11.4442C48.3581 10.5389 47.7393 9.68518 47.1692 8.79706Z" fill="#212121"/>
<path d="M53.2315 8.83988C54.3145 8.60496 55.5235 8.73101 56.211 9.69649C56.0707 9.81395 55.7899 10.0517 55.6495 10.1721C55.088 9.11778 53.2745 8.96307 52.7789 10.1434C52.2116 11.1547 52.6958 12.8622 54.0051 12.951C54.9619 13.2576 55.4175 11.8051 56.3228 12.2348C55.7899 13.1888 54.707 13.7532 53.6269 13.4667C51.4438 13.2318 51.2633 9.52746 53.2315 8.83988Z" fill="#212121"/>
<path d="M58.099 8.83438C58.9012 8.75703 59.8667 8.57941 60.5314 9.15812C61.6573 10.0462 61.7146 11.917 60.6975 12.9112C59.9842 13.6962 58.7723 13.6159 57.8441 13.3151C56.2512 12.3983 56.3027 9.48759 58.099 8.83438ZM58.1563 9.50477C57.3112 10.0147 57.2711 11.2409 57.5948 12.0689C57.973 13.1003 59.5487 13.2865 60.2334 12.4728C60.8093 11.9199 60.5801 11.0318 60.5629 10.3213C60.3079 9.24693 59.0044 9.15812 58.1563 9.50477Z" fill="#212121"/>
<path d="M62.2043 8.80279C62.4249 8.80279 62.8661 8.80279 63.0867 8.80279C63.5479 10.0634 64.0923 11.2953 64.4647 12.5873C64.9174 11.3211 65.4502 10.0834 65.8427 8.79706C66.1521 8.79992 66.4615 8.80565 66.771 8.80852C66.7681 10.3298 66.7624 11.8482 66.7767 13.3695C66.5905 13.3752 66.2238 13.3924 66.0375 13.3981C66.0289 12.3295 66.0662 11.258 66.0203 10.1865C65.5562 11.238 65.1723 12.3209 64.7856 13.401C64.628 13.3924 64.3157 13.3752 64.1581 13.3637C63.7771 12.2636 63.3674 11.1721 62.9004 10.1035C62.8374 11.1979 62.8661 12.2923 62.8632 13.3867C62.697 13.3867 62.3676 13.3867 62.2014 13.3867C62.2014 11.8597 62.1985 10.3298 62.2043 8.80279Z" fill="#212121"/>
<path d="M67.7566 8.80562C68.9341 8.89443 70.3579 8.42745 71.2375 9.46742C71.2317 10.0347 71.1143 10.5847 70.6473 10.9543C71.057 11.3525 71.7016 11.8023 71.4523 12.4641C70.9137 14.0083 68.9713 13.1861 67.7566 13.3838C67.7566 11.8568 67.7566 10.3326 67.7566 8.80562ZM68.5187 9.36428C68.5187 9.84272 68.5215 10.324 68.5215 10.8025C69.0028 10.791 69.487 10.7853 69.9712 10.771C70.1058 10.6277 70.3723 10.3412 70.5069 10.198C70.4611 10.006 70.3694 9.61639 70.3236 9.42444C69.7219 9.38433 69.1203 9.37287 68.5187 9.36428ZM68.5215 11.3525C68.5187 11.8625 68.5187 12.3724 68.5215 12.8853C69.2349 12.8795 69.9483 12.8452 70.6559 12.7621C70.6616 12.3237 70.6473 11.8883 70.5929 11.4528C69.9053 11.3726 69.212 11.3554 68.5215 11.3525Z" fill="#212121"/>
<path d="M11.3175 14.6244C12.8703 13.762 14.4144 12.8882 15.9472 11.9886C17.4398 12.9083 18.9811 13.7362 20.4996 14.6072C20.491 16.4407 20.5483 18.2743 20.4652 20.1078C18.9066 20.8642 17.5 21.9242 15.9128 22.6146C14.3543 21.7981 12.7671 20.953 11.3347 19.9388C11.2831 18.1683 11.3347 16.3949 11.3175 14.6244Z" fill="#212121"/>
<path d="M34.3115 15.9621C35.2169 15.9076 36.4029 15.8074 36.6579 16.9447C36.0162 16.8072 35.5492 16.1311 34.8588 16.2514C34.4806 16.3918 34.0766 16.6153 34.2285 17.0851C34.939 17.5464 35.8214 17.6266 36.5777 18.0048C36.5519 18.4173 36.5978 18.8499 36.4488 19.2481C35.5693 20.0016 33.8732 19.8956 33.5352 18.6207C34.0623 18.8528 34.5551 19.1736 35.1166 19.3255C35.575 19.2739 35.9388 18.9702 36.3227 18.7439C35.8099 17.9446 34.8158 17.9389 34.0107 17.638C33.8704 17.3687 33.73 17.1023 33.5896 16.8359C33.8331 16.5436 34.0738 16.2543 34.3115 15.9621Z" fill="#212121"/>
<path d="M38.3426 16.0053C38.9586 15.9623 39.7407 15.7761 40.2105 16.2889C41.4997 17.2601 40.8236 19.7899 39.0903 19.7039C37.1049 19.8959 36.5606 16.6384 38.3426 16.0053ZM38.6635 16.3691C37.6493 16.7445 37.4373 18.1826 38.1707 18.9189C38.9041 19.618 40.5285 19.1453 40.285 17.962C40.5801 17.0023 39.6003 15.9852 38.6635 16.3691Z" fill="#212121"/>
<path d="M41.6857 15.9651C42.591 15.9651 43.4963 15.9508 44.4017 15.9938C43.9805 16.7472 42.9405 16.2573 42.2386 16.3949C42.2358 16.8246 42.2358 17.2515 42.2358 17.6812C42.9148 17.6841 43.5937 17.6841 44.2756 17.6955C44.2699 17.8216 44.2555 18.0766 44.2498 18.2055C43.588 18.2112 42.9262 18.2084 42.2644 18.2112C42.2444 18.7069 42.23 19.1996 42.2157 19.6924C42.0839 19.6924 41.8261 19.6924 41.6943 19.6895C41.68 18.449 41.6857 17.2085 41.6857 15.9651Z" fill="#212121"/>
<path d="M44.5737 16.028C45.6624 15.9306 46.7597 15.9449 47.8541 15.9993C47.602 16.515 46.9975 16.3603 46.5333 16.4348C46.519 17.5149 46.5276 18.595 46.5247 19.6722C46.3901 19.6779 46.1265 19.6894 45.9919 19.6951C45.9775 18.6093 45.9833 17.5235 45.9833 16.4377C45.4905 16.3861 44.9347 16.4377 44.5737 16.028Z" fill="#212121"/>
<path d="M48.1748 15.8475C48.3037 15.9105 48.5616 16.0308 48.6905 16.0939C49.0257 17.0708 49.2005 18.0964 49.5528 19.0676C49.7935 17.9904 50.1029 16.9304 50.3894 15.8618C50.6959 15.9306 50.8879 16.1168 50.9652 16.4147C51.2403 17.2312 51.4007 18.085 51.7187 18.8872C52.0969 17.9618 52.1886 16.939 52.6384 16.0452C52.7587 15.9993 53.0051 15.9076 53.1254 15.8618C52.73 17.1281 52.4607 18.4402 51.945 19.6693C51.8362 19.675 51.6184 19.6865 51.5067 19.6922C51.1257 18.7668 50.9366 17.7756 50.6616 16.8158C50.2547 17.6638 50.1344 18.6064 49.825 19.4859C49.6818 19.5633 49.3981 19.7151 49.2577 19.7896C48.914 18.4717 48.4155 17.1911 48.1748 15.8475Z" fill="#212121"/>
<path d="M54.6122 15.965C54.7239 15.965 54.9445 15.965 55.0534 15.965C55.635 17.2169 56.1134 18.5147 56.6263 19.7954C55.9444 19.7667 55.8527 19.0276 55.6035 18.5405C55.0878 18.5405 54.5721 18.5434 54.0564 18.5405C53.7814 19.019 53.6926 19.7123 53.0422 19.8068C53.4892 18.5004 53.9733 17.1912 54.6122 15.965ZM54.7669 16.4549C54.5692 17.0422 54.3658 17.6295 54.1682 18.2168C54.6122 18.2168 55.0591 18.2168 55.5061 18.2139C55.2626 17.6266 55.0305 17.0336 54.7669 16.4549Z" fill="#212121"/>
<path d="M57.1564 15.965C58.1248 15.988 59.1561 15.8046 60.0442 16.3031C60.1159 17.0509 60.0586 17.8015 59.3366 18.2054C59.7119 18.7096 60.0528 19.2397 60.368 19.784C59.4082 19.721 59.3051 18.5635 58.6003 18.1453C58.374 18.1367 57.9242 18.1252 57.6979 18.1195C57.6836 18.6437 57.6778 19.168 57.6664 19.6952C57.5403 19.6923 57.2911 19.6923 57.165 19.6923C57.1507 18.4489 57.1564 17.2084 57.1564 15.965ZM57.7093 16.3375C57.695 16.7873 57.6807 17.2342 57.6664 17.6811C58.2479 17.684 58.8267 17.6811 59.4082 17.6725C59.5286 17.3946 59.646 17.1167 59.7663 16.8417C59.1848 16.3489 58.4342 16.3289 57.7093 16.3375Z" fill="#212121"/>
<path d="M61.1359 15.968C62.0756 15.9651 63.0153 15.9365 63.9521 16.0196C63.4249 16.7301 62.3334 16.266 61.5599 16.3949C61.5599 16.7845 61.557 17.1741 61.5513 17.5638C62.2962 17.6956 63.3533 17.2458 63.8633 17.919C63.0955 17.982 62.322 17.9735 61.5513 17.9849C61.5513 18.3574 61.5542 18.7327 61.5542 19.1051C62.3821 19.1137 63.2072 19.1166 64.0352 19.1309C64.0323 19.2655 64.0237 19.532 64.018 19.6666C63.0582 19.6781 62.0956 19.6752 61.1359 19.6723C61.133 18.4376 61.1301 17.2028 61.1359 15.968Z" fill="#212121"/>
<path d="M4.36719 20.9188C4.8886 20.6065 5.41002 20.2942 5.91998 19.959C6.47291 20.2885 7.03157 20.6065 7.59309 20.9159C7.59309 21.5376 7.59309 22.1593 7.59309 22.781C7.0373 23.1105 6.47864 23.4342 5.91711 23.7522C5.41002 23.4313 4.8972 23.1248 4.39011 22.8125C4.38151 22.1794 4.37578 21.5491 4.36719 20.9188Z" fill="#212121"/>
</svg>
