<svg width="257" height="454" viewBox="0 0 257 454" fill="none" xmlns="http://www.w3.org/2000/svg">
<g clip-path="url(#clip0_2062_32)">
<path d="M180.966 219.243C175.445 213.862 175.445 205.137 180.966 199.756L205.506 175.838C211.027 170.456 219.978 170.456 225.5 175.838L250.039 199.756C255.56 205.137 255.56 213.862 250.039 219.243L225.5 243.162C219.978 248.543 211.027 248.543 205.506 243.162L180.966 219.243Z" fill="#005DE8"/>
</g>
<g clip-path="url(#clip1_2062_32)">
<g clip-path="url(#clip2_2062_32)">
<path d="M200.32 213.521C200.32 215.049 200.656 216.221 201.094 216.931C201.668 217.86 202.525 218.253 203.399 218.253C204.526 218.253 205.556 217.974 207.543 215.227C209.134 213.025 211.009 209.934 212.271 207.996L214.407 204.713C215.892 202.433 217.609 199.899 219.579 198.181C221.187 196.779 222.922 196 224.667 196C227.598 196 230.39 197.698 232.527 200.884C234.865 204.373 236 208.767 236 213.301C236 215.997 235.469 217.978 234.564 219.543C233.691 221.056 231.988 222.568 229.124 222.568V218.253C231.577 218.253 232.189 216 232.189 213.421C232.189 209.746 231.332 205.668 229.444 202.753C228.105 200.686 226.369 199.423 224.459 199.423C222.393 199.423 220.731 200.981 218.863 203.759C217.87 205.235 216.85 207.034 215.705 209.063L214.445 211.296C211.913 215.784 211.272 216.807 210.006 218.494C207.787 221.449 205.893 222.568 203.399 222.568C200.44 222.568 198.569 221.287 197.41 219.357C196.465 217.783 196 215.719 196 213.367L200.32 213.521Z" fill="white"/>
<path d="M199.407 201.188C201.388 198.135 204.246 196 207.525 196C209.423 196 211.311 196.562 213.282 198.171C215.438 199.931 217.736 202.828 220.603 207.604L221.631 209.318C224.113 213.452 225.524 215.579 226.351 216.581C227.413 217.87 228.158 218.253 229.124 218.253C231.577 218.253 232.189 216 232.189 213.421L236 213.301C236 215.997 235.469 217.978 234.565 219.543C233.691 221.056 231.988 222.568 229.124 222.568C227.344 222.568 225.766 222.182 224.022 220.536C222.681 219.273 221.114 217.029 219.908 215.012L216.32 209.02C214.52 206.013 212.869 203.77 211.913 202.755C210.885 201.663 209.564 200.344 207.455 200.344C205.748 200.344 204.299 201.542 203.086 203.374L199.407 201.188Z" fill="white"/>
<path d="M207.455 200.344C205.748 200.344 204.299 201.542 203.086 203.374C201.371 205.962 200.32 209.818 200.32 213.521C200.32 215.049 200.656 216.221 201.094 216.931L197.41 219.357C196.465 217.783 196 215.719 196 213.367C196 209.089 197.174 204.631 199.407 201.188C201.387 198.135 204.246 196 207.525 196L207.455 200.344Z" fill="white"/>
</g>
</g>
<g clip-path="url(#clip3_2062_32)">
<path d="M0.90625 228.645V262.198C0.90625 273.779 10.2945 283.168 21.8758 283.168C24.5618 283.168 27.1291 282.664 29.4885 281.743C33.1355 287.929 39.8664 292.079 47.5662 292.079C55.266 292.079 61.9959 287.928 65.6429 281.742C68.069 282.687 70.6501 283.17 73.2536 283.168C84.835 283.168 94.2242 273.778 94.2242 262.196V228.644C94.2242 217.063 84.835 207.675 73.2536 207.675C70.5696 207.675 68.0033 208.18 65.6429 209.098C61.9969 202.912 55.267 198.761 47.5672 198.761C39.8654 198.761 33.1345 202.912 29.4885 209.099C27.0623 208.155 24.4812 207.672 21.8778 207.675C10.2954 207.675 0.90625 217.063 0.90625 228.645Z" fill="#6772E5"/>
<g clip-path="url(#clip4_2062_32)">
<g clip-path="url(#clip5_2062_32)">
<path d="M31.8101 253.266L41.6456 247.747L41.8101 247.266L41.6456 247H41.1646L39.519 246.899L33.8987 246.747L29.0253 246.544L24.3038 246.291L23.1139 246.038L22 244.57L22.1139 243.835L23.1139 243.165L24.5443 243.291L27.7089 243.506L32.4557 243.835L35.8987 244.038L41 244.57H41.8101L41.9241 244.241L41.6456 244.038L41.4304 243.835L36.519 240.506L31.2025 236.987L28.4177 234.962L26.9114 233.937L26.1519 232.975L25.8228 230.873L27.1899 229.367L29.0253 229.494L29.4937 229.62L31.3544 231.051L35.3291 234.127L40.519 237.949L41.2785 238.582L41.5823 238.367L41.6203 238.215L41.2785 237.646L38.4557 232.544L35.443 227.354L34.1013 225.203L33.7468 223.911C33.6203 223.38 33.5316 222.937 33.5316 222.392L35.0886 220.278L35.9494 220L38.0253 220.278L38.8987 221.038L40.1899 223.987L42.2785 228.633L45.519 234.949L46.4684 236.823L46.9747 238.557L47.1646 239.089H47.4937V238.785L47.7595 235.228L48.2532 230.861L48.7342 225.241L48.8987 223.658L49.6835 221.759L51.2405 220.734L52.4557 221.316L53.4557 222.747L53.3165 223.671L52.7215 227.532L51.557 233.582L50.7975 237.633H51.2405L51.7468 237.127L53.7975 234.405L57.2405 230.101L58.7595 228.392L60.5316 226.506L61.6709 225.608H63.8228L65.4051 227.962L64.6962 230.392L62.481 233.203L60.6456 235.582L58.0127 239.127L56.3671 241.962L56.519 242.19L56.9114 242.152L62.8608 240.886L66.0759 240.304L69.9114 239.646L71.6456 240.456L71.8354 241.278L71.1519 242.962L67.0506 243.975L62.2405 244.937L55.076 246.633L54.9873 246.696L55.0886 246.823L58.3165 247.127L59.6962 247.203H63.076L69.3671 247.671L71.0127 248.759L72 250.089L71.8354 251.101L69.3038 252.392L65.8861 251.582L57.9114 249.684L55.1772 249H54.7975V249.228L57.076 251.456L61.2532 255.228L66.481 260.089L66.7468 261.291L66.0759 262.241L65.3671 262.139L60.7722 258.684L59 257.127L54.9873 253.747H54.7215V254.101L55.6456 255.456L60.5316 262.797L60.7848 265.051L60.4304 265.785L59.1646 266.228L57.7722 265.975L54.9114 261.962L51.962 257.443L49.5823 253.392L49.2911 253.557L47.8861 268.684L47.2278 269.456L45.7089 270.038L44.443 269.076L43.7722 267.519L44.443 264.443L45.2532 260.43L45.9114 257.241L46.5063 253.278L46.8608 251.962L46.8354 251.873L46.5443 251.911L43.557 256.013L39.0127 262.152L35.4177 266L34.557 266.342L33.0633 265.57L33.2025 264.19L34.038 262.962L39.0127 256.633L42.0127 252.709L43.9494 250.443L43.9367 250.114H43.8228L30.6076 258.696L28.2532 259L27.2405 258.051L27.3671 256.494L27.8481 255.987L31.8228 253.253L31.8101 253.266Z" fill="white"/>
</g>
</g>
</g>
<g clip-path="url(#clip6_2062_32)">
<path d="M183.356 393.136C174.082 390.664 164.55 396.14 162.066 405.366C160.437 411.411 162.24 417.567 166.286 421.79C164.27 423.885 162.818 426.456 162.066 429.263C159.58 438.49 165.084 447.972 174.358 450.444C177.205 451.206 180.199 451.233 183.06 450.524C185.92 449.814 188.554 448.391 190.716 446.387C192.799 448.323 195.327 449.716 198.076 450.444C207.35 452.916 216.882 447.441 219.367 438.215C220.995 432.169 219.193 426.012 215.147 421.791C217.163 419.697 218.615 417.125 219.367 414.317C221.852 405.091 216.348 395.609 207.075 393.137C204.228 392.376 201.234 392.348 198.373 393.058C195.513 393.767 192.878 395.19 190.717 397.193C188.633 395.258 186.105 393.864 183.356 393.136Z" fill="#F2F2F2"/>
<g clip-path="url(#clip7_2062_32)">
<g clip-path="url(#clip8_2062_32)">
<path d="M211.447 421.466C200.817 422.149 192.344 431.068 191.694 442.258H191.617C190.967 431.068 182.494 422.149 171.864 421.466V421.384C182.494 420.701 190.967 411.781 191.617 400.591H191.694C192.344 411.781 200.817 420.701 211.447 421.384V421.466Z" fill="url(#paint0_radial_2062_32)"/>
</g>
</g>
</g>
<path d="M232 48C245.255 48 256 37.2548 256 24C256 10.7452 245.255 0 232 0C218.745 0 208 10.7452 208 24C208 37.2548 218.745 48 232 48Z" fill="#93D33D"/>
<g clip-path="url(#clip9_2062_32)">
<path d="M232.469 48C245.431 48 255.939 37.2548 255.939 24C255.939 10.7452 245.431 0 232.469 0C219.508 0 209 10.7452 209 24C209 37.2548 219.508 48 232.469 48Z" fill="#93D33D"/>
<path d="M232.099 9.07216V38.8673" stroke="white" stroke-linecap="round" stroke-linejoin="round"/>
<path d="M224.252 18.2956V10.6638L232.099 18.2956" stroke="white" stroke-linecap="round" stroke-linejoin="round"/>
<path d="M232.099 29.3733L224.252 37.2757V26.2696L232.099 18.2956" stroke="white" stroke-linecap="round" stroke-linejoin="round"/>
<path d="M232.099 18.2956L239.945 10.6638V18.2956" stroke="white" stroke-linecap="round" stroke-linejoin="round"/>
<path d="M224.252 29.6199H220.976V18.2956H243.221V29.6199H239.945" stroke="white" stroke-linecap="round" stroke-linejoin="round"/>
<path d="M232.099 18.2956L239.945 26.2696V37.2757L232.099 29.3733" stroke="white" stroke-linecap="round" stroke-linejoin="round"/>
</g>
<g clip-path="url(#clip10_2062_32)">
<path d="M37.0293 50.8279C37.0293 41.5499 44.5501 34.0291 53.8281 34.0291H90.1694C99.4503 34.0291 106.971 41.5499 106.971 50.8279V104H53.8281C44.5501 104 37.0293 96.4792 37.0293 87.2012V50.8279Z" fill="#74AA9C"/>
<path d="M69.2158 42.702C63.4552 42.702 58.3376 46.4057 56.5541 51.8753L55.9111 55.6313V68.0806C55.9111 68.7032 56.2312 69.256 56.7665 69.5761L66.7894 75.3516V58.244H66.7923V57.4323L76.9373 51.5727C77.9182 51.0048 78.9867 50.6168 80.0931 50.414L79.1165 47.101C76.5969 44.2847 72.9922 42.6845 69.2158 42.702ZM69.2158 46.1205L69.1983 46.138C71.5171 46.138 73.7457 46.9381 75.5292 48.419C75.4564 48.4539 75.3139 48.5441 75.2091 48.5964L64.7208 54.6363C64.1854 54.9389 63.8654 55.5091 63.8654 56.1318V70.3092L59.3529 67.7082V55.9892C59.35 50.5458 63.7636 46.1293 69.2158 46.1205Z" fill="white"/>
<path d="M93.3827 53.4397C90.5024 48.4509 84.7361 45.8707 79.1075 47.0611L75.5332 48.3822L64.7518 54.6069C64.2126 54.9182 63.8939 55.4717 63.8844 56.0954L63.894 67.6632L78.7097 59.1094L78.7112 59.1119L79.4141 58.706L89.5612 64.5621C90.5434 65.1277 91.4137 65.859 92.1426 66.7158L94.5234 64.2135C95.7026 60.6233 95.286 56.7015 93.3827 53.4397ZM90.4221 55.149L90.3983 55.1426C91.5577 57.1507 91.9791 59.4808 91.5883 61.7658C91.5217 61.7202 91.3723 61.6419 91.2746 61.5773L80.7997 55.5141C80.27 55.2018 79.6162 55.2098 79.077 55.5211L66.7989 62.6098L66.7952 57.4014L76.9442 51.5419C81.6569 48.8176 87.6885 50.4316 90.4221 55.149Z" fill="white"/>
<path d="M96.1669 79.7377C99.0472 74.7489 98.3985 68.4651 94.5534 64.1857L91.6221 61.7509L80.8407 55.5262C80.3015 55.2149 79.6627 55.2157 79.1179 55.5193L69.1047 61.3116L83.9204 69.8654L83.9189 69.8679L84.6219 70.2738L84.6238 81.9894C84.6252 83.1228 84.427 84.2422 84.0494 85.3018L87.4069 86.1125C91.1057 85.3386 94.2938 83.0169 96.1669 79.7377ZM93.2063 78.0285L93.2 78.0046C92.0406 80.0127 90.2334 81.5427 88.0592 82.3468C88.0653 82.2664 88.0585 82.0978 88.0655 81.9809L88.079 69.8778C88.0846 69.2629 87.7508 68.7006 87.2116 68.3893L74.9335 61.3006L79.4423 58.6931L89.5913 64.5527C94.3069 67.2719 95.9249 73.3024 93.2063 78.0285Z" fill="white"/>
<path d="M74.7842 95.298C80.5448 95.298 85.6624 91.5944 87.4459 86.1247L88.0889 82.3687V69.9194C88.0889 69.2968 87.7688 68.744 87.2335 68.4239L77.2106 62.6484V79.756H77.2077V80.5678L67.0627 86.4273C66.0818 86.9952 65.0133 87.3832 63.9069 87.586L64.8835 90.899C67.4031 93.7153 71.0078 95.3155 74.7842 95.298ZM74.7842 91.8795L74.8017 91.862C72.4829 91.862 70.2543 91.0619 68.4708 89.5811C68.5436 89.5461 68.6861 89.456 68.7909 89.4036L79.2792 83.3637C79.8146 83.0611 80.1346 82.4909 80.1346 81.8683V67.6908L84.6471 70.2918V82.0108C84.65 87.4543 80.2364 91.8708 74.7842 91.8795Z" fill="white"/>
<path d="M50.6173 84.5603C53.4976 89.5491 59.2639 92.1293 64.8925 90.939L68.4668 89.6178L79.2482 83.3931C79.7874 83.0818 80.1061 82.5283 80.1156 81.9046L80.106 70.3368L65.2903 78.8906L65.2888 78.8881L64.5859 79.294L54.4388 73.4379C53.4566 72.8723 52.5863 72.141 51.8574 71.2842L49.4766 73.7866C48.2974 77.3767 48.714 81.2986 50.6173 84.5603ZM53.5779 82.851L53.6017 82.8574C52.4423 80.8493 52.0209 78.5192 52.4117 76.2343C52.4783 76.2798 52.6277 76.3581 52.7254 76.4227L63.2003 82.4859C63.73 82.7982 64.3838 82.7903 64.923 82.479L77.2011 75.3902L77.2048 80.5986L67.0558 86.4582C62.3431 89.1824 56.3115 87.5684 53.5779 82.851Z" fill="white"/>
<path d="M47.8331 58.2623C44.9528 63.2511 45.6015 69.5349 49.4466 73.8143L52.3779 76.2491L63.1593 82.4738C63.6985 82.7851 64.3373 82.7843 64.8821 82.4807L74.8953 76.6884L60.0796 68.1346L60.0811 68.1321L59.3781 67.7262L59.3762 56.0106C59.3748 54.8772 59.573 53.7578 59.9506 52.6982L56.5931 51.8875C52.8943 52.6614 49.7062 54.9831 47.8331 58.2623ZM50.7937 59.9715L50.8 59.9954C51.9594 57.9873 53.7666 56.4573 55.9408 55.6532C55.9347 55.7336 55.9415 55.9022 55.9345 56.0191L55.921 68.1222C55.9154 68.7371 56.2492 69.2994 56.7884 69.6107L69.0665 76.6994L64.5577 79.3069L54.4087 73.4473C49.6931 70.7281 48.0751 64.6976 50.7937 59.9715Z" fill="white"/>
</g>
<defs>
<radialGradient id="paint0_radial_2062_32" cx="0" cy="0" r="1" gradientUnits="userSpaceOnUse" gradientTransform="translate(175.797 417.522) rotate(19.5933) scale(42.3644 353.31)">
<stop offset="0.067" stop-color="#9168C0"/>
<stop offset="0.343" stop-color="#5684D1"/>
<stop offset="0.672" stop-color="#1BA1E3"/>
</radialGradient>
<clipPath id="clip0_2062_32">
<rect width="79" height="77" fill="white" transform="translate(176 171)"/>
</clipPath>
<clipPath id="clip1_2062_32">
<rect width="64" height="64" fill="white" transform="translate(184.141 180.01)"/>
</clipPath>
<clipPath id="clip2_2062_32">
<rect width="64" height="64" fill="white" transform="translate(184.141 180.01)"/>
</clipPath>
<clipPath id="clip3_2062_32">
<rect width="96" height="96" fill="white" transform="translate(0.679688 199.7)"/>
</clipPath>
<clipPath id="clip4_2062_32">
<rect width="80" height="80" fill="white" transform="translate(7.20312 204.59)"/>
</clipPath>
<clipPath id="clip5_2062_32">
<rect width="50" height="50.1953" fill="white" transform="translate(22 220)"/>
</clipPath>
<clipPath id="clip6_2062_32">
<rect width="64" height="64" fill="white" transform="translate(158 390)"/>
</clipPath>
<clipPath id="clip7_2062_32">
<rect width="38" height="38" fill="white" transform="translate(172 401)"/>
</clipPath>
<clipPath id="clip8_2062_32">
<rect width="38" height="40" fill="white" transform="translate(172 401)"/>
</clipPath>
<clipPath id="clip9_2062_32">
<rect width="46.9388" height="48" fill="white" transform="translate(209)"/>
</clipPath>
<clipPath id="clip10_2062_32">
<rect width="70" height="70" fill="white" transform="translate(37 34)"/>
</clipPath>
</defs>
</svg>
