<svg width="290" height="460" viewBox="0 0 290 460" fill="none" xmlns="http://www.w3.org/2000/svg">
<g clip-path="url(#clip0_2062_30)">
<path d="M161.448 139.948C147.537 136.239 133.239 144.456 129.513 158.3C127.069 167.371 129.774 176.609 135.843 182.945C132.819 186.088 130.641 189.946 129.513 194.159C125.784 208.005 134.04 222.233 147.951 225.943C152.222 227.085 156.712 227.126 161.003 226.062C165.294 224.997 169.246 222.862 172.488 219.855C175.613 222.76 179.404 224.85 183.528 225.943C197.439 229.652 211.737 221.437 215.464 207.592C217.906 198.52 215.203 189.281 209.134 182.947C212.158 179.804 214.336 175.945 215.464 171.732C219.192 157.887 210.936 143.659 197.026 139.95C192.756 138.807 188.265 138.766 183.974 139.83C179.683 140.894 175.732 143.029 172.489 146.036C169.364 143.132 165.572 141.04 161.448 139.948Z" fill="#202020"/>
<g clip-path="url(#clip1_2062_30)">
<g clip-path="url(#clip2_2062_30)">
<path d="M165.172 192.138L185.12 177.33C186.097 176.604 187.495 176.888 187.961 178.015C190.414 183.962 189.318 191.109 184.439 196.015C179.559 200.922 172.77 201.998 166.565 199.547L159.786 202.704C169.509 209.387 181.316 207.734 188.693 200.309C194.545 194.424 196.358 186.403 194.663 179.169L194.678 179.184C192.221 168.557 195.283 164.309 201.555 155.623C201.703 155.417 201.852 155.211 202 155L193.747 163.3V163.274L165.167 192.144" fill="white"/>
<path d="M161.056 195.737C154.078 189.034 155.281 178.659 161.235 172.676C165.639 168.248 172.852 166.441 179.15 169.097L185.913 165.957C184.695 165.071 183.133 164.119 181.341 163.449C173.242 160.097 163.545 161.766 156.96 168.382C150.627 174.751 148.635 184.544 152.055 192.9C154.61 199.146 150.422 203.564 146.203 208.022C144.708 209.603 143.208 211.184 142 212.857L161.051 195.743" fill="white"/>
</g>
</g>
</g>
<g clip-path="url(#clip3_2062_30)">
<path d="M5.01904 279.046V305.958C5.01904 315.247 12.2558 322.778 21.1831 322.778C23.2536 322.778 25.2325 322.373 27.0512 321.635C29.8624 326.596 35.0508 329.925 40.9861 329.925C46.9213 329.925 52.109 326.595 54.9202 321.634C56.7903 322.392 58.7799 322.779 60.7868 322.777C69.7141 322.777 76.9516 315.246 76.9516 305.956V279.045C76.9516 269.756 69.7141 262.226 60.7868 262.226C58.7179 262.226 56.7397 262.631 54.9202 263.367C52.1097 258.406 46.9221 255.076 40.9869 255.076C35.0501 255.076 29.8617 258.406 27.0512 263.368C25.181 262.611 23.1914 262.223 21.1846 262.226C12.2565 262.226 5.01904 269.756 5.01904 279.046Z" fill="#005DE8"/>
<g clip-path="url(#clip4_2062_30)">
<g clip-path="url(#clip5_2062_30)">
<g clip-path="url(#clip6_2062_30)">
<path d="M36.1609 276.201C38.5504 276.046 41.0394 276.494 43.0761 277.802C45.0297 279.021 46.4183 281.063 46.9269 283.3C47.4355 285.512 47.2972 287.898 46.3996 289.994C45.6988 291.646 44.5035 293.076 43.0187 294.081C40.9832 295.468 38.466 296.05 36.0226 295.955C35.2761 295.934 34.5601 295.592 33.8101 295.681C33.3027 295.769 33.073 296.322 33.0894 296.787C33.0812 298.671 33.0883 300.556 33.0859 302.44C33.0894 302.931 33.1281 303.501 33.5265 303.848C34.034 304.259 34.6902 304.405 35.3066 304.578C35.9453 304.761 36.6636 304.795 37.1945 305.237C37.7054 305.622 37.8027 306.398 37.5179 306.946C37.2402 307.484 36.5863 307.662 36.0238 307.659C31.8765 307.66 27.7304 307.659 23.5843 307.66C23.1179 307.662 22.6199 307.595 22.2519 307.282C21.6754 306.788 21.7023 305.808 22.2109 305.276C23.0535 304.493 24.3965 304.734 25.239 303.955C25.5965 303.583 25.5882 303.031 25.6 302.549C25.6 295.827 25.6023 289.105 25.5988 282.385C25.5882 281.916 25.566 281.376 25.2039 281.03C24.4093 280.368 23.2679 280.49 22.4254 279.927C21.8582 279.548 21.6882 278.759 21.9437 278.147C22.1804 277.668 22.7148 277.39 23.2386 277.386C24.9941 277.369 26.7507 277.396 28.5062 277.371C31.1066 277.332 33.5746 276.354 36.1609 276.201ZM34.8941 279.305C34.0715 279.45 33.4914 280.168 33.2535 280.93C32.7484 282.495 32.7707 284.162 32.7343 285.788C32.7613 287.475 32.7484 289.191 33.182 290.834C33.3894 291.612 33.8172 292.407 34.5836 292.75C35.6312 293.189 36.9379 293.012 37.7828 292.234C38.7343 291.38 39.1867 290.121 39.4328 288.898C39.7633 287.145 39.7715 285.33 39.4867 283.568C39.2558 282.3 38.8152 280.986 37.8367 280.096C37.0691 279.359 35.9218 279.102 34.8941 279.305Z" fill="white"/>
<path d="M51.7633 279.061C53.4566 278.573 55.3808 279.426 56.193 280.981C56.7683 282.047 56.8082 283.393 56.268 284.48C55.832 285.414 54.9976 286.141 54.0273 286.479C52.8344 286.902 51.4351 286.682 50.4344 285.905C49.1676 284.978 48.5805 283.231 49.041 281.727C49.4113 280.452 50.4742 279.395 51.7633 279.061Z" fill="white"/>
<path d="M54.1128 288.795C54.571 288.692 55.0925 288.746 55.4628 289.056C55.8074 289.336 55.9679 289.792 55.9527 290.228C55.9515 294.416 55.9503 298.605 55.9538 302.793C55.9714 303.279 56.0101 303.844 56.4074 304.182C56.9722 304.62 57.7456 304.657 58.3058 305.106C58.9538 305.577 59.0745 306.644 58.5038 307.221C58.1781 307.557 57.6894 307.656 57.2382 307.659C54.4574 307.659 51.6777 307.66 48.898 307.659C48.4421 307.664 47.964 307.551 47.6206 307.237C47.0663 306.671 47.1519 305.636 47.7695 305.15C48.3413 304.625 49.2144 304.646 49.7781 304.114C50.1226 303.766 50.1484 303.244 50.1648 302.784C50.1671 300.282 50.166 297.779 50.1648 295.277C50.1577 294.816 50.1156 294.296 49.764 293.957C49.0937 293.37 48.0202 293.475 47.466 292.72C46.9843 292.108 47.3769 291.161 48.0835 290.935C50.0933 290.222 52.0902 289.466 54.1128 288.795Z" fill="white"/>
</g>
</g>
</g>
</g>
<g clip-path="url(#clip7_2062_30)">
<path d="M79.3228 4.50249C69.1793 1.79874 58.7537 7.78811 56.0368 17.879C54.2551 24.4908 56.2272 31.2239 60.6525 35.8428C58.4478 38.1334 56.8598 40.9455 56.0368 44.0164C53.3178 54.1084 59.3378 64.4794 69.4812 67.1831C72.5954 68.0159 75.8699 68.0457 78.9987 67.2697C82.1276 66.4937 85.0087 64.9373 87.3728 62.7458C89.6514 64.8629 92.416 66.3868 95.4228 67.1831C105.566 69.8869 115.992 63.8986 118.71 53.8076C120.49 47.1948 118.519 40.4606 114.094 35.8439C116.299 33.553 117.887 30.7405 118.71 27.6692C121.428 17.5783 115.408 7.20733 105.265 4.50358C102.151 3.67052 98.8769 3.64049 95.748 4.41629C92.6192 5.1921 89.738 6.74842 87.3739 8.93983C85.0948 6.82294 82.3298 5.29831 79.3228 4.50249Z" fill="#F22F46"/>
<g clip-path="url(#clip8_2062_30)">
<g clip-path="url(#clip9_2062_30)">
<g clip-path="url(#clip10_2062_30)">
<path fill-rule="evenodd" clip-rule="evenodd" d="M76.3169 15.6733L83.6885 18.27L83.7127 44.1289L93.9898 38.139L88.9752 35.7931L85.7574 27.801L102.072 33.515L102.058 41.8886L83.6864 52.4711L76.3409 48.3835L76.3169 15.6733Z" fill="white"/>
</g>
</g>
</g>
</g>
<g clip-path="url(#clip11_2062_30)">
<path d="M218.715 335.87C213.473 330.419 213.473 321.58 218.715 316.129L242.012 291.9C247.253 286.449 255.751 286.449 260.993 291.9L284.29 316.129C289.532 321.58 289.532 330.419 284.29 335.87L260.993 360.098C255.751 365.55 247.253 365.55 242.012 360.099L218.715 335.87Z" fill="#FFB3C7"/>
</g>
<g clip-path="url(#clip12_2062_30)">
<g clip-path="url(#clip13_2062_30)" filter="url(#filter0_d_2062_30)">
<g clip-path="url(#clip14_2062_30)">
<g clip-path="url(#clip15_2062_30)">
<g clip-path="url(#clip16_2062_30)">
<g clip-path="url(#clip17_2062_30)">
<path d="M261.072 311.204C260.549 309.415 258.901 308.181 257.034 308.181H255.808C253.777 308.181 252.035 309.634 251.668 311.633L249.567 323.1L250.09 321.311C250.614 319.515 252.262 318.28 254.129 318.28H261.268L264.259 319.444L267.142 318.28H266.306C264.439 318.28 262.791 317.046 262.268 315.258L261.072 311.204Z" fill="url(#paint0_radial_2062_30)"/>
<path d="M243.068 341.495C243.591 343.291 245.24 344.533 247.114 344.533H249.723C252.004 344.533 253.871 342.713 253.933 340.432L254.214 329.38L253.621 331.411C253.097 333.207 251.449 334.434 249.583 334.434H242.381L239.811 333.043L237.03 334.434H237.858C239.733 334.434 241.381 335.676 241.904 337.472L243.068 341.495Z" fill="url(#paint1_radial_2062_30)"/>
<path d="M256.854 308.181H242.279C238.108 308.181 235.609 313.68 233.945 319.187C231.969 325.709 229.391 334.434 236.858 334.434H243.154C245.036 334.434 246.685 333.192 247.2 331.379C248.294 327.552 250.215 320.874 251.723 315.789C252.488 313.203 253.129 310.985 254.105 309.602C254.66 308.829 255.573 308.181 256.854 308.181Z" fill="url(#paint2_linear_2062_30)"/>
<path d="M256.854 308.181H242.279C238.108 308.181 235.609 313.68 233.945 319.187C231.969 325.709 229.391 334.434 236.858 334.434H243.154C245.036 334.434 246.685 333.192 247.2 331.379C248.294 327.552 250.215 320.874 251.723 315.789C252.488 313.203 253.129 310.985 254.105 309.602C254.66 308.829 255.573 308.181 256.854 308.181Z" fill="url(#paint3_linear_2062_30)"/>
<path d="M246.856 344.533H261.44C265.603 344.533 268.102 339.026 269.774 333.52C271.75 326.998 274.328 318.273 266.86 318.273H260.565C258.682 318.273 257.034 319.515 256.519 321.327C255.425 325.154 253.504 331.84 251.996 336.925C251.231 339.511 250.59 341.729 249.614 343.112C249.051 343.885 248.137 344.533 246.856 344.533Z" fill="url(#paint4_radial_2062_30)"/>
<path d="M246.856 344.533H261.44C265.603 344.533 268.102 339.026 269.774 333.52C271.75 326.998 274.328 318.273 266.86 318.273H260.565C258.682 318.273 257.034 319.515 256.519 321.327C255.425 325.154 253.504 331.84 251.996 336.925C251.231 339.511 250.59 341.729 249.614 343.112C249.051 343.885 248.137 344.533 246.856 344.533Z" fill="url(#paint5_linear_2062_30)"/>
</g>
</g>
</g>
</g>
</g>
</g>
<g clip-path="url(#clip18_2062_30)">
<path d="M85.0879 404.696V432.307C85.0879 441.838 92.8136 449.564 102.344 449.564C104.554 449.564 106.667 449.149 108.609 448.392C111.61 453.482 117.149 456.897 123.485 456.897C129.821 456.897 135.36 453.481 138.361 448.391C140.357 449.168 142.481 449.566 144.624 449.563C154.154 449.563 161.881 441.837 161.881 432.306V404.696C161.881 395.165 154.154 387.439 144.624 387.439C142.415 387.439 140.303 387.855 138.361 388.611C135.36 383.52 129.822 380.104 123.486 380.104C117.148 380.104 111.609 383.52 108.609 388.611C106.612 387.834 104.488 387.437 102.346 387.439C92.8144 387.439 85.0879 395.165 85.0879 404.696Z" fill="#00BEA6"/>
<g clip-path="url(#clip19_2062_30)">
<g clip-path="url(#clip20_2062_30)">
<path d="M131.959 392L136.778 397.454C136.778 397.454 141.008 396.281 143.006 398.275C145.002 400.268 146.648 402.028 146.648 402.028L145.356 405.193L147 409.884C147 409.884 142.163 428.172 141.597 430.406C140.479 434.804 139.716 436.502 136.543 438.732C133.37 440.959 127.613 444.828 126.673 445.414C125.733 446.001 124.558 447 123.5 447C122.442 447 121.27 446.001 120.327 445.414C117.006 443.233 113.715 441.005 110.457 438.732C107.284 436.502 106.52 434.804 105.405 430.406C104.837 428.172 100 409.884 100 409.884L101.644 405.193L100.352 402.028C100.352 402.028 101.998 400.268 103.996 398.275C105.992 396.281 110.222 397.454 110.222 397.454L115.039 392H131.959ZM123.5 426.228C123.178 426.228 121.113 426.955 119.458 427.81C117.803 428.664 116.602 429.269 116.218 429.51C115.835 429.748 116.069 430.2 116.419 430.447C116.768 430.693 121.463 434.32 121.92 434.724C122.376 435.125 123.045 435.787 123.5 435.787C123.955 435.787 124.627 435.122 125.082 434.724C125.537 434.323 130.232 430.693 130.581 430.447C130.931 430.2 131.165 429.748 130.782 429.508C130.398 429.269 129.197 428.664 127.54 427.81C125.884 426.955 123.822 426.228 123.5 426.228ZM123.5 400.383C123.5 400.383 122.56 400.385 121.15 400.855C119.741 401.325 118.212 401.909 117.508 401.909C116.802 401.909 111.574 400.915 111.574 400.915C111.574 400.915 105.378 408.39 105.378 409.987C105.378 411.585 106.157 412.006 106.941 412.836L111.586 417.761C112.027 418.226 112.942 418.932 112.404 420.204C111.864 421.475 111.071 423.091 111.953 424.734C112.836 426.375 114.349 427.47 115.319 427.289C116.287 427.106 118.566 425.919 119.403 425.378C120.24 424.835 122.893 422.651 122.893 421.817C122.893 420.98 120.15 419.479 119.644 419.14C119.138 418.796 116.825 417.479 116.777 416.963C116.731 416.443 116.75 416.292 117.43 415.013C118.113 413.732 119.341 412.025 119.136 410.888C118.932 409.754 116.952 409.162 115.538 408.628C114.124 408.097 111.402 407.091 111.061 406.932C110.721 406.777 110.808 406.628 111.841 406.531C112.871 406.433 115.793 406.046 117.111 406.412C118.428 406.779 120.679 407.336 120.863 407.631C121.044 407.929 121.205 407.939 121.017 408.958C120.831 409.978 119.867 414.873 119.773 415.742C119.681 416.612 119.497 417.185 120.435 417.401C121.376 417.616 122.957 417.988 123.5 417.988C124.043 417.988 125.624 417.616 126.565 417.401C127.503 417.188 127.321 416.613 127.227 415.744C127.135 414.873 126.169 409.978 125.983 408.958C125.795 407.939 125.956 407.927 126.137 407.631C126.321 407.336 128.572 406.779 129.889 406.412C131.207 406.046 134.131 406.433 135.159 406.531C136.192 406.628 136.279 406.777 135.939 406.932C135.598 407.091 132.876 408.097 131.462 408.628C130.048 409.162 128.068 409.751 127.864 410.888C127.657 412.025 128.887 413.732 129.57 415.013C130.253 416.292 130.269 416.443 130.223 416.961C130.177 417.479 127.864 418.799 127.356 419.138C126.85 419.482 124.107 420.98 124.107 421.817C124.107 422.651 126.76 424.835 127.597 425.378C128.434 425.919 130.713 427.108 131.681 427.289C132.651 427.47 134.164 426.373 135.047 424.734C135.929 423.093 135.136 421.475 134.598 420.204C134.058 418.932 134.973 418.226 135.414 417.761L140.059 412.836C140.843 412.006 141.622 411.585 141.622 409.987C141.622 408.39 135.426 400.912 135.426 400.912C135.426 400.912 130.198 401.911 129.494 401.911C128.788 401.911 127.259 401.325 125.85 400.855C124.44 400.385 123.5 400.383 123.5 400.383Z" fill="white"/>
</g>
</g>
</g>
<defs>
<filter id="filter0_d_2062_30" x="220" y="300" width="63" height="63" filterUnits="userSpaceOnUse" color-interpolation-filters="sRGB">
<feFlood flood-opacity="0" result="BackgroundImageFix"/>
<feColorMatrix in="SourceAlpha" type="matrix" values="0 0 0 0 0 0 0 0 0 0 0 0 0 0 0 0 0 0 127 0" result="hardAlpha"/>
<feOffset dy="4"/>
<feGaussianBlur stdDeviation="2"/>
<feComposite in2="hardAlpha" operator="out"/>
<feColorMatrix type="matrix" values="0 0 0 0 0 0 0 0 0 0 0 0 0 0 0 0 0 0 0.25 0"/>
<feBlend mode="normal" in2="BackgroundImageFix" result="effect1_dropShadow_2062_30"/>
<feBlend mode="normal" in="SourceGraphic" in2="effect1_dropShadow_2062_30" result="shape"/>
</filter>
<radialGradient id="paint0_radial_2062_30" cx="0" cy="0" r="1" gradientUnits="userSpaceOnUse" gradientTransform="translate(264.588 323.191) rotate(-129.304) scale(15.728 14.7894)">
<stop offset="0.096" stop-color="#00AEFF"/>
<stop offset="0.773" stop-color="#2253CE"/>
<stop offset="1" stop-color="#0736C4"/>
</radialGradient>
<radialGradient id="paint1_radial_2062_30" cx="0" cy="0" r="1" gradientUnits="userSpaceOnUse" gradientTransform="translate(240.15 334.37) rotate(51.8401) scale(14.5354 14.0997)">
<stop stop-color="#FFB657"/>
<stop offset="0.634" stop-color="#FF5F3D"/>
<stop offset="0.923" stop-color="#C02B3C"/>
</radialGradient>
<linearGradient id="paint2_linear_2062_30" x1="243.691" y1="311.161" x2="245.771" y2="335.226" gradientUnits="userSpaceOnUse">
<stop offset="0.156" stop-color="#0D91E1"/>
<stop offset="0.487" stop-color="#52B471"/>
<stop offset="0.652" stop-color="#98BD42"/>
<stop offset="0.937" stop-color="#FFC800"/>
</linearGradient>
<linearGradient id="paint3_linear_2062_30" x1="243.898" y1="308.148" x2="245.034" y2="334.401" gradientUnits="userSpaceOnUse">
<stop stop-color="#3DCBFF"/>
<stop offset="0.247" stop-color="#0588F7" stop-opacity="0"/>
</linearGradient>
<radialGradient id="paint4_radial_2062_30" cx="0" cy="0" r="1" gradientUnits="userSpaceOnUse" gradientTransform="translate(267.6 315.706) rotate(109.274) scale(34.8926 41.8002)">
<stop offset="0.066" stop-color="#8C48FF"/>
<stop offset="0.5" stop-color="#F2598A"/>
<stop offset="0.896" stop-color="#FFB152"/>
</radialGradient>
<linearGradient id="paint5_linear_2062_30" x1="259.39" y1="316.653" x2="259.375" y2="323.806" gradientUnits="userSpaceOnUse">
<stop offset="0.058" stop-color="#F8ADFA"/>
<stop offset="0.708" stop-color="#A86EDD" stop-opacity="0"/>
</linearGradient>
<clipPath id="clip0_2062_30">
<rect width="96" height="96.0364" fill="white" transform="translate(121.531 131.006)"/>
</clipPath>
<clipPath id="clip1_2062_30">
<rect width="80" height="80" fill="white" transform="translate(132.383 144.706)"/>
</clipPath>
<clipPath id="clip2_2062_30">
<rect width="80" height="80" fill="white" transform="translate(132.383 144.706)"/>
</clipPath>
<clipPath id="clip3_2062_30">
<rect width="80" height="80.0303" fill="white" transform="translate(0 255)"/>
</clipPath>
<clipPath id="clip4_2062_30">
<rect width="64" height="64" fill="white" transform="translate(4.25781 262.13)"/>
</clipPath>
<clipPath id="clip5_2062_30">
<rect width="64" height="64" fill="white" transform="translate(4.25781 262.13)"/>
</clipPath>
<clipPath id="clip6_2062_30">
<rect width="64" height="64" fill="white" transform="translate(4.25781 262.13)"/>
</clipPath>
<clipPath id="clip7_2062_30">
<rect width="70" height="70" fill="white" transform="translate(52)"/>
</clipPath>
<clipPath id="clip8_2062_30">
<rect width="54" height="54" fill="white" transform="translate(55 8)"/>
</clipPath>
<clipPath id="clip9_2062_30">
<rect width="64" height="64" fill="white" transform="translate(55 8)"/>
</clipPath>
<clipPath id="clip10_2062_30">
<rect width="64" height="64" fill="white" transform="translate(55 8)"/>
</clipPath>
<clipPath id="clip11_2062_30">
<rect width="75" height="78" fill="white" transform="translate(214 287)"/>
</clipPath>
<clipPath id="clip12_2062_30">
<rect width="55" height="55" fill="white" transform="translate(220 295)"/>
</clipPath>
<clipPath id="clip13_2062_30">
<rect width="55" height="55" fill="white" transform="translate(224 300)"/>
</clipPath>
<clipPath id="clip14_2062_30">
<rect width="64" height="64" fill="white" transform="translate(220 296)"/>
</clipPath>
<clipPath id="clip15_2062_30">
<rect width="64" height="64" fill="white" transform="translate(220.195 295.846)"/>
</clipPath>
<clipPath id="clip16_2062_30">
<rect width="64" height="64" fill="white" transform="translate(220.195 295.846)"/>
</clipPath>
<clipPath id="clip17_2062_30">
<rect width="40" height="36.3523" fill="white" transform="translate(231.859 308.181)"/>
</clipPath>
<clipPath id="clip18_2062_30">
<rect width="80" height="80.0303" fill="white" transform="translate(84.9453 379.34)"/>
</clipPath>
<clipPath id="clip19_2062_30">
<rect width="64" height="64" fill="white" transform="translate(92.1016 384.82)"/>
</clipPath>
<clipPath id="clip20_2062_30">
<rect width="64" height="64" fill="white" transform="translate(92.1016 384.82)"/>
</clipPath>
</defs>
</svg>
