<svg width="481" height="93" viewBox="0 0 481 93" fill="none" xmlns="http://www.w3.org/2000/svg">
<g clip-path="url(#clip0_2014_30)">
<path d="M0.0124512 37.2122C0.0124512 33.2359 3.23564 30.0127 7.21195 30.0127H22.7868C26.7643 30.0127 29.9875 33.2359 29.9875 37.2122V60.0002H7.21195C3.23564 60.0002 0.0124512 56.777 0.0124512 52.8007V37.2122Z" fill="#74AA9C"/>
<path d="M13.8067 33.7296C11.3379 33.7296 9.14464 35.3168 8.3803 37.661L8.10474 39.2707V44.6061C8.10474 44.8729 8.24189 45.1099 8.47132 45.247L12.7668 47.7223V40.3904H12.7681V40.0425L17.116 37.5313C17.5363 37.2879 17.9943 37.1216 18.4685 37.0347L18.0499 35.6148C16.9701 34.4079 15.4252 33.7221 13.8067 33.7296ZM13.8067 35.1946L13.7992 35.2021C14.793 35.2021 15.7481 35.545 16.5125 36.1797C16.4813 36.1946 16.4202 36.2333 16.3753 36.2557L11.8803 38.8443C11.6509 38.9739 11.5137 39.2183 11.5137 39.4852V45.5612L9.5798 44.4465V39.4241C9.57855 37.0912 11.4701 35.1984 13.8067 35.1946Z" fill="white"/>
<path d="M24.1639 38.3312C22.9295 36.1931 20.4583 35.0873 18.046 35.5975L16.5142 36.1637L11.8936 38.8314C11.6625 38.9648 11.5259 39.202 11.5218 39.4693L11.5259 44.4269L17.8755 40.761L17.8761 40.7621L18.1774 40.5882L22.5261 43.0979C22.9471 43.3403 23.3201 43.6537 23.6325 44.0209L24.6528 42.9485C25.1582 41.4099 24.9796 39.7291 24.1639 38.3312ZM22.8951 39.0637L22.8849 39.061C23.3818 39.9216 23.5624 40.9202 23.3949 41.8995C23.3664 41.88 23.3024 41.8464 23.2605 41.8187L18.7712 39.2202C18.5442 39.0863 18.264 39.0897 18.0329 39.2232L12.7709 42.2612L12.7693 40.029L17.1189 37.5178C19.1386 36.3503 21.7236 37.042 22.8951 39.0637Z" fill="white"/>
<path d="M25.3572 49.6021C26.5916 47.464 26.3136 44.771 24.6657 42.937L23.4094 41.8935L18.7888 39.2258C18.5577 39.0923 18.284 39.0927 18.0505 39.2228L13.7591 41.7052L20.1087 45.3711L20.1081 45.3722L20.4093 45.5461L20.4102 50.5671C20.4108 51.0529 20.3258 51.5326 20.164 51.9867L21.6029 52.3341C23.1881 52.0025 24.5545 51.0075 25.3572 49.6021ZM24.0884 48.8696L24.0857 48.8593C23.5888 49.72 22.8143 50.3757 21.8825 50.7203C21.8851 50.6858 21.8822 50.6136 21.8852 50.5635L21.8909 45.3764C21.8934 45.1129 21.7503 44.8719 21.5192 44.7385L16.2572 41.7005L18.1895 40.583L22.5391 43.0942C24.5601 44.2596 25.2535 46.8441 24.0884 48.8696Z" fill="white"/>
<path d="M16.1933 56.2704C18.6621 56.2704 20.8554 54.6832 21.6197 52.339L21.8953 50.7293V45.3939C21.8953 45.1271 21.7581 44.8901 21.5287 44.753L17.2332 42.2777V49.6096H17.2319V49.9575L12.884 52.4687C12.4637 52.7121 12.0057 52.8784 11.5315 52.9653L11.9501 54.3852C13.0299 55.5921 14.5748 56.2779 16.1933 56.2704ZM16.1933 54.8054L16.2008 54.7979C15.207 54.7979 14.2519 54.455 13.4875 53.8203C13.5187 53.8054 13.5798 53.7667 13.6247 53.7443L18.1197 51.1557C18.3491 51.0261 18.4863 50.7817 18.4863 50.5148V44.4388L20.4202 45.5535V50.5759C20.4214 52.9088 18.5299 54.8016 16.1933 54.8054Z" fill="white"/>
<path d="M5.83607 51.6688C7.07047 53.8069 9.54174 54.9127 11.954 54.4025L13.4858 53.8363L18.1064 51.1686C18.3375 51.0352 18.4741 50.798 18.4782 50.5307L18.4741 45.5731L12.1245 49.239L12.1239 49.2379L11.8226 49.4118L7.47386 46.9021C7.05289 46.6597 6.67991 46.3463 6.36754 45.9791L5.3472 47.0515C4.84182 48.5901 5.02036 50.2709 5.83607 51.6688ZM7.10487 50.9363L7.11509 50.939C6.61821 50.0784 6.4376 49.0798 6.60507 48.1005C6.63361 48.12 6.69764 48.1536 6.73952 48.1813L11.2288 50.7798C11.4558 50.9137 11.736 50.9103 11.9671 50.7768L17.2291 47.7388L17.2307 49.971L12.8811 52.4822C10.8614 53.6497 8.27643 52.958 7.10487 50.9363Z" fill="white"/>
<path d="M4.6428 40.3979C3.40839 42.536 3.68638 45.229 5.33429 47.063L6.59057 48.1065L11.2112 50.7742C11.4423 50.9077 11.716 50.9073 11.9495 50.7772L16.2409 48.2948L9.89131 44.6289L9.89193 44.6278L9.59066 44.4539L9.58982 39.4329C9.58923 38.9471 9.67417 38.4674 9.83599 38.0133L8.39707 37.6659C6.8119 37.9975 5.44555 38.9925 4.6428 40.3979ZM5.9116 41.1304L5.91434 41.1407C6.41122 40.28 7.18573 39.6243 8.11754 39.2797C8.11491 39.3142 8.11783 39.3864 8.11483 39.4365L8.10905 44.6236C8.10664 44.8871 8.24971 45.1281 8.48079 45.2615L13.7428 48.2995L11.8105 49.417L7.46092 46.9058C5.43995 45.7404 4.74652 43.1559 5.9116 41.1304Z" fill="white"/>
</g>
<g clip-path="url(#clip1_2014_30)">
<path d="M89.6939 29.3878C97.8091 29.3878 104.388 22.8091 104.388 14.6939C104.388 6.57867 97.8091 0 89.6939 0C81.5787 0 75 6.57867 75 14.6939C75 22.8091 81.5787 29.3878 89.6939 29.3878Z" fill="#93D33D"/>
<g clip-path="url(#clip2_2014_30)">
<path d="M89.9813 29.3878C97.9171 29.3878 104.35 22.8091 104.35 14.6939C104.35 6.57867 97.9171 0 89.9813 0C82.0455 0 75.6123 6.57867 75.6123 14.6939C75.6123 22.8091 82.0455 29.3878 89.9813 29.3878Z" fill="#93D33D"/>
<path d="M89.7545 5.84912V24.091" stroke="white" stroke-linecap="round" stroke-linejoin="round"/>
<path d="M84.9504 11.4958V6.82324L89.7545 11.4958" stroke="white" stroke-linecap="round" stroke-linejoin="round"/>
<path d="M89.7545 18.2783L84.9504 23.1166V16.3781L89.7545 11.4961" stroke="white" stroke-linecap="round" stroke-linejoin="round"/>
<path d="M89.7545 11.4958L94.5586 6.82324V11.4958" stroke="white" stroke-linecap="round" stroke-linejoin="round"/>
<path d="M84.9504 18.4294H82.9446V11.4961H96.5644V18.4294H94.5586" stroke="white" stroke-linecap="round" stroke-linejoin="round"/>
<path d="M89.7545 11.4961L94.5586 16.3781V23.1166L89.7545 18.2783" stroke="white" stroke-linecap="round" stroke-linejoin="round"/>
</g>
</g>
<g clip-path="url(#clip3_2014_30)">
<path d="M226.413 40.7579V51.2431C226.413 54.8622 229.346 57.7964 232.966 57.7964C233.805 57.7964 234.607 57.6386 235.345 57.351C236.484 59.284 238.588 60.5808 240.994 60.5808C243.4 60.5808 245.503 59.2837 246.643 57.3507C247.401 57.6459 248.208 57.7969 249.021 57.7961C252.64 57.7961 255.574 54.8619 255.574 51.2424V40.7576C255.574 37.1384 252.64 34.2046 249.021 34.2046C248.182 34.2046 247.38 34.3623 246.643 34.6494C245.503 32.7164 243.4 31.4189 240.994 31.4189C238.587 31.4189 236.484 32.7164 235.345 34.6497C234.586 34.3546 233.78 34.2037 232.966 34.2046C229.347 34.2046 226.413 37.1384 226.413 40.7579Z" fill="#6772E5"/>
<g clip-path="url(#clip4_2014_30)">
<path d="M235.363 48.4054L238.736 46.5132L238.792 46.3483L238.736 46.2571H238.571L238.007 46.2224L236.08 46.1703L234.409 46.1009L232.79 46.0141L232.382 45.9273L232 45.4239L232.039 45.1722L232.382 44.9421L232.872 44.9855L233.957 45.0593L235.585 45.1722L236.765 45.2416L238.514 45.4239H238.792L238.831 45.311L238.736 45.2416L238.662 45.1722L236.978 44.0307L235.155 42.8242L234.2 42.1298L233.684 41.7783L233.424 41.4485L233.311 40.728L233.779 40.2116L234.409 40.255L234.569 40.2984L235.207 40.7888L236.57 41.8434L238.349 43.1541L238.61 43.3711L238.714 43.2973L238.727 43.2452L238.61 43.0499L237.642 41.3009L236.609 39.5215L236.149 38.7837L236.027 38.341C235.984 38.1588 235.954 38.0069 235.954 37.8203L236.488 37.0955L236.783 37L237.494 37.0955L237.794 37.3559L238.237 38.3671L238.953 39.9599L240.064 42.1255L240.389 42.7678L240.563 43.3624L240.628 43.5447H240.741V43.4405L240.832 42.221L241.001 40.7237L241.166 38.7967L241.222 38.2542L241.492 37.6033L242.025 37.2517L242.442 37.4514L242.785 37.9418L242.737 38.2586L242.533 39.5823L242.134 41.6568L241.873 43.0456H242.025L242.199 42.872L242.902 41.9389L244.082 40.4633L244.603 39.8774L245.211 39.2307L245.601 38.9226H246.339L246.882 39.7298L246.639 40.5631L245.879 41.5266L245.25 42.3425L244.347 43.5577L243.783 44.5298L243.835 44.608L243.97 44.5949L246.009 44.1609L247.112 43.9613L248.427 43.7356L249.021 44.0134L249.086 44.2955L248.852 44.8727L247.446 45.2199L245.797 45.5497L243.34 46.1313L243.31 46.153L243.345 46.1964L244.451 46.3005L244.924 46.3266H246.083L248.24 46.4872L248.804 46.8604L249.143 47.3161L249.086 47.6633L248.218 48.106L247.047 47.8282L244.312 47.1772L243.375 46.9429H243.245V47.021L244.026 47.7848L245.458 49.0781L247.251 50.7447L247.342 51.157L247.112 51.4825L246.869 51.4477L245.293 50.2629L244.686 49.7291L243.31 48.5703H243.219V48.6919L243.536 49.1562L245.211 51.6734L245.298 52.4459L245.176 52.6976L244.742 52.8495L244.265 52.7627L243.284 51.387L242.273 49.8376L241.457 48.4488L241.357 48.5052L240.875 53.6915L240.65 53.9562L240.129 54.1559L239.695 53.826L239.465 53.2922L239.695 52.2376L239.973 50.8618L240.198 49.7682L240.402 48.4098L240.524 47.9584L240.515 47.928L240.415 47.941L239.391 49.3472L237.833 51.4521L236.6 52.7714L236.305 52.8886L235.793 52.6239L235.841 52.1508L236.127 51.7298L237.833 49.5599L238.861 48.2145L239.525 47.4376L239.521 47.3248H239.482L234.951 50.2673L234.144 50.3714L233.797 50.0459L233.84 49.5121L234.005 49.3385L235.368 48.4011L235.363 48.4054Z" fill="white"/>
</g>
</g>
<g clip-path="url(#clip5_2014_30)">
<path d="M453.237 50.2164C451.167 48.1984 451.167 44.9266 453.237 42.9086L462.44 33.9393C464.51 31.9213 467.867 31.9213 469.937 33.9393L479.14 42.9086C481.21 44.9266 481.21 48.1984 479.14 50.2164L469.937 59.1857C467.867 61.2037 464.51 61.2037 462.44 59.1858L453.237 50.2164Z" fill="#005DE8"/>
</g>
<g clip-path="url(#clip6_2014_30)">
<g clip-path="url(#clip7_2014_30)">
<path d="M460.62 48.2576C460.62 48.8031 460.746 49.2218 460.91 49.4752C461.126 49.8071 461.447 49.9477 461.775 49.9477C462.197 49.9477 462.584 49.8478 463.328 48.8666C463.925 48.0802 464.628 46.9764 465.101 46.2843L465.903 45.1119C466.459 44.2977 467.103 43.3925 467.842 42.779C468.445 42.2782 469.096 42 469.75 42C470.849 42 471.896 42.6066 472.697 43.7442C473.574 44.9902 474 46.5595 474 48.1791C474 49.1419 473.801 49.8493 473.462 50.4082C473.134 50.9487 472.496 51.4887 471.422 51.4887V49.9477C472.341 49.9477 472.571 49.1429 472.571 48.2218C472.571 46.9093 472.249 45.4527 471.542 44.4119C471.039 43.6737 470.388 43.2226 469.672 43.2226C468.897 43.2226 468.274 43.779 467.573 44.7711C467.201 45.2982 466.819 45.9405 466.389 46.6654L465.917 47.4627C464.967 49.0659 464.727 49.431 464.252 50.0336C463.42 51.0888 462.71 51.4887 461.775 51.4887C460.665 51.4887 459.963 51.0312 459.529 50.3416C459.174 49.7797 459 49.0425 459 48.2024L460.62 48.2576Z" fill="white"/>
<path d="M460.277 43.853C461.02 42.7626 462.092 42 463.322 42C464.034 42 464.742 42.2007 465.481 42.7755C466.289 43.4039 467.151 44.4387 468.226 46.1442L468.612 46.7563C469.542 48.2327 470.072 48.9923 470.381 49.3505C470.78 49.8105 471.059 49.9477 471.422 49.9477C472.341 49.9477 472.571 49.1429 472.571 48.2218L474 48.1791C474 49.1419 473.801 49.8493 473.462 50.4082C473.134 50.9487 472.496 51.4887 471.422 51.4887C470.754 51.4887 470.162 51.3506 469.508 50.7629C469.005 50.3118 468.417 49.5105 467.965 48.7901L466.62 46.65C465.945 45.5759 465.326 44.7751 464.967 44.4124C464.582 44.0224 464.086 43.5515 463.296 43.5515C462.656 43.5515 462.112 43.9792 461.657 44.6335L460.277 43.853Z" fill="white"/>
<path d="M463.296 43.5515C462.656 43.5515 462.112 43.9792 461.657 44.6335C461.014 45.558 460.62 46.9351 460.62 48.2576C460.62 48.8031 460.746 49.2218 460.91 49.4752L459.529 50.3416C459.174 49.7797 459 49.0425 459 48.2024C459 46.6748 459.44 45.0826 460.277 43.853C461.02 42.7626 462.092 42 463.322 42L463.296 43.5515Z" fill="white"/>
</g>
</g>
<g clip-path="url(#clip8_2014_30)">
<g opacity="0.3" clip-path="url(#clip9_2014_30)">
<path d="M387.225 63.3044C382.469 62.0366 377.58 64.845 376.306 69.5767C375.471 72.677 376.395 75.8342 378.471 78C377.437 79.074 376.692 80.3927 376.306 81.8326C375.031 86.5648 377.854 91.4278 382.61 92.6956C384.071 93.0861 385.606 93.1001 387.073 92.7362C388.54 92.3723 389.891 91.6425 391 90.6149C392.068 91.6076 393.365 92.3222 394.775 92.6956C399.531 93.9634 404.42 91.1555 405.694 86.4238C406.529 83.323 405.605 80.1653 403.53 78.0005C404.564 76.9263 405.308 75.6075 405.694 74.1673C406.968 69.4357 404.146 64.5727 399.39 63.3049C397.93 62.9143 396.394 62.9002 394.927 63.264C393.46 63.6277 392.109 64.3575 391 65.3851C389.932 64.3924 388.635 63.6775 387.225 63.3044Z" fill="#F2F2F2"/>
</g>
<g clip-path="url(#clip10_2014_30)">
<path d="M401 77.5205C395.629 77.865 391.348 82.3604 391.02 88H390.98C390.652 82.3604 386.371 77.865 381 77.5205V77.4795C386.371 77.135 390.652 72.6396 390.98 67H391.02C391.348 72.6396 395.629 77.135 401 77.4795V77.5205Z" fill="url(#paint0_radial_2014_30)"/>
</g>
</g>
<g clip-path="url(#clip11_2014_30)">
<g clip-path="url(#clip12_2014_30)">
<path d="M162.33 62.5624C157.983 61.4036 153.515 63.9705 152.35 68.2952C151.587 71.1288 152.432 74.0144 154.328 75.9939C153.383 76.9756 152.703 78.1808 152.35 79.4969C151.185 83.8221 153.765 88.2668 158.112 89.4255C159.447 89.7824 160.85 89.7952 162.191 89.4626C163.532 89.1301 164.767 88.463 165.78 87.5238C166.756 88.4311 167.941 89.0842 169.23 89.4255C173.577 90.5843 178.045 88.0178 179.21 83.6932C179.973 80.8591 179.128 77.973 177.232 75.9944C178.177 75.0126 178.857 73.8072 179.21 72.491C180.375 68.1663 177.795 63.7216 173.448 62.5628C172.114 62.2058 170.71 62.1929 169.369 62.5254C168.028 62.8579 166.794 63.5249 165.78 64.4641C164.804 63.5569 163.619 62.9034 162.33 62.5624Z" fill="#202020"/>
<g clip-path="url(#clip13_2014_30)">
<g clip-path="url(#clip14_2014_30)">
<path d="M162.765 79.215L170.245 73.662C170.612 73.3897 171.136 73.4959 171.311 73.9188C172.23 76.1488 171.819 78.8288 169.99 80.6689C168.16 82.5089 165.614 82.9124 163.287 81.9934L160.745 83.177C164.391 85.6831 168.819 85.0634 171.585 82.2791C173.78 80.0722 174.459 77.064 173.824 74.3513L173.83 74.3571C172.908 70.3719 174.056 68.779 176.408 65.5217C176.464 65.4445 176.52 65.3672 176.575 65.2881L173.48 68.4005V68.3909L162.763 79.2169" fill="white"/>
<path d="M161.221 80.5647C158.604 78.0508 159.056 74.1602 161.288 71.9166C162.94 70.2561 165.645 69.5784 168.006 70.5747L170.543 69.3969C170.086 69.0648 169.5 68.7076 168.828 68.4566C165.791 67.1997 162.154 67.8252 159.685 70.3063C157.31 72.6947 156.563 76.3671 157.846 79.5008C158.804 81.8429 157.234 83.4995 155.651 85.1716C155.091 85.7643 154.528 86.3571 154.075 86.9846L161.219 80.5666" fill="white"/>
</g>
</g>
</g>
</g>
<g clip-path="url(#clip15_2014_30)">
<g clip-path="url(#clip16_2014_30)">
<path d="M312.71 1.92956C308.363 0.770812 303.894 3.33769 302.73 7.66237C301.966 10.496 302.812 13.3816 304.708 15.3611C303.763 16.3428 303.083 17.548 302.73 18.8641C301.565 23.1892 304.145 27.6339 308.492 28.7927C309.827 29.1496 311.23 29.1624 312.571 28.8298C313.912 28.4972 315.147 27.8302 316.16 26.891C317.136 27.7983 318.321 28.4514 319.61 28.7927C323.957 29.9514 328.425 27.385 329.59 23.0603C330.353 20.2263 329.508 17.3402 327.612 15.3616C328.557 14.3798 329.237 13.1744 329.59 11.8582C330.755 7.53347 328.175 3.08878 323.828 1.93003C322.493 1.573 321.09 1.56013 319.749 1.89262C318.408 2.22511 317.173 2.89211 316.16 3.83128C315.183 2.92404 313.998 2.27063 312.71 1.92956Z" fill="#F22F46"/>
<g clip-path="url(#clip17_2014_30)">
<g clip-path="url(#clip18_2014_30)">
<path fill-rule="evenodd" clip-rule="evenodd" d="M311.849 8.1333L314.797 9.17384L314.807 19.5359L318.918 17.1357L316.912 16.1956L315.625 12.9931L322.151 15.2827L322.145 18.6382L314.796 22.8787L311.858 21.2408L311.849 8.1333Z" fill="white"/>
</g>
</g>
</g>
</g>
<defs>
<radialGradient id="paint0_radial_2014_30" cx="0" cy="0" r="1" gradientUnits="userSpaceOnUse" gradientTransform="translate(382.987 75.533) rotate(19.548) scale(21.3992 178.118)">
<stop offset="0.067" stop-color="#9168C0"/>
<stop offset="0.343" stop-color="#5684D1"/>
<stop offset="0.672" stop-color="#1BA1E3"/>
</radialGradient>
<clipPath id="clip0_2014_30">
<rect width="30" height="30" fill="white" transform="translate(0 30)"/>
</clipPath>
<clipPath id="clip1_2014_30">
<rect width="30" height="30" fill="white" transform="translate(75)"/>
</clipPath>
<clipPath id="clip2_2014_30">
<rect width="28.738" height="29.3878" fill="white" transform="translate(75.6123)"/>
</clipPath>
<clipPath id="clip3_2014_30">
<rect width="30" height="30" fill="white" transform="translate(226 31)"/>
</clipPath>
<clipPath id="clip4_2014_30">
<rect width="17.1429" height="17.2098" fill="white" transform="translate(232 37)"/>
</clipPath>
<clipPath id="clip5_2014_30">
<rect width="29.625" height="28.875" fill="white" transform="translate(451.375 32.125)"/>
</clipPath>
<clipPath id="clip6_2014_30">
<rect width="15" height="10" fill="white" transform="translate(459 42)"/>
</clipPath>
<clipPath id="clip7_2014_30">
<rect width="15" height="10" fill="white" transform="translate(459 42)"/>
</clipPath>
<clipPath id="clip8_2014_30">
<rect width="30" height="30" fill="white" transform="translate(376 63)"/>
</clipPath>
<clipPath id="clip9_2014_30">
<rect width="30" height="30" fill="white" transform="translate(376 63)"/>
</clipPath>
<clipPath id="clip10_2014_30">
<rect width="22" height="22" fill="white" transform="translate(378 65)"/>
</clipPath>
<clipPath id="clip11_2014_30">
<rect width="31" height="31" fill="white" transform="translate(150 60)"/>
</clipPath>
<clipPath id="clip12_2014_30">
<rect width="30" height="30" fill="white" transform="translate(150.469 60.9941)"/>
</clipPath>
<clipPath id="clip13_2014_30">
<rect width="30" height="30" fill="white" transform="translate(150.469 54.9941)"/>
</clipPath>
<clipPath id="clip14_2014_30">
<rect width="22.5" height="22.5" fill="white" transform="translate(154.075 65.2881)"/>
</clipPath>
<clipPath id="clip15_2014_30">
<rect width="30" height="30" fill="white" transform="translate(301)"/>
</clipPath>
<clipPath id="clip16_2014_30">
<rect width="30" height="30" fill="white" transform="translate(300.846 0.36084)"/>
</clipPath>
<clipPath id="clip17_2014_30">
<rect width="30" height="30" fill="white" transform="translate(300)"/>
</clipPath>
<clipPath id="clip18_2014_30">
<rect width="30" height="30" fill="white" transform="translate(297 -6)"/>
</clipPath>
</defs>
</svg>
