<svg width="20" height="20" viewBox="0 0 20 20" fill="none" xmlns="http://www.w3.org/2000/svg">
<g filter="url(#filter0_ii_356_899)">
<path d="M10 20C15.5228 20 20 15.5228 20 10C20 4.47715 15.5228 0 10 0C4.47715 0 0 4.47715 0 10C0 15.5228 4.47715 20 10 20Z" fill="#3E76FE"/>
</g>
<path d="M9.73716 12.6529C11.2437 11.041 12.6981 9.94746 14.5251 8.39889C15.0719 7.93536 15.1563 7.12289 14.7274 6.54727C14.2715 5.93549 13.4052 5.81321 12.8188 6.29957C11.1454 7.68761 9.84341 9.02411 8.6084 10.4526C8.54359 10.5275 8.51119 10.565 8.47756 10.5861C8.39227 10.6396 8.28569 10.6402 8.19985 10.5876C8.166 10.5668 8.13354 10.5301 8.06861 10.4566L7.41052 9.71146C6.81005 9.03156 5.73304 9.10686 5.2317 9.86371C4.88085 10.3934 4.93284 11.0953 5.35784 11.5667L6.3898 12.7115C7.16167 13.5677 7.54761 13.9958 8.01093 14C8.47425 14.0042 8.89522 13.5538 9.73716 12.6529Z" fill="white"/>
<defs>
<filter id="filter0_ii_356_899" x="0" y="0" width="20" height="21.3367" filterUnits="userSpaceOnUse" color-interpolation-filters="sRGB">
<feFlood flood-opacity="0" result="BackgroundImageFix"/>
<feBlend mode="normal" in="SourceGraphic" in2="BackgroundImageFix" result="shape"/>
<feColorMatrix in="SourceAlpha" type="matrix" values="0 0 0 0 0 0 0 0 0 0 0 0 0 0 0 0 0 0 127 0" result="hardAlpha"/>
<feOffset dy="1.33672"/>
<feGaussianBlur stdDeviation="0.66836"/>
<feComposite in2="hardAlpha" operator="arithmetic" k2="-1" k3="1"/>
<feColorMatrix type="matrix" values="0 0 0 0 1 0 0 0 0 1 0 0 0 0 1 0 0 0 0.15 0"/>
<feBlend mode="normal" in2="shape" result="effect1_innerShadow_356_899"/>
<feColorMatrix in="SourceAlpha" type="matrix" values="0 0 0 0 0 0 0 0 0 0 0 0 0 0 0 0 0 0 127 0" result="hardAlpha"/>
<feOffset/>
<feGaussianBlur stdDeviation="10.0254"/>
<feComposite in2="hardAlpha" operator="arithmetic" k2="-1" k3="1"/>
<feColorMatrix type="matrix" values="0 0 0 0 1 0 0 0 0 1 0 0 0 0 1 0 0 0 0.05 0"/>
<feBlend mode="normal" in2="effect1_innerShadow_356_899" result="effect2_innerShadow_356_899"/>
</filter>
</defs>
</svg>
