<svg width="720" height="282" viewBox="0 0 720 282" fill="none" xmlns="http://www.w3.org/2000/svg">
<g clip-path="url(#clip0_12_266)">
<rect width="801.016" height="321.332" transform="translate(0.174316 -20)" fill="#262626"/>
<path d="M0.174316 -19.9998H801.191V301.332H0.174316V-19.9998Z" fill="#262626"/>
<path opacity="0.2" d="M656.538 155.443L654.214 187.354L623.107 204.198L574.19 207.736L535.573 210.789L537.743 144.145L656.538 155.443Z" fill="black"/>
<path d="M469.404 148.196L542.693 105.359L608.673 143.923L535.384 186.759L469.404 148.196Z" fill="#1F1F1F"/>
<path d="M469.381 112.628L504.533 47.5693L570.667 86.2739L535.506 151.35L469.381 112.628Z" fill="#585858"/>
<path fill-rule="evenodd" clip-rule="evenodd" d="M504.808 60.2888L479.833 106.511C479.286 107.524 479.152 108.714 479.46 109.825C479.767 110.937 480.493 111.883 481.48 112.46L529.246 140.378C529.75 140.672 530.307 140.862 530.884 140.935C531.462 141.009 532.047 140.965 532.608 140.806C533.168 140.647 533.691 140.376 534.146 140.01C534.602 139.643 534.98 139.188 535.259 138.672L560.241 92.4364C560.788 91.4234 560.922 90.2337 560.614 89.1219C560.306 88.0101 559.581 87.0645 558.593 86.4872L510.82 58.5814C510.316 58.2872 509.759 58.0979 509.182 58.0246C508.605 57.9513 508.019 57.9955 507.459 58.1546C506.899 58.3136 506.376 58.5843 505.921 58.9508C505.466 59.3174 505.087 59.7723 504.808 60.2888Z" fill="#1F1F1F"/>
<path d="M483.208 106.321L508.184 60.0988C508.616 59.2936 509.287 58.6457 510.102 58.2459C509.124 57.8936 508.054 57.9058 507.083 58.2802C506.113 58.6547 505.306 59.3669 504.808 60.2891L479.833 106.512C479.286 107.524 479.152 108.714 479.46 109.826C479.767 110.937 480.493 111.883 481.48 112.46L529.246 140.379C529.865 140.741 530.562 140.943 531.276 140.969C531.989 140.994 532.699 140.842 533.341 140.525C533.092 140.435 532.851 140.322 532.622 140.188L484.855 112.27C483.868 111.692 483.143 110.747 482.835 109.635C482.527 108.524 482.661 107.334 483.208 106.321Z" fill="#131313"/>
<path d="M504.53 47.6248L542.546 25.5674L608.54 64.1082L570.675 86.262L504.53 47.6248Z" fill="#484848"/>
<path d="M515.099 50.4255C513.029 49.216 513.035 47.2524 515.109 46.0451C517.175 44.8432 520.519 44.8424 522.582 46.0466C524.65 47.2531 524.647 49.213 522.582 50.421C520.517 51.629 517.166 51.632 515.099 50.4255Z" fill="#2D2D2D"/>
<path d="M515.031 49.1642C512.961 47.9561 512.964 45.9948 515.037 44.7883L515.141 44.7277C517.205 43.5257 520.546 43.5272 522.607 44.7307C524.674 45.9372 524.676 47.8948 522.611 49.102L522.508 49.1627C520.444 50.3699 517.096 50.3707 515.031 49.1642Z" fill="#585858"/>
<path d="M570.665 86.2409L608.544 64.1016V170.883L570.665 193.022L534.28 209.974L530.065 182.067L535.369 151.333L570.665 86.2409Z" fill="#1C1C1C"/>
<path d="M554.5 73.0696C553.303 72.3716 553.305 71.2378 554.503 70.5406L566.122 63.7828C567.315 63.0886 569.245 63.0893 570.436 63.785L584.398 71.9351C585.592 72.6323 585.593 73.763 584.4 74.461L572.811 81.2393C571.618 81.9365 569.684 81.9373 568.491 81.24L554.5 73.0696Z" fill="#2D2D2D"/>
<path d="M554.577 71.3987C553.381 70.7007 553.383 69.5669 554.581 68.8697L566.199 62.1119C567.393 61.4177 569.322 61.4184 570.513 62.1142L584.475 70.2642C585.669 70.9614 585.671 72.0921 584.477 72.7901L572.889 79.5676C571.695 80.2656 569.762 80.2656 568.568 79.5691L554.577 71.3987Z" fill="#585858"/>
<path d="M469.381 112.614L535.381 151.208V210.67L469.381 172.094V112.614Z" fill="#303030"/>
<path d="M469.388 112.613L535.389 151.206V210.824L469.388 172.248V112.613Z" fill="#303030"/>
<path d="M475.004 141.659C475.004 139.801 476.293 139.049 477.882 139.979L489.807 146.955C490.662 147.455 491.355 148.671 491.355 149.67V177.052C491.355 178.051 490.661 178.457 489.806 177.956L476.553 170.211C475.698 169.711 475.004 168.495 475.004 167.495V141.659Z" fill="#1F1F1F"/>
<path d="M475.004 140.968C475.004 139.968 475.698 139.562 476.554 140.063L488.785 147.219C489.64 147.719 490.332 148.935 490.332 149.934V176.454C490.332 177.455 489.639 177.859 488.784 177.36L476.553 170.211C475.698 169.711 475.004 168.495 475.004 167.496V140.968Z" fill="#262626"/>
<path d="M521.749 157.542C521.749 155.808 522.954 155.107 524.437 155.977C525.916 156.845 527.115 158.948 527.115 160.677V191.248C527.115 192.98 525.914 193.681 524.432 192.816C522.951 191.95 521.749 189.844 521.749 188.112V157.542Z" fill="#131313"/>
<path d="M523.663 155.496C523.582 155.748 523.538 156.042 523.538 156.373V186.999C523.538 188.73 524.739 190.836 526.22 191.702C526.487 191.858 526.746 191.963 526.989 192.021C526.644 193.086 525.629 193.41 524.432 192.711C522.951 191.844 521.749 189.739 521.749 188.007V157.382C521.749 155.962 522.557 155.234 523.663 155.496Z" fill="#1F1F1F"/>
<path d="M478.538 134.532C480.771 135.837 482.582 134.779 482.582 132.168C482.582 129.557 480.771 126.382 478.538 125.077C476.304 123.771 474.494 124.829 474.494 127.44C474.494 130.051 476.304 133.226 478.538 134.532Z" fill="#1F1F1F"/>
<path d="M477.517 135.049C479.75 136.355 481.561 135.296 481.561 132.686C481.561 130.075 479.75 126.9 477.517 125.594C475.283 124.289 473.473 125.347 473.473 127.958C473.473 130.569 475.283 133.744 477.517 135.049Z" fill="#4A4A4A"/>
<path d="M488.756 140.739C490.99 142.044 492.801 140.986 492.801 138.375C492.801 135.764 490.99 132.589 488.756 131.284C486.523 129.978 484.712 131.037 484.712 133.647C484.712 136.258 486.523 139.433 488.756 140.739Z" fill="#1F1F1F"/>
<path d="M487.735 141.255C489.969 142.561 491.78 141.502 491.78 138.892C491.78 136.281 489.969 133.106 487.735 131.8C485.502 130.495 483.691 131.553 483.691 134.164C483.691 136.775 485.502 139.95 487.735 141.255Z" fill="#4A4A4A"/>
<path d="M535.387 151.403L607.126 109.473V168.462L535.387 210.393V151.403Z" fill="#1F1F1F"/>
<path d="M535.387 151.403L607.126 109.473V169.041L535.387 210.972V151.403Z" fill="#1C1C1C"/>
<path d="M601.927 121.478L568.051 141.279C567.317 141.707 566.723 142.75 566.723 143.607V183.259C566.723 184.117 567.317 184.464 568.051 184.035L601.927 164.235C602.661 163.807 603.255 162.764 603.255 161.907V122.255C603.255 121.397 602.661 121.05 601.927 121.478Z" fill="#252525"/>
<path d="M510.505 98.6461C510.326 98.9733 510.085 99.2611 509.795 99.4927C509.506 99.7243 509.173 99.895 508.817 99.995C508.461 100.095 508.09 100.122 507.723 100.075C507.357 100.027 507.004 99.9065 506.684 99.7192C505.336 98.9311 504.851 97.1615 505.605 95.7829C505.784 95.4557 506.025 95.1679 506.315 94.9363C506.605 94.7048 506.938 94.534 507.293 94.4342C507.649 94.3343 508.021 94.3073 508.387 94.3548C508.754 94.4022 509.107 94.5232 509.426 94.7105L511.876 96.1421L510.505 98.6461ZM511.74 99.3683C511.918 99.0411 512.159 98.7532 512.449 98.5216C512.739 98.2899 513.071 98.1191 513.427 98.0192C513.783 97.9192 514.155 97.8922 514.521 97.9396C514.888 97.987 515.241 98.1079 515.56 98.2952C516.908 99.0834 517.393 100.853 516.638 102.232L513.205 108.502C513.026 108.829 512.785 109.117 512.495 109.349C512.205 109.58 511.873 109.751 511.517 109.851C511.161 109.951 510.79 109.978 510.423 109.931C510.057 109.883 509.704 109.762 509.384 109.575C508.036 108.787 507.551 107.017 508.306 105.639L511.74 99.3683Z" fill="#E01E5A"/>
<path d="M519.702 90.7443C518.354 89.9562 517.869 88.1866 518.623 86.808C518.802 86.4809 519.043 86.1932 519.333 85.9617C519.623 85.7301 519.955 85.5595 520.311 85.4596C520.667 85.3597 521.039 85.3327 521.405 85.3801C521.771 85.4275 522.125 85.5484 522.444 85.7357C523.792 86.5238 524.277 88.2934 523.522 89.672L522.151 92.1759L519.702 90.7443ZM519.01 92.0062C520.358 92.7943 520.843 94.5639 520.088 95.9425C519.91 96.2696 519.668 96.5575 519.378 96.789C519.089 97.0206 518.756 97.1914 518.4 97.2912C518.044 97.3911 517.672 97.4181 517.306 97.3706C516.94 97.3232 516.587 97.2022 516.267 97.0148L510.134 93.4302C508.786 92.642 508.301 90.8724 509.056 89.4939C509.234 89.1668 509.476 88.8791 509.766 88.6475C510.056 88.416 510.388 88.2453 510.744 88.1454C511.1 88.0456 511.472 88.0186 511.838 88.066C512.204 88.1134 512.557 88.2342 512.877 88.4215L519.01 92.0062Z" fill="#36C5F0"/>
<path d="M527.472 100.259C527.651 99.9316 527.892 99.6438 528.182 99.4122C528.472 99.1806 528.805 99.0099 529.16 98.91C529.516 98.8102 529.888 98.7832 530.254 98.8307C530.621 98.8781 530.974 98.9991 531.293 99.1864C532.642 99.9738 533.127 101.743 532.372 103.122C532.193 103.449 531.952 103.737 531.662 103.968C531.373 104.2 531.04 104.371 530.684 104.471C530.328 104.57 529.957 104.598 529.59 104.55C529.224 104.503 528.871 104.382 528.551 104.195L526.102 102.764L527.472 100.259ZM526.239 99.5373C526.06 99.8645 525.819 100.152 525.529 100.384C525.239 100.615 524.907 100.786 524.551 100.886C524.195 100.986 523.823 101.013 523.457 100.965C523.091 100.918 522.737 100.797 522.418 100.61C521.07 99.8223 520.584 98.0527 521.34 96.6741L524.773 90.4036C524.952 90.0764 525.193 89.7885 525.483 89.5568C525.772 89.3252 526.105 89.1544 526.461 89.0544C526.817 88.9545 527.188 88.9274 527.555 88.9748C527.921 89.0222 528.274 89.1431 528.594 89.3305C529.942 90.1187 530.427 91.8883 529.672 93.2668L526.239 99.5373Z" fill="#2EB67D"/>
<path d="M518.283 108.161C519.632 108.949 520.117 110.719 519.362 112.097C519.184 112.424 518.942 112.712 518.652 112.944C518.363 113.175 518.03 113.346 517.674 113.446C517.318 113.546 516.946 113.573 516.58 113.526C516.214 113.478 515.861 113.357 515.541 113.17C514.193 112.382 513.708 110.612 514.463 109.234L515.834 106.73L518.283 108.161ZM518.974 106.899C517.626 106.112 517.141 104.342 517.896 102.964C518.075 102.637 518.316 102.349 518.606 102.117C518.896 101.886 519.228 101.715 519.584 101.615C519.939 101.515 520.311 101.488 520.678 101.535C521.044 101.583 521.397 101.703 521.716 101.891L527.85 105.476C529.198 106.264 529.683 108.033 528.929 109.412C528.75 109.739 528.509 110.026 528.219 110.258C527.929 110.49 527.596 110.66 527.241 110.76C526.885 110.86 526.513 110.887 526.147 110.84C525.78 110.793 525.427 110.672 525.108 110.485L518.974 106.899Z" fill="#ECB22E"/>
<path d="M446.848 176.285L555.657 239.882C558.522 241.556 558.522 244.27 555.657 245.945L506.33 274.775C503.465 276.45 498.821 276.45 495.957 274.775L387.147 211.179C384.282 209.504 384.282 206.79 387.147 205.116L436.474 176.285C439.339 174.611 443.983 174.611 446.848 176.285Z" fill="black" fill-opacity="0.1"/>
<path d="M428.886 173.254L537.696 236.85C540.56 238.525 540.56 241.239 537.696 242.913L488.368 271.744C485.504 273.418 480.86 273.418 477.995 271.744L369.185 208.147C366.321 206.473 366.321 203.759 369.185 202.084L418.513 173.254C421.377 171.579 426.022 171.579 428.886 173.254Z" fill="#262626"/>
<path d="M477.994 274.397L369.185 210.8C367.739 209.955 367.022 208.844 367.036 207.736L367.033 196.368L539.843 231.23L539.842 242.597C539.815 243.674 539.099 244.745 537.695 245.566L488.367 274.397C485.502 276.071 480.859 276.071 477.994 274.397Z" fill="#1F1F1F"/>
<path d="M428.886 164.423L537.696 228.019C540.56 229.694 540.56 232.408 537.696 234.082L488.368 262.913C485.504 264.587 480.86 264.587 477.995 262.913L369.185 199.316C366.321 197.642 366.321 194.928 369.185 193.253L418.513 164.423C421.377 162.748 426.022 162.748 428.886 164.423Z" fill="#303030"/>
<path d="M429.601 163.401L536.272 225.748C539.137 227.422 539.137 230.137 536.272 231.811L488.368 259.81C485.503 261.484 480.859 261.484 477.995 259.81L371.324 197.463C368.459 195.789 368.459 193.074 371.324 191.4L419.228 163.401C422.093 161.727 426.737 161.727 429.601 163.401Z" fill="#484848"/>
<path d="M429.601 161.886L536.272 224.232C539.137 225.906 539.137 228.621 536.272 230.295L488.368 258.294C485.503 259.968 480.859 259.968 477.995 258.294L371.324 195.947C368.459 194.273 368.459 191.559 371.324 189.885L419.228 161.886C422.093 160.211 426.737 160.211 429.601 161.886Z" fill="#585858"/>
<path d="M440.677 196.138L448.362 200.63C449.794 201.467 449.794 202.824 448.362 203.661L440.2 208.431C438.768 209.268 436.446 209.268 435.014 208.431L427.329 203.94C425.897 203.103 425.897 201.745 427.329 200.908L435.49 196.138C436.923 195.301 439.245 195.301 440.677 196.138Z" fill="#484848"/>
<path d="M455.581 204.848L463.708 209.599C465.141 210.436 465.141 211.793 463.708 212.63L455.547 217.4C454.115 218.237 451.793 218.237 450.361 217.4L442.233 212.65C440.801 211.813 440.801 210.455 442.233 209.618L450.395 204.848C451.827 204.011 454.149 204.011 455.581 204.848Z" fill="#484848"/>
<path d="M425.102 187.038L433.448 191.916C434.88 192.753 434.88 194.11 433.448 194.947L425.287 199.717C423.854 200.554 421.532 200.554 420.1 199.717L411.754 194.839C410.322 194.002 410.322 192.645 411.754 191.808L419.915 187.038C421.348 186.201 423.67 186.201 425.102 187.038Z" fill="#484848"/>
<path d="M409.301 177.8L417.582 182.641C419.015 183.478 419.015 184.835 417.582 185.672L409.421 190.442C407.989 191.279 405.667 191.279 404.235 190.442L395.953 185.601C394.521 184.764 394.521 183.407 395.953 182.57L404.114 177.8C405.546 176.963 407.869 176.963 409.301 177.8Z" fill="#484848"/>
<path d="M470.905 213.808L479.148 218.626C480.581 219.463 480.581 220.82 479.148 221.657L470.987 226.427C469.555 227.264 467.233 227.264 465.801 226.427L457.557 221.609C456.125 220.772 456.125 219.415 457.557 218.578L465.718 213.808C467.151 212.971 469.473 212.971 470.905 213.808Z" fill="#484848"/>
<path d="M487.042 223.236L511.575 237.575C513.008 238.412 513.008 239.769 511.575 240.607L503.414 245.376C501.982 246.214 499.66 246.214 498.228 245.376L473.694 231.037C472.262 230.2 472.262 228.843 473.694 228.006L481.855 223.236C483.287 222.399 485.609 222.399 487.042 223.236Z" fill="#484848"/>
<path d="M409.82 195.599L418.232 200.516C419.664 201.353 419.664 202.71 418.232 203.547L410.071 208.317C408.639 209.154 406.317 209.154 404.885 208.317L396.472 203.4C395.04 202.563 395.04 201.206 396.472 200.369L404.633 195.599C406.065 194.761 408.387 194.761 409.82 195.599Z" fill="#484848"/>
<path d="M393.981 186.342L402.15 191.117C403.583 191.954 403.583 193.311 402.15 194.149L393.989 198.918C392.557 199.756 390.235 199.756 388.803 198.918L380.633 194.144C379.201 193.306 379.201 191.949 380.633 191.112L388.794 186.342C390.227 185.505 392.549 185.505 393.981 186.342Z" fill="#484848"/>
<path d="M472.526 232.25L480.827 237.101C482.259 237.939 482.259 239.296 480.827 240.133L472.666 244.903C471.234 245.74 468.912 245.74 467.479 244.903L459.178 240.051C457.746 239.214 457.746 237.857 459.178 237.02L467.339 232.25C468.772 231.413 471.094 231.413 472.526 232.25Z" fill="#484848"/>
<path d="M488.344 241.493L496.483 246.25C497.916 247.087 497.916 248.444 496.483 249.281L488.322 254.051C486.89 254.888 484.568 254.888 483.136 254.051L474.997 249.294C473.564 248.457 473.564 247.1 474.997 246.263L483.158 241.493C484.59 240.656 486.912 240.656 488.344 241.493Z" fill="#484848"/>
<path d="M425.299 204.643L464.892 227.784C466.324 228.621 466.324 229.978 464.892 230.816L456.731 235.585C455.299 236.423 452.977 236.423 451.544 235.585L411.951 212.444C410.519 211.607 410.519 210.25 411.951 209.413L420.112 204.643C421.545 203.806 423.867 203.806 425.299 204.643Z" fill="#484848"/>
<path d="M423.712 168.706L448.176 183.005C449.608 183.842 449.608 185.199 448.176 186.036L440.015 190.806C438.583 191.643 436.261 191.643 434.828 190.806L410.365 176.508C408.932 175.671 408.932 174.313 410.365 173.476L418.526 168.706C419.958 167.869 422.28 167.869 423.712 168.706Z" fill="#484848"/>
<path d="M487.584 205.991L495.269 210.482C496.701 211.319 496.701 212.677 495.269 213.514L487.108 218.284C485.676 219.121 483.354 219.121 481.921 218.284L474.237 213.792C472.805 212.955 472.805 211.598 474.237 210.761L482.398 205.991C483.83 205.154 486.152 205.154 487.584 205.991Z" fill="#484848"/>
<path d="M502.489 214.7L510.616 219.45C512.048 220.287 512.048 221.644 510.616 222.482L502.455 227.251C501.023 228.089 498.701 228.089 497.269 227.251L489.141 222.501C487.709 221.664 487.709 220.307 489.141 219.47L497.302 214.7C498.734 213.863 501.057 213.863 502.489 214.7Z" fill="#484848"/>
<path d="M472.017 196.89L480.363 201.767C481.795 202.605 481.795 203.962 480.363 204.799L472.202 209.569C470.77 210.406 468.448 210.406 467.015 209.569L458.67 204.691C457.237 203.854 457.237 202.497 458.67 201.659L466.831 196.89C468.263 196.052 470.585 196.052 472.017 196.89Z" fill="#484848"/>
<path d="M456.216 187.653L464.498 192.493C465.93 193.33 465.93 194.687 464.498 195.525L456.336 200.294C454.904 201.132 452.582 201.132 451.15 200.294L442.868 195.454C441.436 194.617 441.436 193.26 442.868 192.423L451.029 187.653C452.462 186.816 454.784 186.816 456.216 187.653Z" fill="#484848"/>
<path d="M517.82 223.66L526.064 228.478C527.496 229.316 527.496 230.673 526.064 231.51L517.903 236.28C516.47 237.117 514.148 237.117 512.716 236.28L504.473 231.462C503.04 230.625 503.04 229.267 504.473 228.43L512.634 223.66C514.066 222.823 516.388 222.823 517.82 223.66Z" fill="#484848"/>
<path d="M440.677 194.623L448.362 199.114C449.794 199.951 449.794 201.308 448.362 202.146L440.2 206.916C438.768 207.753 436.446 207.753 435.014 206.916L427.329 202.424C425.897 201.587 425.897 200.23 427.329 199.393L435.49 194.623C436.923 193.786 439.245 193.786 440.677 194.623Z" fill="#696969"/>
<path d="M455.581 203.333L463.708 208.083C465.141 208.92 465.141 210.277 463.708 211.114L455.547 215.884C454.115 216.721 451.793 216.721 450.361 215.884L442.233 211.134C440.801 210.297 440.801 208.94 442.233 208.103L450.395 203.333C451.827 202.496 454.149 202.496 455.581 203.333Z" fill="#696969"/>
<path d="M425.102 185.522L433.448 190.4C434.88 191.237 434.88 192.595 433.448 193.432L425.287 198.202C423.854 199.039 421.532 199.039 420.1 198.202L411.754 193.324C410.322 192.487 410.322 191.129 411.754 190.292L419.915 185.522C421.348 184.685 423.67 184.685 425.102 185.522Z" fill="#696969"/>
<path d="M409.301 176.284L417.582 181.125C419.015 181.962 419.015 183.319 417.582 184.156L409.421 188.926C407.989 189.763 405.667 189.763 404.235 188.926L395.953 184.086C394.521 183.249 394.521 181.892 395.953 181.054L404.114 176.284C405.546 175.447 407.869 175.447 409.301 176.284Z" fill="#696969"/>
<path d="M470.905 212.292L479.148 217.11C480.581 217.947 480.581 219.305 479.148 220.142L470.987 224.912C469.555 225.749 467.233 225.749 465.801 224.912L457.557 220.094C456.125 219.256 456.125 217.899 457.557 217.062L465.718 212.292C467.151 211.455 469.473 211.455 470.905 212.292Z" fill="#696969"/>
<path d="M487.042 221.72L511.575 236.059C513.008 236.897 513.008 238.254 511.575 239.091L503.414 243.861C501.982 244.698 499.66 244.698 498.228 243.861L473.694 229.521C472.262 228.684 472.262 227.327 473.694 226.49L481.855 221.72C483.287 220.883 485.609 220.883 487.042 221.72Z" fill="#696969"/>
<path d="M409.82 194.083L418.232 199C419.664 199.837 419.664 201.194 418.232 202.031L410.071 206.801C408.639 207.638 406.317 207.638 404.885 206.801L396.472 201.884C395.04 201.047 395.04 199.69 396.472 198.853L404.633 194.083C406.065 193.246 408.387 193.246 409.82 194.083Z" fill="#696969"/>
<path d="M393.981 184.827L402.15 189.601C403.583 190.439 403.583 191.796 402.15 192.633L393.989 197.403C392.557 198.24 390.235 198.24 388.803 197.403L380.633 192.628C379.201 191.791 379.201 190.434 380.633 189.597L388.794 184.827C390.227 183.989 392.549 183.989 393.981 184.827Z" fill="#696969"/>
<path d="M472.526 230.734L480.827 235.586C482.259 236.423 482.259 237.78 480.827 238.617L472.666 243.387C471.234 244.224 468.912 244.224 467.479 243.387L459.178 238.535C457.746 237.698 457.746 236.341 459.178 235.504L467.339 230.734C468.772 229.897 471.094 229.897 472.526 230.734Z" fill="#696969"/>
<path d="M488.344 239.977L496.483 244.734C497.916 245.571 497.916 246.929 496.483 247.766L488.322 252.536C486.89 253.373 484.568 253.373 483.136 252.536L474.997 247.779C473.564 246.941 473.564 245.584 474.997 244.747L483.158 239.977C484.59 239.14 486.912 239.14 488.344 239.977Z" fill="#696969"/>
<path d="M425.299 203.127L464.892 226.268C466.324 227.106 466.324 228.463 464.892 229.3L456.731 234.07C455.299 234.907 452.977 234.907 451.544 234.07L411.951 210.929C410.519 210.092 410.519 208.734 411.951 207.897L420.112 203.127C421.545 202.29 423.867 202.29 425.299 203.127Z" fill="#696969"/>
<path d="M423.712 167.19L448.176 181.488C449.608 182.325 449.608 183.683 448.176 184.52L440.015 189.29C438.583 190.127 436.261 190.127 434.828 189.29L410.365 174.991C408.932 174.154 408.932 172.797 410.365 171.96L418.526 167.19C419.958 166.353 422.28 166.353 423.712 167.19Z" fill="#696969"/>
<path d="M487.584 204.475L495.269 208.967C496.701 209.804 496.701 211.161 495.269 211.998L487.108 216.768C485.676 217.605 483.354 217.605 481.921 216.768L474.237 212.277C472.805 211.44 472.805 210.082 474.237 209.245L482.398 204.475C483.83 203.638 486.152 203.638 487.584 204.475Z" fill="#696969"/>
<path d="M502.489 213.185L510.616 217.935C512.048 218.773 512.048 220.13 510.616 220.967L502.455 225.737C501.023 226.574 498.701 226.574 497.269 225.737L489.141 220.987C487.709 220.149 487.709 218.792 489.141 217.955L497.302 213.185C498.734 212.348 501.057 212.348 502.489 213.185Z" fill="#696969"/>
<path d="M472.017 195.374L480.363 200.252C481.795 201.089 481.795 202.446 480.363 203.283L472.202 208.053C470.77 208.89 468.448 208.89 467.015 208.053L458.67 203.175C457.237 202.338 457.237 200.981 458.67 200.144L466.831 195.374C468.263 194.537 470.585 194.537 472.017 195.374Z" fill="#696969"/>
<path d="M456.216 186.137L464.498 190.977C465.93 191.815 465.93 193.172 464.498 194.009L456.336 198.779C454.904 199.616 452.582 199.616 451.15 198.779L442.868 193.938C441.436 193.101 441.436 191.744 442.868 190.907L451.029 186.137C452.462 185.3 454.784 185.3 456.216 186.137Z" fill="#696969"/>
<path d="M517.82 222.145L526.064 226.963C527.496 227.8 527.496 229.157 526.064 229.994L517.903 234.764C516.47 235.601 514.148 235.601 512.716 234.764L504.473 229.946C503.04 229.109 503.04 227.752 504.473 226.915L512.634 222.145C514.066 221.308 516.388 221.308 517.82 222.145Z" fill="#696969"/>
</g>
<defs>
<clipPath id="clip0_12_266">
<rect width="801.016" height="321.332" fill="white" transform="translate(0.174316 -20)"/>
</clipPath>
</defs>
</svg>
