<svg width="120" height="49" viewBox="0 0 120 49" fill="none" xmlns="http://www.w3.org/2000/svg">
<path d="M0 0L9.68493 3.44337V37.8974L23.3267 29.9385L16.6384 26.7671L12.419 16.1531L33.9132 23.7848V34.8801L9.69045 49L0 43.5522V0ZM48.4512 39.2016V9.77992H56.7339C59.2513 9.78004 61.2476 10.4023 62.7228 11.647C64.1978 12.8917 64.9355 14.5127 64.9356 16.5096C64.9356 18.1783 64.4889 19.6283 63.5957 20.8593C62.7025 22.0903 61.4707 22.9656 59.9009 23.4854V23.5673C61.8633 23.7999 63.4333 24.5487 64.6108 25.814C65.7882 27.0792 66.3769 28.7239 66.3769 30.7484C66.3769 33.2651 65.4837 35.3031 63.6972 36.8625C61.9108 38.4218 59.6573 39.2014 56.9371 39.2014L48.4512 39.2016ZM51.8619 12.8987V22.3982H55.3538C57.2214 22.3982 58.6897 21.9431 59.7589 21.0336C60.8281 20.1241 61.3628 18.8418 61.3628 17.1866C61.3628 14.328 59.5017 12.8987 55.7799 12.8987H51.8619ZM51.8619 25.4961V36.0829H56.4905C58.4936 36.0829 60.0465 35.6042 61.1496 34.6467C62.2526 33.6893 62.8041 32.3762 62.8041 30.7073C62.8041 27.2331 60.4627 25.4961 55.7799 25.4961H51.8619ZM72.4245 13.5202C71.8291 13.5202 71.3214 13.3151 70.902 12.9047C70.4824 12.4944 70.2726 11.9746 70.2726 11.3454C70.2726 10.7163 70.4824 10.193 70.902 9.77591C71.3214 9.35879 71.8291 9.1501 72.4245 9.1501C73.0335 9.1501 73.5512 9.35879 73.9775 9.77591C74.4038 10.193 74.6171 10.7163 74.6171 11.3454C74.6171 11.9473 74.4038 12.4602 73.9775 12.8842C73.5511 13.3081 73.0335 13.5202 72.4245 13.5202ZM74.0485 39.2016H70.7193V18.3524H74.0485V39.2016ZM96.6691 39.2016H93.3396V27.3731C93.3396 22.9141 91.8533 20.6845 88.6322 20.6845C86.9676 20.6845 85.5905 21.3171 84.501 22.5823C83.4115 23.8477 82.8668 25.4445 82.8668 27.3731V39.2016H79.5374V18.3525H82.8668V21.7688H82.948C84.518 19.1153 86.7552 17.8532 89.6448 17.8532C91.9186 17.8532 93.6577 18.5952 94.8621 20.0793C96.0667 21.5634 96.6689 23.7073 96.6689 26.5114L96.6691 39.2016ZM120 37.4256C120 45.1399 116.346 48.9971 109.037 48.9971C106.466 48.9971 104.346 48.5344 102.425 47.5496L103.298 44.6646C103.298 44.6646 105.555 46.1805 108.997 46.1805C114.113 46.1805 116.671 43.4806 116.671 37.9819V35.7073H116.589C115.006 38.3881 112.776 39.694 109.595 39.694C107.01 39.694 104.929 38.9069 103.353 37.0399C101.776 35.1727 100.988 32.6663 100.988 29.5204C100.988 25.9504 101.837 23.1122 103.535 21.0058C105.234 18.8993 107.558 17.8462 110.509 17.8462C113.31 17.8462 115.236 18.9814 116.589 21.252H116.671V18.3525H120V37.4256ZM116.671 29.7021V26.7716C116.671 25.1027 116.112 23.6735 114.996 22.4834C113.879 21.2934 112.585 20.6984 110.921 20.6984C108.863 20.6984 107.253 21.4542 106.089 22.9656C104.925 24.477 104.343 26.5937 104.343 29.3156C104.343 31.6545 104.901 33.3577 106.018 34.7596C107.134 36.1618 108.613 36.8627 110.454 36.8627C112.321 36.8627 113.744 36.1925 114.915 34.852C116.085 33.5115 116.671 31.7949 116.671 29.7023L116.671 29.7021Z" fill="#BEE4FE"/>
</svg>
