<svg width="150" height="46" viewBox="0 0 150 46" fill="none" xmlns="http://www.w3.org/2000/svg">
<path d="M49.8762 25.0576V9.35083H51.3779C52.6002 9.35083 53.613 10.3563 53.613 11.5699V18.5738C56.0576 16.4241 58.118 15.5573 60.8769 15.5226C66.1503 15.4186 70.7252 19.3019 71.1792 24.5375C71.703 30.7786 67.1281 35.4594 61.1563 35.4594C54.6257 35.4248 49.8762 31.4027 49.8762 25.0576ZM53.578 26.3058C53.9622 29.5651 57.0703 32.2349 60.388 32.3042C64.6835 32.3736 67.617 29.5997 67.617 25.4737C67.617 21.3476 64.7184 18.6431 60.5626 18.6431C56.0925 18.6431 53.0542 21.833 53.578 26.3058Z" fill="#202020"/>
<path d="M77.4304 15.8693V18.6778C79.8051 16.0774 81.2021 15.3839 83.961 15.3839C84.7642 15.3839 85.5674 15.4533 86.3706 15.5919V19.3019C85.5325 19.0592 84.6594 18.9552 83.7864 18.9552C81.7958 18.9552 80.1195 19.614 78.8622 20.8275C77.7796 21.9024 77.4653 22.7345 77.4653 24.4335V34.8007H73.554V15.8693H77.4304Z" fill="#202020"/>
<path d="M87.2786 22.145C87.4881 20.3073 87.8373 19.3018 88.6406 18.3656C90.247 16.424 93.1107 15.4185 97.1967 15.4185C100.444 15.4185 102.784 15.9039 104.426 16.9787C105.788 17.8456 106.346 19.1631 106.346 21.4515V29.8423C106.346 31.68 106.835 32.3388 108.162 32.3041C108.442 32.3041 108.756 32.2694 109.036 32.2347V34.7659C108.372 34.9739 107.674 35.0779 107.01 35.0779C104.565 35.0779 103.448 34.3498 102.68 32.2347C100.27 34.4191 97.7903 35.3553 94.2282 35.3553C89.4787 35.3553 86.5452 33.2056 86.5452 29.7036C86.5103 27.7273 87.6976 25.8896 89.5485 25.0922C90.9804 24.468 91.8535 24.2947 95.9744 23.8786C99.5016 23.5319 100.095 23.4625 101.108 23.1505C102.191 22.8038 102.68 22.2143 102.68 21.2782C102.68 19.2325 100.968 18.331 97.3713 18.331C93.9838 18.331 92.2027 18.9898 91.5042 20.7234C91.155 21.5902 90.3169 22.1796 89.3739 22.1796L87.2786 22.145ZM102.68 25.3695C100.2 26.0977 97.6856 26.5484 95.1013 26.7565C91.609 27.1032 90.5264 27.762 90.5264 29.4609C90.5264 31.3679 92.1328 32.3734 95.2759 32.3734C97.8602 32.3734 99.8508 31.7147 101.248 30.4664C102.365 29.4263 102.645 28.6981 102.645 26.8951V25.3695H102.68Z" fill="#202020"/>
<path d="M118.43 34.766H117.417C116.544 34.766 115.741 34.2806 115.357 33.4832L106.975 15.8694H109.315C110.677 15.8694 111.899 16.6322 112.458 17.8804L118.046 30.536L123.843 17.8111C124.402 16.5975 125.624 15.8347 126.986 15.8347H129.116L120.525 33.4832C120.106 34.3153 119.303 34.8007 118.43 34.766Z" fill="#202020"/>
<path d="M131.736 26.4445C132.12 30.0852 135.018 32.3389 139.279 32.3389C141.723 32.3389 143.539 31.6108 144.657 30.1892C145.321 29.357 146.333 28.9063 147.381 28.9063H149.651C147.695 33.171 144.168 35.2861 138.93 35.2861C132.399 35.2861 127.964 31.3334 127.964 25.439C127.964 19.5446 132.469 15.3839 138.999 15.3839C143.714 15.3839 147.521 17.499 149.057 21.0356C149.721 22.6652 150 24.0868 150 26.4445H131.736ZM146.054 23.4973C145.181 20.1688 142.562 18.2964 138.965 18.2964C135.368 18.2964 132.748 20.1688 131.84 23.4973H146.054Z" fill="#202020"/>
<path d="M37.8564 11.2232L38.939 8.58807C38.939 8.58807 37.577 7.13181 35.9007 5.46752C34.2244 3.80322 30.6972 4.77406 30.6972 4.77406L26.6811 0.266602H12.5722L8.52118 4.80873C8.52118 4.80873 4.99397 3.8379 3.31767 5.50219C1.64137 7.16648 0.279383 8.62274 0.279383 8.62274L1.36199 11.2579L0 15.1412C0 15.1412 4.05105 30.3279 4.50505 32.2002C5.44797 35.8409 6.07658 37.2624 8.73072 39.1348C11.3849 41.0071 16.1693 44.197 16.9725 44.6824C17.7408 45.1678 18.7536 46 19.6267 46C20.4997 46 21.4776 45.1678 22.2808 44.6824C23.0491 44.197 27.8685 40.9724 30.5226 39.1348C33.1767 37.2971 33.8053 35.8755 34.7483 32.2002C35.2372 30.3279 39.2533 15.1412 39.2533 15.1412L37.8564 11.2232Z" fill="#202020"/>
<path d="M29.5795 7.68658C29.5795 7.68658 34.7481 13.893 34.7481 15.2452C34.7481 16.5975 34.0846 16.9095 33.421 17.603C32.7575 18.2964 29.8938 21.313 29.5446 21.6944C29.1605 22.0758 28.4271 22.6652 28.8462 23.7401C29.3001 24.7803 29.9637 26.1325 29.2303 27.5194C28.4969 28.8716 27.2397 29.8078 26.4365 29.6344C25.6332 29.4958 23.7125 28.4902 23.014 28.0395C22.3156 27.5888 20.1154 25.7858 20.1154 25.0923C20.1154 24.3989 22.4203 23.1506 22.8394 22.8733C23.2585 22.5959 25.1793 21.4863 25.2142 21.0703C25.2491 20.6542 25.2491 20.5155 24.6554 19.4406C24.0966 18.3658 23.049 16.9442 23.2236 16.008C23.3982 15.0719 25.0396 14.5865 26.2269 14.1357C27.4143 13.685 29.6843 12.8528 29.9637 12.7141C30.2431 12.5754 30.1732 12.4714 29.3001 12.3674C28.4271 12.2981 26.0174 11.9513 24.8999 12.2634C23.7823 12.5754 21.9314 13.0262 21.7568 13.2689C21.6171 13.5116 21.4774 13.5116 21.6171 14.3784C21.7568 15.2106 22.595 19.302 22.6648 20.0301C22.7346 20.7582 22.9093 21.2436 22.106 21.417C21.3377 21.5904 20.0107 21.9024 19.5567 21.9024C19.1027 21.9024 17.7756 21.5904 17.0073 21.417C16.239 21.2436 16.3787 20.7582 16.4485 20.0301C16.5184 19.302 17.3216 15.2452 17.4962 14.3784C17.6359 13.5463 17.5311 13.5116 17.3565 13.2689C17.2168 13.0262 15.331 12.5754 14.2135 12.2634C13.0959 11.9513 10.6863 12.2634 9.81319 12.3674C8.94012 12.4368 8.87027 12.5754 9.14966 12.7141C9.42904 12.8528 11.699 13.685 12.8864 14.1357C14.0738 14.5865 15.7152 15.0719 15.8898 16.008C16.0644 16.9442 15.0516 18.3658 14.4579 19.4406C13.8992 20.5155 13.8642 20.6195 13.8992 21.0703C13.9341 21.4863 15.8548 22.5959 16.2739 22.8733C16.693 23.1506 18.9979 24.3989 18.9979 25.0923C18.9979 25.7858 16.7978 27.5888 16.0993 28.0395C15.4008 28.4902 13.515 29.4611 12.6769 29.6344C11.8736 29.7731 10.6164 28.8716 9.88304 27.5194C9.14966 26.1672 9.81319 24.8149 10.2672 23.7401C10.7212 22.6999 9.95288 22.1105 9.56873 21.6944C9.18458 21.313 6.35583 18.2964 5.69229 17.603C5.02876 16.9095 4.40015 16.5628 4.40015 15.2452C4.40015 13.9277 9.56873 7.68658 9.56873 7.68658C9.56873 7.68658 13.9341 8.51873 14.5278 8.51873C15.1215 8.51873 16.3787 8.03331 17.5661 7.65191C18.7534 7.27051 19.5217 7.27051 19.5217 7.27051C19.5217 7.27051 20.29 7.27051 21.4774 7.65191C22.6648 8.03331 23.922 8.51873 24.5157 8.51873C25.1094 8.51873 29.5795 7.68658 29.5795 7.68658ZM25.7031 31.4374C26.0174 31.6455 25.8428 32.0269 25.5285 32.2002C25.2491 32.4083 21.3028 35.4248 20.9536 35.7715C20.5694 36.1183 20.0107 36.6383 19.6265 36.6383C19.2424 36.6383 18.6836 36.0836 18.2994 35.7715C17.9153 35.4248 14.0039 32.4083 13.7246 32.2002C13.4452 31.9922 13.2356 31.6108 13.5499 31.4374C13.8642 31.2294 14.877 30.744 16.239 30.0158C17.6359 29.2877 19.3471 28.6983 19.6265 28.6983C19.9059 28.6983 21.6171 29.2877 23.014 30.0158C24.376 30.744 25.3888 31.2641 25.7031 31.4374Z" fill="white"/>
<path d="M30.6972 4.80873L26.681 0.266602H12.5722L8.52113 4.80873C8.52113 4.80873 4.99392 3.8379 3.31763 5.50219C3.31763 5.50219 8.03221 5.08612 9.63867 7.68657C9.63867 7.68657 14.004 8.51872 14.5977 8.51872C15.1914 8.51872 16.4486 8.0333 17.636 7.6519C18.8234 7.2705 19.5917 7.2705 19.5917 7.2705C19.5917 7.2705 20.36 7.2705 21.5474 7.6519C22.7347 8.0333 23.992 8.51872 24.5857 8.51872C25.1793 8.51872 29.5447 7.68657 29.5447 7.68657C31.1512 5.08612 35.8657 5.50219 35.8657 5.50219C34.2244 3.8379 30.6972 4.80873 30.6972 4.80873Z" fill="#202020"/>
</svg>
