<svg width="130" height="51" viewBox="0 0 130 51" fill="none" xmlns="http://www.w3.org/2000/svg">
<path d="M111.521 37.3383V13.8398H115.219V29.3479L123.039 20.3233H127.522L120.487 28.0574L127.588 37.3383H123.17L117.419 29.3637L115.219 29.3479V37.3383H111.521Z" fill="#032550"/>
<path d="M100.308 37.7333C94.8109 37.7333 91.8333 33.8168 91.8333 28.8144C91.8333 23.779 94.8109 19.8955 100.308 19.8955C105.838 19.8955 108.783 23.779 108.783 28.8144C108.783 33.8168 105.838 37.7333 100.308 37.7333ZM95.6944 28.8144C95.6944 32.6979 97.7886 34.6396 100.308 34.6396C102.86 34.6396 104.922 32.6979 104.922 28.8144C104.922 24.9309 102.86 22.9563 100.308 22.9563C97.7886 22.9563 95.6944 24.9309 95.6944 28.8144Z" fill="#032550"/>
<path d="M81.5425 37.3384V23.022L84.6509 20.3234H91.2607V23.4828H85.24V37.3384H81.5425Z" fill="#032550"/>
<path d="M67.4042 37.7729C60.3566 37.7729 56.1545 32.6321 56.1545 25.622C56.1545 18.5461 60.5066 13.2804 67.5417 13.2804C73.0391 13.2804 77.0637 16.1108 78.0127 21.3765H73.7916C73.1698 18.3815 70.6831 16.7031 67.5417 16.7031C62.4698 16.7031 60.2448 21.1132 60.2448 25.622C60.2448 30.1308 62.4698 34.508 67.5417 34.508C72.3846 34.508 74.5115 30.9864 74.6751 28.0574H67.3781V24.6497H78.4054L78.3873 26.4314C78.3873 33.0519 75.7015 37.7729 67.4042 37.7729Z" fill="#032550"/>
<path d="M20.7684 32.0493L36.6788 20.2363C37.4588 19.6572 38.5737 19.8831 38.9453 20.7826C40.9015 25.5266 40.0276 31.2278 36.1357 35.1422C32.2438 39.0566 26.8287 39.915 21.8791 37.9598L16.4722 40.4777C24.2274 45.8091 33.6446 44.4906 39.5293 38.5677C44.1971 33.8729 45.6427 27.4736 44.291 21.7027L44.3032 21.715C42.3431 13.2373 44.7851 9.84869 49.7877 2.91948C49.9062 2.75518 50.0246 2.59089 50.1431 2.42249L43.56 9.04364V9.0231L20.7643 32.0534" fill="#032550"/>
<path d="M17.485 34.9204C11.9188 29.5725 12.8785 21.2961 17.6279 16.5233C21.14 12.9909 26.894 11.5492 31.9172 13.6687L37.3118 11.1631C36.3398 10.4567 35.0943 9.69679 33.6649 9.16282C27.2044 6.4889 19.4698 7.81969 14.218 13.0977C9.16633 18.1786 7.57774 25.9909 10.3057 32.6573C12.3435 37.6395 9.00298 41.1637 5.63795 44.7207C4.44548 45.9817 3.24893 47.2426 2.28516 48.5776L17.4809 34.9245" fill="#032550"/>
</svg>
