<svg width="200" height="43" viewBox="0 0 200 43" fill="none" xmlns="http://www.w3.org/2000/svg">
<path d="M5.06959 0.071167L17.3959 11.3339V11.3313V0.0971553H19.7953V11.3843L32.1768 0.071167V12.9123H37.2603V31.4345H32.1925V42.869L19.7953 32.0675V42.993H17.3959V32.2456L5.08356 43.0001V31.4345H0V12.9123H5.06959V0.071167ZM15.587 15.2628H2.39944V29.084H5.08055V24.7243L15.587 15.2628ZM7.48288 25.7672V37.7551L17.3959 29.0964V16.838L7.48288 25.7672ZM19.8644 28.9819V16.8265L29.7803 25.7562V31.4345H29.793V37.6327L19.8644 28.9819ZM32.1925 29.084H34.8608V15.2628H21.7715L32.1925 24.6264V29.084ZM29.7774 12.9123V5.4778L21.6407 12.9123H29.7774ZM15.6056 12.9123H7.46904V5.4778L15.6056 12.9123Z" fill="#41B4D2"/>
<path d="M96.5425 12.6303H98.066V15.7437H96.0939C94.5484 15.7437 93.3958 16.1124 92.6319 16.852C91.8724 17.5892 91.4905 18.8018 91.4905 20.4873V30.6963H88.3771V12.7013H91.4905V15.5728C91.4905 15.7349 91.5727 15.8149 91.7325 15.8149C91.8236 15.8149 91.8924 15.7926 91.9413 15.746C91.9901 15.6993 92.0323 15.6083 92.0812 15.4683C92.6808 13.5785 94.1709 12.6324 96.5447 12.6324H96.5425V12.6303ZM117.253 16.4877C118.07 17.929 118.481 19.6657 118.481 21.6955C118.481 23.7252 118.072 25.4619 117.253 26.9032C116.433 28.3445 115.372 29.4237 114.068 30.1389C112.765 30.854 111.363 31.2115 109.864 31.2115C106.911 31.2115 104.835 30.0345 103.635 27.6805C103.544 27.4962 103.427 27.4028 103.289 27.4028C103.151 27.4028 103.08 27.4717 103.08 27.6116V37.2676H99.9668V12.699H103.08V15.7793C103.08 15.9169 103.149 15.9881 103.289 15.9881C103.429 15.9881 103.542 15.8969 103.635 15.7104C104.835 13.3564 106.911 12.1794 109.864 12.1794C111.363 12.1794 112.765 12.5369 114.068 13.2521C115.372 13.9672 116.431 15.0464 117.253 16.4877ZM115.37 21.6955C115.37 19.5724 114.799 17.9179 113.657 16.7298C112.516 15.5417 111.013 14.9487 109.14 14.9487C107.268 14.9487 105.765 15.5439 104.624 16.7298C103.48 17.9179 103.063 19.5746 103.063 21.6955C103.063 23.8164 103.482 25.4731 104.624 26.6611C105.765 27.8515 107.271 28.4422 109.14 28.4422C111.01 28.4422 112.516 27.8471 113.657 26.6611C114.799 25.4752 115.37 23.8164 115.37 21.6955ZM64.8177 16.5144C65.635 17.9556 66.0458 19.6923 66.0458 21.7221C66.0458 23.752 65.6372 25.4886 64.8177 26.9298C63.9983 28.3712 62.9369 29.4505 61.6334 30.1655C60.3298 30.8806 58.9286 31.2382 57.4295 31.2382C54.4761 31.2382 52.3997 30.0612 51.2005 27.7071C51.1095 27.5228 50.9919 27.4296 50.854 27.4296C50.7164 27.4296 50.6454 27.4983 50.6454 27.6383V37.2943H47.5342V12.7258H50.6476V15.8059C50.6476 15.9437 50.7164 16.0147 50.8564 16.0147C50.9962 16.0147 51.1095 15.9237 51.2028 15.737C52.402 13.383 54.4783 12.206 57.4319 12.206C58.9308 12.206 60.332 12.5636 61.6355 13.2787C62.9391 13.9938 63.9984 15.0731 64.8201 16.5144H64.8177ZM62.9324 21.7221C62.9324 19.599 62.3617 17.9446 61.2203 16.7565C60.0788 15.5705 58.5732 14.9753 56.7034 14.9753C54.8336 14.9753 53.328 15.5705 52.1865 16.7565C51.0451 17.9468 50.6254 19.6013 50.6254 21.7221C50.6254 23.843 51.0451 25.4997 52.1865 26.6878C53.328 27.8782 54.8313 28.4689 56.7034 28.4689C58.5754 28.4689 60.0788 27.8737 61.2203 26.6878C62.3617 25.5019 62.9324 23.843 62.9324 21.7221ZM82.8742 24.9801H86.1609C85.7234 26.6656 84.8284 28.1246 83.4805 29.3572C82.1302 30.5919 80.1983 31.2071 77.6823 31.2071C75.7902 31.2071 74.1247 30.8207 72.6835 30.0478C71.2423 29.275 70.1297 28.1757 69.3435 26.7433C68.5575 25.3132 68.1666 23.6297 68.1666 21.691C68.1666 19.7522 68.5486 18.0689 69.308 16.6387C70.0675 15.2086 71.1357 14.107 72.508 13.3342C73.8805 12.5614 75.4882 12.1749 77.3336 12.1749C79.179 12.1749 80.709 12.5569 81.9882 13.3164C83.2695 14.0782 84.2243 15.0886 84.8595 16.3433C85.4946 17.6025 85.8099 18.9794 85.8099 20.4785V22.5549H71.451C71.5642 24.3538 72.1727 25.7862 73.2675 26.8454C74.3623 27.907 75.8346 28.4377 77.6801 28.4377C79.179 28.4377 80.3293 28.1336 81.1243 27.5206C81.9193 26.9077 82.5012 26.0616 82.872 24.9756L82.8742 24.9801ZM71.3866 19.9632H82.2524C82.2524 18.3954 81.8483 17.1651 81.0399 16.2768C80.2316 15.3906 78.9636 14.9442 77.2336 14.9442C75.6192 14.9442 74.2979 15.3773 73.272 16.2435C72.246 17.1074 71.6176 18.3488 71.3866 19.9632ZM120.992 30.6919H124.108V5.77686H120.992V30.6941V30.6919ZM164.779 10.7336H168.418V6.83839H164.779V10.7336ZM178.212 28.0114C177.647 28.0692 177.304 28.098 177.192 28.098C177.031 28.098 176.9 28.0514 176.81 27.958C176.718 27.867 176.67 27.7404 176.67 27.576C176.67 27.4629 176.7 27.1208 176.759 26.5546C176.814 25.9905 176.845 25.1177 176.845 23.9428V15.3329H181.286L180.411 12.6968H176.846V7.85107H173.734V12.6947H170.346V15.3307H173.734V24.8045C173.734 26.79 174.22 28.2667 175.188 29.235C176.156 30.2033 177.633 30.6896 179.619 30.6896H182.041V27.9226H180.829C179.652 27.9226 178.781 27.9514 178.215 28.0091L178.212 28.0114ZM197.033 12.6968L191.877 27.796C191.808 27.9825 191.699 28.2246 191.346 28.2246C190.993 28.2246 190.882 27.9825 190.812 27.796L185.656 12.6968H182.481L188.452 30.6919H190.564C190.701 30.6919 190.807 30.7052 190.878 30.7274C190.947 30.7497 191.004 30.8074 191.051 30.9006C191.141 31.0383 191.13 31.247 191.015 31.5225L190.047 34.1519C189.907 34.4983 189.642 34.6715 189.252 34.6715C189.112 34.6715 188.79 34.6426 188.283 34.5849C187.775 34.5271 187.12 34.4983 186.312 34.4983H183.785V37.2653H187.107C189.045 37.2653 190.211 36.9367 191.215 36.2793C192.219 35.6221 192.996 34.4627 193.551 32.8017L200 13.3875V12.6968H197.037H197.033ZM154.241 19.4103L149.362 12.6968H145.936V13.3875L151.782 21.1735L144.653 29.9989V30.6896H148.149L153.825 23.4565L159.119 30.6896H162.477V29.9989L156.281 21.6933L162.997 13.4231V12.6968H159.501L154.242 19.4103H154.241ZM165.111 30.6919H168.226V12.699H165.111V30.6941V30.6919ZM144.611 24.9801C144.171 26.6656 143.279 28.1246 141.931 29.3572C140.581 30.5919 138.649 31.2071 136.133 31.2071C134.241 31.2071 132.575 30.8207 131.134 30.0478C129.69 29.275 128.581 28.1757 127.794 26.7433C127.01 25.3132 126.62 23.6297 126.62 21.691C126.62 19.7522 127.001 18.0689 127.761 16.6387C128.523 15.2086 129.589 14.107 130.962 13.3342C132.333 12.5614 133.941 12.1749 135.789 12.1749C137.637 12.1749 139.164 12.5569 140.445 13.3164C141.725 14.0782 142.682 15.0886 143.316 16.3433C143.952 17.6025 144.267 18.9794 144.267 20.4785V22.5549H129.907C130.022 24.3538 130.627 25.7862 131.723 26.8454C132.818 27.907 134.29 28.4377 136.136 28.4377C137.634 28.4377 138.785 28.1336 139.579 27.5206C140.374 26.9077 140.956 26.0616 141.325 24.9756H144.614L144.611 24.9801ZM129.915 19.9632H140.781C140.781 18.3954 140.377 17.1651 139.571 16.2768C138.762 15.3906 137.494 14.9442 135.764 14.9442C134.149 14.9442 132.829 15.3773 131.803 16.2435C130.777 17.1074 130.147 18.3488 129.918 19.9632H129.915Z" fill="#41B4D2"/>
</svg>
